<?xml version="1.0" standalone="no"?>
<!DOCTYPE svg PUBLIC "-//W3C//DTD SVG 1.1//EN" "http://www.w3.org/Graphics/SVG/1.1/DTD/svg11.dtd" >
<svg xmlns="http://www.w3.org/2000/svg">
<metadata></metadata>
<defs>
<font id="novecentomedium" horiz-adv-x="1490" >
<font-face units-per-em="2048" ascent="1741" descent="-307" />
<missing-glyph horiz-adv-x="477" />
<glyph horiz-adv-x="0" />
<glyph horiz-adv-x="682" />
<glyph unicode=" "  horiz-adv-x="477" />
<glyph unicode="&#x09;" horiz-adv-x="477" />
<glyph unicode="&#xa0;" horiz-adv-x="477" />
<glyph unicode="!" horiz-adv-x="559" d="M168 0v322h221v-322h-221zM168 459v975h221v-975h-221z" />
<glyph unicode="&#x22;" horiz-adv-x="950" d="M168 989v445h213v-445h-213zM569 989v445h213v-445h-213z" />
<glyph unicode="#" horiz-adv-x="1703" d="M59 346l93 195h204l170 366h-204l92 193h200l156 334h211l-152 -334h371l156 334h213l-152 -334h228l-93 -193h-223l-166 -366h219l-92 -195h-215l-157 -346h-228l160 346h-361l-157 -346h-228l160 346h-205zM578 541h364l170 366h-369z" />
<glyph unicode="$" horiz-adv-x="1148" d="M59 389l211 57q20 -118 105.5 -196t218.5 -78q119 0 189.5 59t70.5 150q0 30 -9 56t-23 46t-38.5 40t-47 33.5t-58.5 30.5t-63 27.5t-70 28t-70 29.5q-153 69 -218 114q-159 112 -159 287q0 139 104 246.5t271 134.5v164h215v-166q144 -29 245.5 -127t135.5 -240 l-209 -57q-26 113 -106.5 176.5t-188.5 63.5q-107 0 -173 -52t-66 -135q0 -42 20.5 -76t75 -66.5t88 -48t120.5 -50.5l36 -15q49 -20 83.5 -35.5t82 -40.5t80 -49t67.5 -58t56.5 -69.5t35.5 -82.5t14 -99q0 -160 -108 -272.5t-289 -138.5v-164h-215v166q-165 29 -271.5 137 t-142.5 270z" />
<glyph unicode="%" horiz-adv-x="1699" d="M27 1034q0 184 92.5 300t245.5 116t245 -116t92 -300t-91.5 -298.5t-245.5 -114.5t-246 115t-92 298zM178 1034q0 -115 52 -188.5t137 -73.5t134.5 73t49.5 189q0 118 -49.5 191t-134.5 73t-137 -73.5t-52 -190.5zM307 0l934 1434h150l-932 -1434h-152zM997 399 q0 184 92 299t246 115t246 -115t92 -299q0 -185 -92 -300t-246 -115t-246 115t-92 300zM1149 399q0 -116 51.5 -190t136.5 -74t135 74t50 190t-50 189.5t-135 73.5t-136.5 -73.5t-51.5 -189.5z" />
<glyph unicode="&#x26;" horiz-adv-x="1370" d="M80 401q0 139 86.5 231.5t208.5 106.5v4q-45 5 -91 28.5t-86.5 62t-66 98t-25.5 129.5q0 173 122.5 287t338.5 114q186 0 313.5 -103.5t168.5 -289.5l-191 -53q-35 129 -103.5 192.5t-185.5 63.5q-64 0 -112.5 -20t-74 -53.5t-38 -69.5t-12.5 -74q0 -98 71.5 -163 t202.5 -65h737v-178h-243v-168q0 -115 -30 -207t-91.5 -160.5t-162.5 -105.5t-236 -37q-223 0 -361.5 119t-138.5 311zM297 408q0 -107 80.5 -174.5t206.5 -67.5q161 0 234 79t73 244v160h-295q-141 0 -220 -62.5t-79 -178.5z" />
<glyph unicode="'" horiz-adv-x="548" d="M168 989v445h213v-445h-213z" />
<glyph unicode="(" horiz-adv-x="735" d="M84 711q0 194 31.5 352.5t81.5 265t121.5 187t143 125t154.5 73.5l62 -209q-199 -67 -285 -263.5t-86 -530.5q0 -336 86 -533t285 -264l-62 -209q-83 29 -154.5 73.5t-143 125.5t-121.5 187.5t-81.5 266t-31.5 353.5z" />
<glyph unicode=")" horiz-adv-x="737" d="M59 -86l62 -209q83 29 154.5 73.5t143 125.5t121.5 187.5t81.5 266t31.5 353.5t-31.5 352.5t-81.5 265t-121.5 187t-143 125t-154.5 73.5l-62 -209q199 -67 285 -263.5t86 -530.5q0 -336 -86 -533t-285 -264z" />
<glyph unicode="*" horiz-adv-x="985" d="M168 1128l43 138l215 -72l-4 240h141l-4 -240l215 72l43 -138l-219 -63l141 -197l-114 -86l-131 201l-132 -201l-114 84l139 199z" />
<glyph unicode="+" horiz-adv-x="1333" d="M231 635v184h338v346h195v-346h340v-184h-340v-348h-193v348h-340z" />
<glyph unicode="," horiz-adv-x="464" d="M82 -272q46 38 84.5 112t38.5 131l24 11l-24 2q-38 3 -67 33t-29 77q0 51 34 85t84 34q52 0 85.5 -38t33.5 -99q0 -90 -52 -185.5t-126 -162.5h-86z" />
<glyph unicode="-" horiz-adv-x="1210" d="M168 635v184h872v-184h-872z" />
<glyph unicode="." horiz-adv-x="464" d="M115 94q0 51 34 85t84 34q49 0 83 -34.5t34 -84.5q0 -51 -34.5 -86t-82.5 -35q-51 0 -84.5 35t-33.5 86z" />
<glyph unicode="/" horiz-adv-x="933" d="M29 0l663 1434h213l-651 -1434h-225z" />
<glyph unicode="0" horiz-adv-x="1347" d="M80 717q0 158 40.5 294t114.5 236t186.5 157.5t250.5 57.5q184 0 320.5 -99t206 -266.5t69.5 -379.5t-69.5 -379.5t-206 -267t-320.5 -99.5q-138 0 -250.5 57.5t-186.5 158t-114.5 236.5t-40.5 294zM305 717q0 -156 39 -273t123 -186.5t205 -69.5t205 69.5t123.5 186.5 t39.5 273t-39.5 273t-123.5 186t-205 69t-205 -69t-123 -186t-39 -273z" />
<glyph unicode="1" horiz-adv-x="823" d="M80 1014l422 420h153v-1434h-219v858q0 48 2 112.5t3.5 102t0.5 37.5h-4q-1 0 -16 -18t-39.5 -46t-44.5 -47l-119 -118z" />
<glyph unicode="2" horiz-adv-x="1132" d="M92 1083q47 173 177 276t319 103q209 0 340 -122t131 -316q0 -72 -19.5 -138.5t-49 -116.5t-74 -99.5t-86 -86.5t-92.5 -80q-18 -15 -27 -22l-324 -276l2 -2l7 1q6 0 18.5 0.5t29 1.5t39.5 2t48 1.5t56.5 1t63.5 0.5h402v-211h-951v178q27 26 580 547q154 147 154 297 q0 106 -71 175t-181 69q-114 0 -186.5 -65.5t-102.5 -170.5z" />
<glyph unicode="3" horiz-adv-x="1165" d="M80 367l199 55q22 -111 104.5 -180.5t204.5 -69.5q124 0 198 70.5t74 179.5q0 107 -77 168t-205 61h-115v178h112q123 0 193 60t70 164q0 89 -65 151t-189 62q-217 0 -281 -236l-197 53q41 178 170.5 278.5t319.5 100.5q219 0 342 -113.5t123 -281.5q0 -59 -18 -110.5 t-47.5 -88.5t-67 -64.5t-76.5 -42t-76 -16.5v-2q55 -2 108 -24.5t99 -62t74 -105t28 -145.5q0 -192 -138.5 -313.5t-350.5 -121.5q-196 0 -338 110.5t-178 285.5z" />
<glyph unicode="4" horiz-adv-x="1216" d="M80 328v166l719 940h178v-910h166v-196h-166v-328h-209v328h-688zM322 524l2 -2h12q11 0 31 0.5t44 1t54 0.5h57h246v275q0 31 0.5 66t1 65t1.5 59t2 52.5t1.5 41t1.5 27.5v10h-2q-1 0 -20.5 -28t-53.5 -76.5t-63 -85.5l-213 -279q-31 -39 -57.5 -71.5t-35.5 -43.5 t-9 -12z" />
<glyph unicode="5" horiz-adv-x="1148" d="M92 354l201 54q24 -105 97 -173.5t192 -68.5q120 0 196 84t76 215t-77 214t-195 83q-191 0 -250 -152l-191 54l127 770h727v-211h-565l-27 -152q-13 -63 -25 -119t-17 -79.5t-5 -24.5l2 -2q29 36 91.5 64t142.5 28q207 0 345 -133.5t138 -341.5q0 -213 -137.5 -352.5 t-347.5 -139.5q-197 0 -328.5 109.5t-169.5 273.5z" />
<glyph unicode="6" horiz-adv-x="1146" d="M80 469q0 149 51 270.5t160 272.5l307 422h236l-416 -568l2 -4q76 90 211 90q206 0 335.5 -141t129.5 -350q0 -214 -144.5 -352t-365.5 -138q-218 0 -362 139t-144 359zM297 469q0 -134 82 -215.5t213 -81.5t212 82t83 215q1 132 -81 213.5t-214 81.5q-133 0 -214 -82 t-81 -213z" />
<glyph unicode="7" horiz-adv-x="1062" d="M61 1223v211h967v-140l-668 -1294h-233l502 965q30 58 68 122.5t61 100.5l22 37l-2 4l-14 -1q-13 0 -35 -1t-47.5 -2t-55.5 -1.5t-55 -0.5h-510z" />
<glyph unicode="8" horiz-adv-x="1177" d="M80 397q0 79 29 147t74.5 112t97 71t102.5 35v2q-33 6 -73 29t-79.5 61.5t-65.5 98.5t-26 128q0 164 127 272.5t322 108.5q197 0 322.5 -109t125.5 -272q0 -68 -26 -128t-65 -98.5t-78.5 -61.5t-71.5 -29v-2q51 -9 102 -36.5t97 -71.5t75 -111.5t29 -145.5 q0 -187 -143 -306.5t-367 -119.5q-225 0 -366.5 119.5t-141.5 306.5zM289 403q0 -114 82.5 -182.5t216.5 -68.5q136 0 218.5 69t82.5 182q0 112 -82.5 179t-218.5 67q-135 0 -217 -68t-82 -178zM330 1073q0 -94 72.5 -153.5t185.5 -57.5q115 0 187.5 60t72.5 151 q0 99 -72.5 161t-187.5 62q-114 0 -186 -62.5t-72 -160.5z" />
<glyph unicode="9" horiz-adv-x="1155" d="M53 969q0 222 145.5 357.5t368.5 135.5q220 0 365 -135.5t145 -365.5q0 -141 -57 -279t-184 -297l-295 -385h-244l444 563l-2 4q-73 -88 -211 -88q-220 0 -347.5 139.5t-127.5 350.5zM262 961q0 -137 86 -215t213 -78q131 0 215 80.5t84 212.5q0 145 -84 223t-215 78 q-130 0 -214.5 -80t-84.5 -221z" />
<glyph unicode=":" horiz-adv-x="464" d="M115 94q0 51 34 85t84 34q49 0 83 -34.5t34 -84.5q0 -51 -34.5 -86t-82.5 -35q-51 0 -84.5 35t-33.5 86zM115 717q0 51 34 85t84 34q49 0 83 -34.5t34 -84.5q0 -51 -34.5 -86t-82.5 -35q-51 0 -84.5 35t-33.5 86z" />
<glyph unicode=";" horiz-adv-x="495" d="M117 -276q46 38 84.5 112t38.5 131l24 10l-24 3q-38 3 -67.5 33t-29.5 77q0 51 34.5 85t84.5 34q52 0 85.5 -38t33.5 -99q0 -90 -52 -185.5t-126 -162.5h-86zM143 717q0 51 34.5 85t84.5 34q49 0 83 -34.5t34 -84.5q0 -51 -34.5 -86t-82.5 -35q-51 0 -85 35t-34 86z" />
<glyph unicode="&#x3c;" horiz-adv-x="1333" d="M215 752l600 -502h264l-587 502l587 499h-264z" />
<glyph unicode="=" horiz-adv-x="1333" d="M231 416v184h873v-184h-873zM231 831v185h873v-185h-873z" />
<glyph unicode="&#x3e;" horiz-adv-x="1333" d="M236 250l587 502l-587 499h264l600 -499l-600 -502h-264z" />
<glyph unicode="?" horiz-adv-x="1116" d="M80 1081q41 181 172.5 281t322.5 100q218 0 339.5 -115.5t121.5 -291.5q0 -66 -21.5 -125t-55 -104t-86.5 -87.5t-104.5 -73.5t-119.5 -65v-141h-223v223q211 107 297 186.5t86 178.5q0 91 -61 155t-185 64q-231 0 -297 -236zM426 0v322h223v-322h-223z" />
<glyph unicode="@" horiz-adv-x="1552" d="M80 717q0 213 89 383.5t247.5 266t357.5 95.5q200 0 360 -95.5t249.5 -266t89.5 -383.5q0 -81 -18 -154.5t-52.5 -134.5t-92 -97t-130.5 -36q-80 0 -136.5 47t-68.5 129l-4 2q-25 -69 -97 -119.5t-153 -50.5q-155 0 -250.5 111.5t-95.5 290.5q0 184 97 298.5t259 114.5 q91 0 149 -45t66 -78h2v88h150v-530q0 -66 24 -104.5t72 -38.5t80.5 43.5t46.5 110.5t14 153q0 178 -71.5 319t-199.5 220t-290 79t-289.5 -79t-198.5 -220t-71 -319t70.5 -321t197.5 -224.5t287 -81.5q71 0 131.5 10.5t99 27.5t64 32t42.5 29.5t19 15.5l105 -53 q-5 -10 -23 -28.5t-57.5 -45.5t-89.5 -50.5t-127.5 -40t-163.5 -16.5q-198 0 -356 97t-246 267t-88 382zM545 707q1 -116 60.5 -183t146.5 -67q83 0 139 62t57 169v74q1 102 -55.5 154.5t-140.5 52.5q-89 0 -148 -70.5t-59 -191.5z" />
<glyph unicode="A" horiz-adv-x="1363" d="M29 0l540 1434h224l542 -1434h-235l-117 326h-602l-117 -326h-235zM453 524h458l-170 469q-13 40 -27.5 87.5t-21.5 73.5t-8 26h-4q-1 0 -8.5 -26t-22.5 -74t-28 -87z" />
<glyph unicode="B" horiz-adv-x="1234" d="M168 0v1434h502q184 0 298.5 -101.5t114.5 -259.5q0 -110 -68 -191t-147 -98v-2q48 -8 99 -36.5t96 -72.5t73.5 -109t28.5 -138q0 -194 -125.5 -310t-353.5 -116h-518zM391 190h285q115 0 187.5 66.5t72.5 175.5q0 107 -77 175.5t-189 68.5h-279v-486zM391 852h248 q99 0 162 56t63 141q0 88 -62 141t-165 53h-246v-391z" />
<glyph unicode="C" horiz-adv-x="1402" d="M80 717q0 223 86.5 393.5t236.5 261t340 90.5q197 0 350.5 -99.5t235.5 -277.5l-221 -59q-55 106 -151.5 162.5t-213.5 56.5q-196 0 -315 -142.5t-119 -385.5t121 -385t315 -142q130 0 233.5 67.5t154.5 188.5l219 -57q-77 -196 -238 -307t-371 -111q-143 0 -265 53.5 t-210 150t-138 236.5t-50 306z" />
<glyph unicode="D" horiz-adv-x="1466" d="M168 0v1434h522q200 0 358 -89t248 -254.5t90 -379.5q0 -161 -51.5 -294.5t-142.5 -224.5t-217 -141.5t-273 -50.5h-534zM391 209h320q198 0 323 134.5t125 367.5q0 238 -129 376t-330 138h-309v-1016z" />
<glyph unicode="E" horiz-adv-x="1198" d="M168 0v1434h899v-211h-676v-375h531v-199h-531v-438h688v-211h-911z" />
<glyph unicode="F" horiz-adv-x="1114" d="M168 0v1434h885v-211h-662v-418h516v-203h-516v-602h-223z" />
<glyph unicode="G" horiz-adv-x="1464" d="M80 717q0 223 86.5 393.5t236.5 261t340 90.5q202 -3 354 -102t232 -275l-221 -59q-55 106 -150.5 162.5t-214.5 56.5q-197 0 -316.5 -142t-119.5 -386q0 -245 125.5 -387t325.5 -142q157 0 261.5 77t141.5 181v142h-370v182h561v-772h-191v52.5t0.5 41.5t0.5 31v23 t0.5 14.5t0.5 8.5v3h-2q-56 -75 -169 -137t-253 -62t-261.5 53.5t-209.5 149t-138 235.5t-50 306z" />
<glyph unicode="H" horiz-adv-x="1402" d="M168 0v1434h223v-592h621v592h223v-1434h-223v627h-621v-627h-223z" />
<glyph unicode="I" horiz-adv-x="559" d="M168 0v1434h223v-1434h-223z" />
<glyph unicode="J" horiz-adv-x="1257" d="M29 336l217 57q34 -101 115 -157t194 -56q164 0 252 98t88 275v881h223v-867q0 -283 -149.5 -439.5t-413.5 -156.5q-192 0 -333 100t-193 265z" />
<glyph unicode="K" horiz-adv-x="1341" d="M168 0v1434h223v-334q0 -89 -1.5 -171t-2.5 -114.5t0 -32.5h2q1 0 25.5 28t75 84t98.5 107l403 433h269l-558 -592l588 -842h-260l-473 686l-166 -178v-508h-223z" />
<glyph unicode="L" horiz-adv-x="1099" d="M168 0v1434h223v-1223h668v-211h-891z" />
<glyph unicode="M" horiz-adv-x="1589" d="M168 0v1434h209l299 -557q43 -78 72 -138.5t37 -80.5l8 -19h2l8 20q8 20 37 80t73 138l299 557h207v-1434h-215v545q0 126 4.5 256t7.5 195l3 65h-5q-3 0 -112 -223l-252 -478h-113l-252 478q-109 223 -112 223h-2q-1 0 2.5 -65t7.5 -195t4 -256v-545h-217z" />
<glyph unicode="N" horiz-adv-x="1443" d="M168 0v1434h203l485 -734q38 -56 90 -134.5t83 -125.5t32 -47h4q1 0 -1.5 56t-5.5 165t-3 209v611h221v-1434h-203l-477 725q-46 67 -99.5 149.5t-83 128.5t-30.5 46h-4q-1 0 1.5 -53.5t5.5 -165.5t3 -222v-608h-221z" />
<glyph unicode="O" d="M80 717q0 223 86.5 393.5t236.5 261t340 90.5q143 0 266 -53.5t212 -149.5t139.5 -236t50.5 -306q0 -168 -50.5 -308t-139.5 -236t-212 -149t-266 -53t-265 53.5t-210 150t-138 236.5t-50 306zM309 717q0 -245 119 -387t315 -142q198 0 318.5 142.5t120.5 386.5 q0 247 -120.5 387.5t-318.5 140.5q-196 0 -315 -141.5t-119 -386.5z" />
<glyph unicode="P" horiz-adv-x="1167" d="M168 0v1434h432q239 0 377.5 -125.5t138.5 -343.5t-138.5 -342.5t-377.5 -124.5h-209v-498h-223zM391 707h207q137 0 213 68.5t76 189.5q0 124 -77.5 192t-211.5 68h-207v-518z" />
<glyph unicode="Q" d="M80 717q0 223 86.5 393.5t236.5 261t340 90.5q143 0 266 -53.5t212 -149.5t139.5 -236t50.5 -306q0 -303 -154.5 -501.5t-404.5 -235.5v-250h-219v250q-248 39 -400.5 237.5t-152.5 499.5zM309 717q0 -245 119 -387t315 -142q198 0 318.5 142.5t120.5 386.5 q0 247 -120.5 387.5t-318.5 140.5q-196 0 -315 -141.5t-119 -386.5z" />
<glyph unicode="R" horiz-adv-x="1241" d="M168 0v1434h432q239 0 379.5 -126t140.5 -339q0 -147 -69.5 -252t-196.5 -158l315 -559h-249l-277 516q-14 -2 -43 -2h-209v-514h-223zM391 711h227q129 0 201 72.5t72 185.5q0 115 -72.5 185.5t-200.5 70.5h-227v-514z" />
<glyph unicode="S" horiz-adv-x="1148" d="M59 389l211 57q20 -118 105.5 -196t218.5 -78q119 0 189.5 59t70.5 150q0 30 -9 56t-23 46t-38.5 40t-47 33.5t-58.5 30.5t-63 27.5t-70 28t-70 29.5q-153 69 -218 114q-159 112 -159 287q0 162 134.5 275.5t342.5 113.5q186 0 320 -104t174 -273l-209 -57 q-26 113 -106.5 176.5t-188.5 63.5q-107 0 -173 -52t-66 -135q0 -42 20.5 -76t75 -66.5t88 -48t120.5 -50.5l36 -15q49 -20 83.5 -35.5t82 -40.5t80 -49t67.5 -58t56.5 -69.5t35.5 -82.5t14 -99q0 -183 -138 -301.5t-359 -118.5q-213 0 -349.5 114t-179.5 304z" />
<glyph unicode="T" horiz-adv-x="1140" d="M35 1223v211h1071v-211h-426v-1223h-223v1223h-422z" />
<glyph unicode="U" horiz-adv-x="1386" d="M139 567v867h221v-869q0 -385 332 -385t332 385v869h223v-867q0 -287 -146 -441.5t-409 -154.5t-408 154.5t-145 441.5z" />
<glyph unicode="V" horiz-adv-x="1357" d="M29 1434h237l338 -949q19 -56 37 -118.5t27 -94.5t10 -32h2q1 0 10 32t27 94.5t37 118.5l336 949h239l-528 -1434h-244z" />
<glyph unicode="W" horiz-adv-x="1923" d="M53 1434h234l239 -871q15 -57 28 -117t18 -90t6 -30h4q1 0 7 30t21 90t33 117l217 709h203l217 -709q18 -57 33 -117t21 -90t7 -30h2q1 0 6.5 30t18.5 90t27 117l239 871h236l-416 -1434h-209l-215 729q-23 77 -39.5 145.5t-22.5 96.5l-5 28h-2q-1 0 -6.5 -28.5 t-22.5 -97t-39 -144.5l-215 -729h-211z" />
<glyph unicode="X" horiz-adv-x="1288" d="M29 0l483 743l-446 691h262l239 -379q10 -16 29 -51t32.5 -60.5t14.5 -25.5h2q1 0 14.5 25.5t32.5 60.5t29 51l240 379h264l-447 -691l482 -743h-263l-262 397q-14 23 -36.5 63t-37.5 67.5t-16 27.5h-2q-1 0 -16 -27.5t-37.5 -67.5t-36.5 -63l-260 -397h-264z" />
<glyph unicode="Y" horiz-adv-x="1292" d="M29 1434h243l295 -443q76 -133 78 -133h4q2 0 78 133l293 443h244l-508 -775v-659h-219v659z" />
<glyph unicode="Z" horiz-adv-x="1306" d="M115 0v207l706 903q18 22 45 51t44.5 47t17.5 19l-2 2l-11 -1q-11 0 -30 -1t-43 -2t-55 -1.5t-60 -0.5h-592v211h1057v-207l-690 -895q-24 -31 -51 -62t-41.5 -46.5t-14.5 -16.5l2 -2l5 1q6 0 15.5 0.5t22.5 1t30 1t36 1t42 1t46 0.5h598v-211h-1077z" />
<glyph unicode="[" horiz-adv-x="688" d="M168 -309v2062h473v-209h-250v-1644h250v-209h-473z" />
<glyph unicode="\" horiz-adv-x="933" d="M29 1434l649 -1434h227l-665 1434h-211z" />
<glyph unicode="]" horiz-adv-x="700" d="M59 -100v-209h473v2062h-473v-209h250v-1644h-250z" />
<glyph unicode="^" horiz-adv-x="1230" d="M168 977l448 485l447 -485l-102 -92l-345 381l-346 -381z" />
<glyph unicode="_" horiz-adv-x="1480" d="M168 0h1143v-178h-1143v178z" />
<glyph unicode="`" horiz-adv-x="636" d="M51 1718l84 154l420 -244l-72 -123z" />
<glyph unicode="a" horiz-adv-x="1363" d="M29 0l540 1434h224l542 -1434h-235l-117 326h-602l-117 -326h-235zM453 524h458l-170 469q-13 40 -27.5 87.5t-21.5 73.5t-8 26h-4q-1 0 -8.5 -26t-22.5 -74t-28 -87z" />
<glyph unicode="b" horiz-adv-x="1234" d="M168 0v1434h502q184 0 298.5 -101.5t114.5 -259.5q0 -110 -68 -191t-147 -98v-2q48 -8 99 -36.5t96 -72.5t73.5 -109t28.5 -138q0 -194 -125.5 -310t-353.5 -116h-518zM391 190h285q115 0 187.5 66.5t72.5 175.5q0 107 -77 175.5t-189 68.5h-279v-486zM391 852h248 q99 0 162 56t63 141q0 88 -62 141t-165 53h-246v-391z" />
<glyph unicode="c" horiz-adv-x="1402" d="M80 717q0 223 86.5 393.5t236.5 261t340 90.5q197 0 350.5 -99.5t235.5 -277.5l-221 -59q-55 106 -151.5 162.5t-213.5 56.5q-196 0 -315 -142.5t-119 -385.5t121 -385t315 -142q130 0 233.5 67.5t154.5 188.5l219 -57q-77 -196 -238 -307t-371 -111q-143 0 -265 53.5 t-210 150t-138 236.5t-50 306z" />
<glyph unicode="d" horiz-adv-x="1466" d="M168 0v1434h522q200 0 358 -89t248 -254.5t90 -379.5q0 -161 -51.5 -294.5t-142.5 -224.5t-217 -141.5t-273 -50.5h-534zM391 209h320q198 0 323 134.5t125 367.5q0 238 -129 376t-330 138h-309v-1016z" />
<glyph unicode="e" horiz-adv-x="1198" d="M168 0v1434h899v-211h-676v-375h531v-199h-531v-438h688v-211h-911z" />
<glyph unicode="f" horiz-adv-x="1114" d="M168 0v1434h885v-211h-662v-418h516v-203h-516v-602h-223z" />
<glyph unicode="g" horiz-adv-x="1464" d="M80 717q0 223 86.5 393.5t236.5 261t340 90.5q202 -3 354 -102t232 -275l-221 -59q-55 106 -150.5 162.5t-214.5 56.5q-197 0 -316.5 -142t-119.5 -386q0 -245 125.5 -387t325.5 -142q157 0 261.5 77t141.5 181v142h-370v182h561v-772h-191v52.5t0.5 41.5t0.5 31v23 t0.5 14.5t0.5 8.5v3h-2q-56 -75 -169 -137t-253 -62t-261.5 53.5t-209.5 149t-138 235.5t-50 306z" />
<glyph unicode="h" horiz-adv-x="1402" d="M168 0v1434h223v-592h621v592h223v-1434h-223v627h-621v-627h-223z" />
<glyph unicode="i" horiz-adv-x="559" d="M168 0v1434h223v-1434h-223z" />
<glyph unicode="j" horiz-adv-x="1257" d="M29 336l217 57q34 -101 115 -157t194 -56q164 0 252 98t88 275v881h223v-867q0 -283 -149.5 -439.5t-413.5 -156.5q-192 0 -333 100t-193 265z" />
<glyph unicode="k" horiz-adv-x="1341" d="M168 0v1434h223v-334q0 -89 -1.5 -171t-2.5 -114.5t0 -32.5h2q1 0 25.5 28t75 84t98.5 107l403 433h269l-558 -592l588 -842h-260l-473 686l-166 -178v-508h-223z" />
<glyph unicode="l" horiz-adv-x="1099" d="M168 0v1434h223v-1223h668v-211h-891z" />
<glyph unicode="m" horiz-adv-x="1589" d="M168 0v1434h209l299 -557q43 -78 72 -138.5t37 -80.5l8 -19h2l8 20q8 20 37 80t73 138l299 557h207v-1434h-215v545q0 126 4.5 256t7.5 195l3 65h-5q-3 0 -112 -223l-252 -478h-113l-252 478q-109 223 -112 223h-2q-1 0 2.5 -65t7.5 -195t4 -256v-545h-217z" />
<glyph unicode="n" horiz-adv-x="1443" d="M168 0v1434h203l485 -734q38 -56 90 -134.5t83 -125.5t32 -47h4q1 0 -1.5 56t-5.5 165t-3 209v611h221v-1434h-203l-477 725q-46 67 -99.5 149.5t-83 128.5t-30.5 46h-4q-1 0 1.5 -53.5t5.5 -165.5t3 -222v-608h-221z" />
<glyph unicode="o" d="M80 717q0 223 86.5 393.5t236.5 261t340 90.5q143 0 266 -53.5t212 -149.5t139.5 -236t50.5 -306q0 -168 -50.5 -308t-139.5 -236t-212 -149t-266 -53t-265 53.5t-210 150t-138 236.5t-50 306zM309 717q0 -245 119 -387t315 -142q198 0 318.5 142.5t120.5 386.5 q0 247 -120.5 387.5t-318.5 140.5q-196 0 -315 -141.5t-119 -386.5z" />
<glyph unicode="p" horiz-adv-x="1167" d="M168 0v1434h432q239 0 377.5 -125.5t138.5 -343.5t-138.5 -342.5t-377.5 -124.5h-209v-498h-223zM391 707h207q137 0 213 68.5t76 189.5q0 124 -77.5 192t-211.5 68h-207v-518z" />
<glyph unicode="q" d="M80 717q0 223 86.5 393.5t236.5 261t340 90.5q143 0 266 -53.5t212 -149.5t139.5 -236t50.5 -306q0 -303 -154.5 -501.5t-404.5 -235.5v-250h-219v250q-248 39 -400.5 237.5t-152.5 499.5zM309 717q0 -245 119 -387t315 -142q198 0 318.5 142.5t120.5 386.5 q0 247 -120.5 387.5t-318.5 140.5q-196 0 -315 -141.5t-119 -386.5z" />
<glyph unicode="r" horiz-adv-x="1241" d="M168 0v1434h432q239 0 379.5 -126t140.5 -339q0 -147 -69.5 -252t-196.5 -158l315 -559h-249l-277 516q-14 -2 -43 -2h-209v-514h-223zM391 711h227q129 0 201 72.5t72 185.5q0 115 -72.5 185.5t-200.5 70.5h-227v-514z" />
<glyph unicode="s" horiz-adv-x="1148" d="M59 389l211 57q20 -118 105.5 -196t218.5 -78q119 0 189.5 59t70.5 150q0 30 -9 56t-23 46t-38.5 40t-47 33.5t-58.5 30.5t-63 27.5t-70 28t-70 29.5q-153 69 -218 114q-159 112 -159 287q0 162 134.5 275.5t342.5 113.5q186 0 320 -104t174 -273l-209 -57 q-26 113 -106.5 176.5t-188.5 63.5q-107 0 -173 -52t-66 -135q0 -42 20.5 -76t75 -66.5t88 -48t120.5 -50.5l36 -15q49 -20 83.5 -35.5t82 -40.5t80 -49t67.5 -58t56.5 -69.5t35.5 -82.5t14 -99q0 -183 -138 -301.5t-359 -118.5q-213 0 -349.5 114t-179.5 304z" />
<glyph unicode="t" horiz-adv-x="1140" d="M35 1223v211h1071v-211h-426v-1223h-223v1223h-422z" />
<glyph unicode="u" horiz-adv-x="1386" d="M139 567v867h221v-869q0 -385 332 -385t332 385v869h223v-867q0 -287 -146 -441.5t-409 -154.5t-408 154.5t-145 441.5z" />
<glyph unicode="v" horiz-adv-x="1357" d="M29 1434h237l338 -949q19 -56 37 -118.5t27 -94.5t10 -32h2q1 0 10 32t27 94.5t37 118.5l336 949h239l-528 -1434h-244z" />
<glyph unicode="w" horiz-adv-x="1923" d="M53 1434h234l239 -871q15 -57 28 -117t18 -90t6 -30h4q1 0 7 30t21 90t33 117l217 709h203l217 -709q18 -57 33 -117t21 -90t7 -30h2q1 0 6.5 30t18.5 90t27 117l239 871h236l-416 -1434h-209l-215 729q-23 77 -39.5 145.5t-22.5 96.5l-5 28h-2q-1 0 -6.5 -28.5 t-22.5 -97t-39 -144.5l-215 -729h-211z" />
<glyph unicode="x" horiz-adv-x="1288" d="M29 0l483 743l-446 691h262l239 -379q10 -16 29 -51t32.5 -60.5t14.5 -25.5h2q1 0 14.5 25.5t32.5 60.5t29 51l240 379h264l-447 -691l482 -743h-263l-262 397q-14 23 -36.5 63t-37.5 67.5t-16 27.5h-2q-1 0 -16 -27.5t-37.5 -67.5t-36.5 -63l-260 -397h-264z" />
<glyph unicode="y" horiz-adv-x="1292" d="M29 1434h243l295 -443q76 -133 78 -133h4q2 0 78 133l293 443h244l-508 -775v-659h-219v659z" />
<glyph unicode="z" horiz-adv-x="1306" d="M115 0v207l706 903q18 22 45 51t44.5 47t17.5 19l-2 2l-11 -1q-11 0 -30 -1t-43 -2t-55 -1.5t-60 -0.5h-592v211h1057v-207l-690 -895q-24 -31 -51 -62t-41.5 -46.5t-14.5 -16.5l2 -2l5 1q6 0 15.5 0.5t22.5 1t30 1t36 1t42 1t46 0.5h598v-211h-1077z" />
<glyph unicode="{" horiz-adv-x="800" d="M168 721q5 2 14 6t32 26t40.5 53.5t32 92t14.5 137.5v236q0 243 121.5 374.5t349.5 131.5v-209q-41 0 -74.5 -7t-67.5 -28t-56.5 -55t-37 -92t-14.5 -136v-202q0 -76 -10.5 -137t-24 -94.5t-31 -56.5t-27.5 -30.5t-17 -9.5q7 -2 17 -9.5t27.5 -31t31 -57.5t24 -95 t10.5 -137v-201q0 -78 14.5 -136t37 -92t56.5 -54.5t67.5 -27.5t74.5 -7v-209q-228 0 -349.5 131.5t-121.5 374.5v236q0 77 -13.5 137.5t-33.5 92.5t-39.5 52.5t-32.5 26.5z" />
<glyph unicode="|" horiz-adv-x="516" d="M168 -152v1739h180v-1739h-180z" />
<glyph unicode="}" horiz-adv-x="806" d="M35 -127v-209q228 0 349.5 131.5t121.5 374.5v236q0 77 13.5 137.5t33 92.5t39.5 52.5t34 26.5l13 6q-5 2 -14 6t-32 26t-40.5 53.5t-32 92t-14.5 137.5v236q0 243 -121.5 374.5t-349.5 131.5v-209q41 0 74.5 -7t67.5 -28t56.5 -55t37 -92t14.5 -136v-202 q0 -76 10.5 -137t24 -94.5t31 -56.5t27.5 -30.5t17 -9.5q-7 -2 -17 -9.5t-27.5 -31t-31 -57.5t-24 -95t-10.5 -137v-201q0 -78 -14.5 -136t-37 -92t-56.5 -54.5t-67.5 -27.5t-74.5 -7z" />
<glyph unicode="~" horiz-adv-x="1333" d="M184 627q11 80 56.5 136t104.5 80t126 23q57 0 114.5 -21.5t96.5 -47.5t84 -47.5t80 -22.5q65 0 98.5 36t36.5 87l182 -47q-16 -119 -100 -181.5t-189 -62.5q-46 1 -91.5 15.5t-82 34.5t-70 40.5t-67.5 34.5t-63 14q-66 1 -99.5 -33.5t-38.5 -86.5z" />
<glyph unicode="&#xa1;" horiz-adv-x="559" d="M168 0v975h223v-975h-223zM168 1112v322h223v-322h-223z" />
<glyph unicode="&#xa2;" horiz-adv-x="1064" d="M80 713q0 214 109 358.5t284 177.5v213h176v-213q120 -20 211.5 -94.5t138.5 -191.5l-188 -50q-76 156 -248 156q-131 0 -206.5 -93t-75.5 -263q0 -169 76.5 -263t207.5 -94q93 0 160 47t100 140l189 -54q-42 -126 -139 -208.5t-226 -106.5v-203h-176v205 q-175 31 -284 176.5t-109 360.5z" />
<glyph unicode="&#xa3;" horiz-adv-x="1259" d="M168 0v211q73 14 109 57.5t40.5 111t-2.5 159.5l-8 88h-127v178h111l-19 199q-18 193 103.5 323t310.5 135q58 1 114.5 -10.5t113 -40t104 -71.5t86 -109.5t59.5 -149.5l-190 -53q-72 245 -275 236q-104 -3 -160 -77.5t-44 -197.5l16 -184h408v-178h-392l9 -82 q25 -272 -99 -342l2 -2l10 1q11 0 29.5 1t43.5 2t58.5 2t69 2t79 1.5t85.5 0.5h361v-211h-1006z" />
<glyph unicode="&#xa4;" horiz-adv-x="1277" d="M86 229l139 142q-96 146 -96 325q0 186 102 332l-139 137l113 113l139 -137q130 100 293 100q162 0 297 -98l137 135l113 -113l-137 -139q102 -133 102 -330q0 -180 -98 -325l141 -142l-113 -112l-139 141q-133 -108 -303 -108q-164 0 -299 106l-139 -139zM330 700 q0 -154 88 -251t221 -97t221 97t88 251q0 151 -88 247.5t-221 96.5t-221 -96.5t-88 -247.5z" />
<glyph unicode="&#xa5;" horiz-adv-x="1292" d="M29 1434h243l295 -443q76 -133 78 -133h4q2 0 78 133l293 443h244l-349 -531h240v-151h-338l-51 -76h389v-152h-399v-524h-219v524h-392v152h381l-51 76h-330v151h232z" />
<glyph unicode="&#xa6;" horiz-adv-x="516" d="M168 -152v594h180v-594h-180zM168 1014v573h180v-573h-180z" />
<glyph unicode="&#xa7;" horiz-adv-x="1007" d="M59 268l181 49q18 -87 89.5 -143t186.5 -57q102 0 162.5 40t60.5 103q0 19 -5 35.5t-17.5 31t-24 26t-35 24t-38.5 20.5t-47 19.5t-48.5 17l-54 18t-53.5 17.5q-142 53 -194 83q-136 79 -136 204q0 73 51.5 129.5t143.5 89.5q-80 38 -125 90t-45 131q0 111 112 189.5 t287 78.5q154 0 266 -71.5t146 -186.5l-181 -47q-20 77 -84 119.5t-155 42.5q-88 0 -142.5 -32.5t-54.5 -86.5q0 -20 7.5 -37t24 -30.5t33.5 -24t46 -21.5t51 -18.5t59 -19t60 -19.5q58 -19 100 -35.5t92.5 -44t82 -57t53.5 -73t22 -93.5q0 -156 -188 -211q194 -94 194 -250 q0 -130 -119 -214.5t-311 -84.5q-184 0 -301 82t-152 217zM268 764q0 -20 8.5 -37.5t27.5 -32.5t37.5 -25.5t51.5 -23t56 -20t65 -20t64 -19.5q12 -4 20 -6q68 12 110 48.5t42 90.5q0 29 -13.5 52.5t-30.5 39t-53.5 31.5t-60 23.5t-74.5 23t-74 22.5q-72 -12 -124 -49.5 t-52 -97.5z" />
<glyph unicode="&#xa8;" horiz-adv-x="827" d="M51 1683q0 49 32.5 82t80.5 33q46 0 78 -33t32 -82t-32 -81.5t-78 -32.5q-48 0 -80.5 32.5t-32.5 81.5zM516 1683q0 49 32.5 82t80.5 33q46 0 78 -33t32 -82t-32 -81.5t-78 -32.5q-48 0 -80.5 32.5t-32.5 81.5z" />
<glyph unicode="&#xa9;" horiz-adv-x="1552" d="M80 717q0 161 54 300t146.5 236.5t221 153t274.5 55.5q194 0 353 -94.5t251.5 -265.5t92.5 -385q0 -160 -54 -300t-147.5 -237t-222 -153t-273.5 -56q-146 0 -274.5 55.5t-221 153.5t-146.5 237t-54 300zM244 717q0 -261 149.5 -425.5t382.5 -164.5q232 0 382.5 164.5 t150.5 425.5q0 263 -150.5 428.5t-382.5 165.5q-233 0 -382.5 -165t-149.5 -429zM459 717q0 160 90 259t229 99q97 0 176.5 -52.5t114.5 -141.5l-127 -35q-50 102 -164 102q-84 0 -134 -61t-50 -170q0 -111 50 -172.5t136 -61.5q59 0 103.5 32t66.5 91l127 -35 q-31 -98 -113 -156.5t-186 -58.5q-139 0 -229 100t-90 261z" />
<glyph unicode="&#xaa;" horiz-adv-x="690" d="M41 494v143h608v-143h-608zM43 768l238 682h127l237 -682h-145l-45 141h-224l-45 -141h-143zM266 1018h156l-41 131q-10 35 -18.5 74.5t-12 60.5t-4.5 21h-2q-1 0 -4.5 -21t-12.5 -60.5t-20 -74.5z" />
<glyph unicode="&#xab;" horiz-adv-x="1454" d="M170 721l434 -477l131 116l-334 361l332 358l-129 119zM721 721l434 -477l131 116l-334 361l332 358l-129 119z" />
<glyph unicode="&#xad;" horiz-adv-x="1200" d="M168 635v184h872v-184h-872z" />
<glyph unicode="&#xae;" horiz-adv-x="1552" d="M80 717q0 161 54 300t146.5 236.5t221 153t274.5 55.5q194 0 353 -94.5t251.5 -265.5t92.5 -385q0 -160 -54 -300t-147.5 -237t-222 -153t-273.5 -56q-146 0 -274.5 55.5t-221 153.5t-146.5 237t-54 300zM244 717q0 -261 149.5 -425.5t382.5 -164.5q232 0 382.5 164.5 t150.5 425.5q0 263 -150.5 428.5t-382.5 165.5q-233 0 -382.5 -165t-149.5 -429zM553 358v717h223q120 0 191 -61.5t71 -167.5q0 -146 -129 -201l162 -287h-139l-139 263h-17h-94v-263h-129zM682 729h104q123 0 123 113q0 54 -31.5 84t-91.5 30h-104v-227z" />
<glyph unicode="&#xaf;" horiz-adv-x="714" d="M27 1399v174h624v-174h-624z" />
<glyph unicode="&#xb0;" horiz-adv-x="610" d="M57 1442q0 104 72.5 177t175.5 73t175.5 -73t72.5 -177q0 -103 -72.5 -176.5t-175.5 -73.5t-175.5 73.5t-72.5 176.5zM193 1442q0 -47 33 -82t79 -35q47 0 81 35t34 82q0 51 -33.5 85t-81.5 34q-46 0 -79 -34.5t-33 -84.5z" />
<glyph unicode="&#xb1;" horiz-adv-x="1333" d="M231 -18v184h873v-184h-873zM231 635v184h338v346h195v-346h340v-184h-340v-279h-193v279h-340z" />
<glyph unicode="&#xb2;" horiz-adv-x="636" d="M37 1542q23 102 99 171t186 69q118 0 195 -73.5t77 -184.5q0 -131 -135 -252q-67 -60 -133 -115q-25 -19 -51 -36t-40 -25l-14 -9l2 -2q7 2 31 5t72 6.5t96 3.5h166v-131h-543v100l277 250q61 57 94 104.5t33 100.5t-36 87t-91 34q-65 0 -100 -36t-52 -100z" />
<glyph unicode="&#xb3;" horiz-adv-x="647" d="M37 1186l131 33q6 -62 49.5 -100t112.5 -38q63 0 100 34.5t37 88.5q0 55 -40 87t-105 32h-70v111h70q58 0 95.5 33t37.5 83q0 43 -34.5 74t-94.5 31q-118 0 -152 -131l-125 35q20 104 96 163.5t185 59.5q120 0 192 -62.5t72 -160.5q0 -77 -51.5 -126.5t-110.5 -52.5v-2 q68 -3 121 -50t53 -130q0 -107 -77.5 -176.5t-198.5 -69.5q-115 0 -197 67.5t-96 166.5z" />
<glyph unicode="&#xb4;" horiz-adv-x="636" d="M51 1628l420 244l84 -154l-432 -213z" />
<glyph unicode="&#xb6;" horiz-adv-x="1366" d="M80 1042q0 184 118.5 288t329.5 104h670v-1434h-223v1221h-162v-1221h-211v653h-74q-211 0 -329.5 103t-118.5 286z" />
<glyph unicode="&#xb7;" horiz-adv-x="464" d="M115 717q0 51 34 85t84 34q49 0 83 -34.5t34 -84.5q0 -51 -34.5 -86t-82.5 -35q-51 0 -84.5 35t-33.5 86z" />
<glyph unicode="&#xb8;" horiz-adv-x="530" d="M53 -506l49 123h125q42 0 66 21.5t24 56.5t-25 57.5t-65 22.5h-157l80 225h129l-41 -106q88 2 148 -53.5t60 -145.5q0 -97 -61.5 -149t-157.5 -52h-174z" />
<glyph unicode="&#xb9;" horiz-adv-x="458" d="M27 1528l254 237h102v-796h-145v436q0 20 1 44.5t3 46.5t4 41t3 31l1 11h-2q-1 0 -9 -10.5t-23 -29t-30 -32.5l-65 -63z" />
<glyph unicode="&#xba;" horiz-adv-x="686" d="M20 1106q0 159 91.5 256.5t230.5 97.5q140 0 232 -98t92 -256q0 -157 -92.5 -255.5t-231.5 -98.5q-138 0 -230 99t-92 255zM41 494v143h606v-143h-606zM160 1106q0 -100 51 -158.5t131 -58.5q83 0 133.5 58.5t50.5 158.5q0 101 -51.5 160t-132.5 59t-131.5 -59.5 t-50.5 -159.5z" />
<glyph unicode="&#xbb;" horiz-adv-x="1454" d="M168 360l334 361l-332 358l129 119l434 -477l-434 -477zM719 360l334 361l-332 358l129 119l436 -477l-436 -477z" />
<glyph unicode="&#xbc;" horiz-adv-x="1355" d="M27 1196l254 238h102v-797h-145v436q0 20 1 44.5t3 46.5t4 41t3 31l1 11h-2q-2 0 -9.5 -10.5t-22.5 -28.5t-30 -32l-65 -64zM123 0l932 1434h149l-932 -1434h-149zM709 172v102l395 523h115v-498h92v-127h-92v-172h-134v172h-376zM856 295l2 -2l6 1q7 0 18 0.5t24.5 1 t30.5 1t34 0.5h114v147q0 21 1 44t2.5 42t2.5 34t2 24l1 10h-2q-1 0 -12 -18t-31 -47.5t-37 -51.5l-90 -110q-13 -18 -30 -36.5t-26.5 -28.5t-9.5 -11z" />
<glyph unicode="&#xbd;" horiz-adv-x="1429" d="M27 1196l254 238h102v-797h-145v436q0 20 1 44.5t3 46.5t4 41t3 31l1 11h-2q-2 0 -9.5 -10.5t-22.5 -28.5t-30 -32l-65 -64zM123 0l932 1434h149l-932 -1434h-149zM829 573q23 102 99 171t186 69q118 0 195 -73.5t77 -184.5q0 -131 -135 -252q-67 -60 -133 -115 q-25 -19 -50.5 -35.5t-39.5 -24.5l-14 -9l2 -2q6 2 30 5t72 6t96 3h166v-131h-542v100l276 250q61 57 94 104.5t33 100.5t-36 87t-91 34q-65 0 -99.5 -35.5t-51.5 -99.5z" />
<glyph unicode="&#xbe;" horiz-adv-x="1484" d="M37 854l131 33q6 -62 49 -99.5t113 -37.5q63 0 100 34t37 88q0 55 -40 87t-105 32h-70v111h70q58 0 95.5 33.5t37.5 83.5q0 42 -34.5 73t-94.5 31q-118 0 -152 -131l-125 35q20 104 96 163.5t185 59.5q120 0 192 -62.5t72 -160.5q0 -77 -51.5 -126t-110.5 -52v-2 q68 -3 121 -50.5t53 -130.5q0 -107 -77.5 -176t-198.5 -69q-115 0 -197 67t-96 166zM254 0l932 1434h149l-932 -1434h-149zM840 172v102l395 523h115v-498h92v-127h-92v-172h-133v172h-377zM987 295l2 -2l7 1q6 0 17 0.5t24.5 1t30.5 1t34 0.5h115v147q0 21 1 44t2 42t2 34 t2 24l1 10h-2q-1 0 -12 -18t-31 -47.5t-37 -51.5l-90 -110q-13 -18 -30 -36.5t-26.5 -28.5t-9.5 -11z" />
<glyph unicode="&#xbf;" horiz-adv-x="1116" d="M80 379q0 66 21.5 125t55 104t86.5 87.5t104.5 73.5t119.5 65v141h223v-223q-211 -107 -297 -186.5t-86 -178.5q0 -91 61 -155t185 -64q122 0 193.5 60t103.5 175l186 -51q-41 -181 -172.5 -281t-322.5 -100q-218 0 -339.5 116t-121.5 292zM467 1112v322h223v-322h-223z " />
<glyph unicode="&#xc0;" horiz-adv-x="1363" d="M29 0l540 1434h224l542 -1434h-235l-117 326h-602l-117 -326h-235zM344 1718l84 154l420 -244l-72 -123zM453 524h458l-170 469q-13 40 -27.5 87.5t-21.5 73.5t-8 26h-4q-1 0 -8.5 -26t-22.5 -74t-28 -87z" />
<glyph unicode="&#xc1;" horiz-adv-x="1363" d="M29 0l540 1434h224l542 -1434h-235l-117 326h-602l-117 -326h-235zM453 524h458l-170 469q-13 40 -27.5 87.5t-21.5 73.5t-8 26h-4q-1 0 -8.5 -26t-22.5 -74t-28 -87zM477 1628l420 244l84 -154l-432 -213z" />
<glyph unicode="&#xc2;" horiz-adv-x="1363" d="M29 0l540 1434h224l542 -1434h-235l-117 326h-602l-117 -326h-235zM342 1624l338 303l336 -303l-109 -111l-227 201l-227 -201zM453 524h458l-170 469q-13 40 -27.5 87.5t-21.5 73.5t-8 26h-4q-1 0 -8.5 -26t-22.5 -74t-28 -87z" />
<glyph unicode="&#xc3;" horiz-adv-x="1363" d="M29 0l540 1434h224l542 -1434h-235l-117 326h-602l-117 -326h-235zM291 1567q0 104 70 173.5t176 69.5q46 0 89 -18t69.5 -40t58.5 -40t59 -18q42 0 67 26t25 66h172q2 -104 -68.5 -174t-177.5 -70q-44 0 -86 18.5t-69 40t-60 40t-61 18.5q-42 0 -67 -26t-25 -66h-172z M453 524h458l-170 469q-13 40 -27.5 87.5t-21.5 73.5t-8 26h-4q-1 0 -8.5 -26t-22.5 -74t-28 -87z" />
<glyph unicode="&#xc4;" horiz-adv-x="1363" d="M29 0l540 1434h224l542 -1434h-235l-117 326h-602l-117 -326h-235zM334 1683q0 49 32.5 82t79.5 33q46 0 78.5 -33t32.5 -82t-32.5 -81.5t-78.5 -32.5q-48 0 -80 32.5t-32 81.5zM453 524h458l-170 469q-13 40 -27.5 87.5t-21.5 73.5t-8 26h-4q-1 0 -8.5 -26t-22.5 -74 t-28 -87zM799 1683q0 49 32.5 82t79.5 33q46 0 78.5 -33t32.5 -82t-32.5 -81.5t-78.5 -32.5q-48 0 -80 32.5t-32 81.5z" />
<glyph unicode="&#xc5;" horiz-adv-x="1363" d="M29 0l538 1430q-60 33 -96.5 92t-36.5 131q0 103 72.5 175.5t175.5 72.5t175.5 -72.5t72.5 -175.5q0 -72 -37 -132t-98 -91l540 -1430h-235l-117 326h-602l-117 -326h-235zM453 524h458l-170 469q-13 40 -27.5 87.5t-21.5 73.5t-8 26h-4q-1 0 -8.5 -26t-22.5 -74t-28 -87 zM569 1653q0 -47 33.5 -82t79.5 -35q47 0 81 35t34 82q0 51 -33.5 85t-81.5 34q-46 0 -79.5 -34.5t-33.5 -84.5z" />
<glyph unicode="&#xc6;" horiz-adv-x="1884" d="M29 0l557 1434h1167v-211h-678v-375h533v-199h-533v-438h690v-211h-907v326h-471l-123 -326h-235zM461 522h397v701h-141q-4 0 -103 -289z" />
<glyph unicode="&#xc7;" horiz-adv-x="1402" d="M80 717q0 223 86.5 393.5t236.5 261t340 90.5q197 0 350.5 -99.5t235.5 -277.5l-221 -59q-55 106 -151.5 162.5t-213.5 56.5q-196 0 -315 -142.5t-119 -385.5t121 -385t315 -142q130 0 233.5 67.5t154.5 188.5l219 -57q-72 -185 -220 -294.5t-341 -121.5l-31 -79 q87 2 147 -53.5t60 -145.5q0 -97 -61.5 -149t-155.5 -52h-175l50 123h123q42 0 66 21.5t24 56.5t-25 57.5t-65 22.5h-156l70 200q-259 30 -420.5 231.5t-161.5 510.5z" />
<glyph unicode="&#xc8;" horiz-adv-x="1198" d="M168 0v1434h899v-211h-676v-375h531v-199h-531v-438h688v-211h-911zM297 1718l84 154l420 -244l-72 -123z" />
<glyph unicode="&#xc9;" horiz-adv-x="1198" d="M168 0v1434h899v-211h-676v-375h531v-199h-531v-438h688v-211h-911zM430 1628l420 244l84 -154l-432 -213z" />
<glyph unicode="&#xca;" horiz-adv-x="1198" d="M168 0v1434h899v-211h-676v-375h531v-199h-531v-438h688v-211h-911zM295 1624l338 303l336 -303l-109 -111l-227 201l-227 -201z" />
<glyph unicode="&#xcb;" horiz-adv-x="1198" d="M168 0v1434h899v-211h-676v-375h531v-199h-531v-438h688v-211h-911zM287 1683q0 49 32.5 82t79.5 33q46 0 78.5 -33t32.5 -82t-32.5 -81.5t-78.5 -32.5q-48 0 -80 32.5t-32 81.5zM752 1683q0 49 32.5 82t79.5 33q46 0 78.5 -33t32.5 -82t-32.5 -81.5t-78.5 -32.5 q-48 0 -80 32.5t-32 81.5z" />
<glyph unicode="&#xcc;" horiz-adv-x="559" d="M-59 1718l84 154l419 -244l-71 -123zM168 0v1434h223v-1434h-223z" />
<glyph unicode="&#xcd;" horiz-adv-x="559" d="M74 1628l420 244l84 -154l-433 -213zM168 0v1434h223v-1434h-223z" />
<glyph unicode="&#xce;" horiz-adv-x="559" d="M-61 1624l337 303l336 -303l-108 -111l-228 201l-227 -201zM168 0v1434h223v-1434h-223z" />
<glyph unicode="&#xcf;" horiz-adv-x="559" d="M-70 1683q0 49 32.5 82t80.5 33q46 0 78.5 -33t32.5 -82t-32.5 -81.5t-78.5 -32.5q-48 0 -80.5 32.5t-32.5 81.5zM168 0v1434h223v-1434h-223zM395 1683q0 49 32.5 82t80.5 33q46 0 78 -33t32 -82t-32 -81.5t-78 -32.5q-48 0 -80.5 32.5t-32.5 81.5z" />
<glyph unicode="&#xd0;" horiz-adv-x="1482" d="M80 627v202h104v605h523q200 0 358 -89t248 -254.5t90 -379.5q0 -161 -51.5 -294.5t-142.5 -224.5t-217 -141.5t-273 -50.5h-535v627h-104zM408 209h319q198 0 323.5 134.5t125.5 367.5q0 238 -129 376t-330 138h-309v-396h282v-202h-282v-418z" />
<glyph unicode="&#xd1;" horiz-adv-x="1443" d="M168 0v1434h203l485 -734q38 -56 90 -134.5t83 -125.5t32 -47h4q1 0 -1.5 56t-5.5 165t-3 209v611h221v-1434h-203l-477 725q-46 67 -99.5 149.5t-83 128.5t-30.5 46h-4q-1 0 1.5 -53.5t5.5 -165.5t3 -222v-608h-221zM332 1567q0 104 70 173.5t176 69.5q46 0 89 -18 t69.5 -40t58.5 -40t59 -18q42 0 67 26t25 66h172q2 -104 -68.5 -174t-177.5 -70q-44 0 -86 18.5t-69 40t-60 40t-61 18.5q-42 0 -67 -26t-25 -66h-172z" />
<glyph unicode="&#xd2;" d="M80 717q0 223 86.5 393.5t236.5 261t340 90.5q143 0 266 -53.5t212 -149.5t139.5 -236t50.5 -306q0 -168 -50.5 -308t-139.5 -236t-212 -149t-266 -53t-265 53.5t-210 150t-138 236.5t-50 306zM309 717q0 -245 119 -387t315 -142q198 0 318.5 142.5t120.5 386.5 q0 247 -120.5 387.5t-318.5 140.5q-196 0 -315 -141.5t-119 -386.5zM416 1718l84 154l420 -244l-72 -123z" />
<glyph unicode="&#xd3;" d="M80 717q0 223 86.5 393.5t236.5 261t340 90.5q143 0 266 -53.5t212 -149.5t139.5 -236t50.5 -306q0 -168 -50.5 -308t-139.5 -236t-212 -149t-266 -53t-265 53.5t-210 150t-138 236.5t-50 306zM309 717q0 -245 119 -387t315 -142q198 0 318.5 142.5t120.5 386.5 q0 247 -120.5 387.5t-318.5 140.5q-196 0 -315 -141.5t-119 -386.5zM549 1628l420 244l84 -154l-432 -213z" />
<glyph unicode="&#xd4;" d="M80 717q0 223 86.5 393.5t236.5 261t340 90.5q143 0 266 -53.5t212 -149.5t139.5 -236t50.5 -306q0 -168 -50.5 -308t-139.5 -236t-212 -149t-266 -53t-265 53.5t-210 150t-138 236.5t-50 306zM309 717q0 -245 119 -387t315 -142q198 0 318.5 142.5t120.5 386.5 q0 247 -120.5 387.5t-318.5 140.5q-196 0 -315 -141.5t-119 -386.5zM414 1624l338 303l335 -303l-108 -111l-227 201l-228 -201z" />
<glyph unicode="&#xd5;" d="M80 717q0 223 86.5 393.5t236.5 261t340 90.5q143 0 266 -53.5t212 -149.5t139.5 -236t50.5 -306q0 -168 -50.5 -308t-139.5 -236t-212 -149t-266 -53t-265 53.5t-210 150t-138 236.5t-50 306zM309 717q0 -245 119 -387t315 -142q198 0 318.5 142.5t120.5 386.5 q0 247 -120.5 387.5t-318.5 140.5q-196 0 -315 -141.5t-119 -386.5zM362 1567q0 104 70 173.5t176 69.5q46 0 89 -18t70 -40t59 -40t59 -18q42 0 67 26t25 66h172q2 -104 -68.5 -174t-177.5 -70q-44 0 -86 18.5t-69 40t-60 40t-61 18.5q-42 0 -67 -26t-25 -66h-173z" />
<glyph unicode="&#xd6;" d="M80 717q0 223 86.5 393.5t236.5 261t340 90.5q143 0 266 -53.5t212 -149.5t139.5 -236t50.5 -306q0 -168 -50.5 -308t-139.5 -236t-212 -149t-266 -53t-265 53.5t-210 150t-138 236.5t-50 306zM309 717q0 -245 119 -387t315 -142q198 0 318.5 142.5t120.5 386.5 q0 247 -120.5 387.5t-318.5 140.5q-196 0 -315 -141.5t-119 -386.5zM406 1683q0 49 32.5 82t79.5 33q46 0 78.5 -33t32.5 -82t-32.5 -81.5t-78.5 -32.5q-48 0 -80 32.5t-32 81.5zM870 1683q0 49 32.5 82t80.5 33q46 0 78.5 -33t32.5 -82t-32.5 -81.5t-78.5 -32.5 q-48 0 -80.5 32.5t-32.5 81.5z" />
<glyph unicode="&#xd7;" horiz-adv-x="1333" d="M264 1014l146 137l258 -277l256 277l145 -135l-264 -287l264 -285l-145 -137l-256 277l-256 -275l-146 137l264 283z" />
<glyph unicode="&#xd8;" d="M80 717q0 223 86.5 393.5t236.5 261t340 90.5q193 0 347 -94l65 92l158 -108l-78 -111q176 -205 176 -524q0 -168 -50.5 -308t-139.5 -236t-212 -149t-266 -53q-188 0 -337 90l-62 -88l-158 111l72 102q-178 203 -178 531zM309 717q0 -202 84 -338l570 809 q-94 57 -220 57q-196 0 -315 -141.5t-119 -386.5zM532 242q94 -54 211 -54q198 0 318.5 142.5t120.5 386.5q0 201 -82 334z" />
<glyph unicode="&#xd9;" horiz-adv-x="1386" d="M139 567v867h221v-869q0 -385 332 -385t332 385v869h223v-867q0 -287 -146 -441.5t-409 -154.5t-408 154.5t-145 441.5zM358 1718l84 154l420 -244l-71 -123z" />
<glyph unicode="&#xda;" horiz-adv-x="1386" d="M139 567v867h221v-869q0 -385 332 -385t332 385v869h223v-867q0 -287 -146 -441.5t-409 -154.5t-408 154.5t-145 441.5zM492 1628l419 244l84 -154l-432 -213z" />
<glyph unicode="&#xdb;" horiz-adv-x="1386" d="M139 567v867h221v-869q0 -385 332 -385t332 385v869h223v-867q0 -287 -146 -441.5t-409 -154.5t-408 154.5t-145 441.5zM356 1624l338 303l336 -303l-108 -111l-228 201l-227 -201z" />
<glyph unicode="&#xdc;" horiz-adv-x="1386" d="M139 567v867h221v-869q0 -385 332 -385t332 385v869h223v-867q0 -287 -146 -441.5t-409 -154.5t-408 154.5t-145 441.5zM348 1683q0 49 32.5 82t80.5 33q46 0 78 -33t32 -82t-32 -81.5t-78 -32.5q-48 0 -80.5 32.5t-32.5 81.5zM813 1683q0 49 32.5 82t80.5 33 q46 0 78 -33t32 -82t-32 -81.5t-78 -32.5q-48 0 -80.5 32.5t-32.5 81.5z" />
<glyph unicode="&#xdd;" horiz-adv-x="1292" d="M29 1434h243l295 -443q76 -133 78 -133h4q2 0 78 133l293 443h244l-508 -775v-659h-219v659zM442 1628l420 244l84 -154l-432 -213z" />
<glyph unicode="&#xde;" horiz-adv-x="1183" d="M168 0v1434h223v-248h225q223 0 360.5 -129.5t137.5 -337.5t-137 -336.5t-361 -128.5h-225v-254h-223zM391 463h232q121 0 191.5 70t70.5 186q0 118 -70.5 188t-191.5 70h-232v-514z" />
<glyph unicode="&#xdf;" horiz-adv-x="1523" d="M168 0v1434h1163l-223 -416q-19 -37 -44.5 -83.5t-40.5 -73t-15 -27.5l2 -3h12q182 0 303 -119.5t121 -297.5q0 -192 -127.5 -317.5t-333.5 -125.5q-154 0 -278 76t-185 203l209 57q37 -68 101.5 -106.5t142.5 -38.5q116 0 183 70t67 180q0 107 -70 178.5t-192 71.5h-166 v169l129 246q14 30 34.5 66.5t33 58.5t12.5 23l-5 2l-9 -1q-8 0 -22 -0.5t-32 -1t-41 -1t-45 -0.5h-461v-1223h-223z" />
<glyph unicode="&#xe0;" horiz-adv-x="1363" d="M29 0l540 1434h224l542 -1434h-235l-117 326h-602l-117 -326h-235zM344 1718l84 154l420 -244l-72 -123zM453 524h458l-170 469q-13 40 -27.5 87.5t-21.5 73.5t-8 26h-4q-1 0 -8.5 -26t-22.5 -74t-28 -87z" />
<glyph unicode="&#xe1;" horiz-adv-x="1363" d="M29 0l540 1434h224l542 -1434h-235l-117 326h-602l-117 -326h-235zM453 524h458l-170 469q-13 40 -27.5 87.5t-21.5 73.5t-8 26h-4q-1 0 -8.5 -26t-22.5 -74t-28 -87zM477 1628l420 244l84 -154l-432 -213z" />
<glyph unicode="&#xe2;" horiz-adv-x="1363" d="M29 0l540 1434h224l542 -1434h-235l-117 326h-602l-117 -326h-235zM342 1624l338 303l336 -303l-109 -111l-227 201l-227 -201zM453 524h458l-170 469q-13 40 -27.5 87.5t-21.5 73.5t-8 26h-4q-1 0 -8.5 -26t-22.5 -74t-28 -87z" />
<glyph unicode="&#xe3;" horiz-adv-x="1363" d="M29 0l540 1434h224l542 -1434h-235l-117 326h-602l-117 -326h-235zM291 1567q0 104 70 173.5t176 69.5q46 0 89 -18t69.5 -40t58.5 -40t59 -18q42 0 67 26t25 66h172q2 -104 -68.5 -174t-177.5 -70q-44 0 -86 18.5t-69 40t-60 40t-61 18.5q-42 0 -67 -26t-25 -66h-172z M453 524h458l-170 469q-13 40 -27.5 87.5t-21.5 73.5t-8 26h-4q-1 0 -8.5 -26t-22.5 -74t-28 -87z" />
<glyph unicode="&#xe4;" horiz-adv-x="1363" d="M29 0l540 1434h224l542 -1434h-235l-117 326h-602l-117 -326h-235zM334 1683q0 49 32.5 82t79.5 33q46 0 78.5 -33t32.5 -82t-32.5 -81.5t-78.5 -32.5q-48 0 -80 32.5t-32 81.5zM453 524h458l-170 469q-13 40 -27.5 87.5t-21.5 73.5t-8 26h-4q-1 0 -8.5 -26t-22.5 -74 t-28 -87zM799 1683q0 49 32.5 82t79.5 33q46 0 78.5 -33t32.5 -82t-32.5 -81.5t-78.5 -32.5q-48 0 -80 32.5t-32 81.5z" />
<glyph unicode="&#xe5;" horiz-adv-x="1363" d="M29 0l538 1430q-60 33 -96.5 92t-36.5 131q0 103 72.5 175.5t175.5 72.5t175.5 -72.5t72.5 -175.5q0 -72 -37 -132t-98 -91l540 -1430h-235l-117 326h-602l-117 -326h-235zM453 524h458l-170 469q-13 40 -27.5 87.5t-21.5 73.5t-8 26h-4q-1 0 -8.5 -26t-22.5 -74t-28 -87 zM569 1653q0 -47 33.5 -82t79.5 -35q47 0 81 35t34 82q0 51 -33.5 85t-81.5 34q-46 0 -79.5 -34.5t-33.5 -84.5z" />
<glyph unicode="&#xe6;" horiz-adv-x="1884" d="M29 0l557 1434h1167v-211h-678v-375h533v-199h-533v-438h690v-211h-907v326h-471l-123 -326h-235zM461 522h397v701h-141q-4 0 -103 -289z" />
<glyph unicode="&#xe7;" horiz-adv-x="1402" d="M80 717q0 223 86.5 393.5t236.5 261t340 90.5q197 0 350.5 -99.5t235.5 -277.5l-221 -59q-55 106 -151.5 162.5t-213.5 56.5q-196 0 -315 -142.5t-119 -385.5t121 -385t315 -142q130 0 233.5 67.5t154.5 188.5l219 -57q-72 -185 -220 -294.5t-341 -121.5l-31 -79 q87 2 147 -53.5t60 -145.5q0 -97 -61.5 -149t-155.5 -52h-175l50 123h123q42 0 66 21.5t24 56.5t-25 57.5t-65 22.5h-156l70 200q-259 30 -420.5 231.5t-161.5 510.5z" />
<glyph unicode="&#xe8;" horiz-adv-x="1198" d="M168 0v1434h899v-211h-676v-375h531v-199h-531v-438h688v-211h-911zM295 1718l84 154l420 -244l-72 -123z" />
<glyph unicode="&#xe9;" horiz-adv-x="1198" d="M168 0v1434h899v-211h-676v-375h531v-199h-531v-438h688v-211h-911zM428 1628l420 244l84 -154l-432 -213z" />
<glyph unicode="&#xea;" horiz-adv-x="1198" d="M168 0v1434h899v-211h-676v-375h531v-199h-531v-438h688v-211h-911zM293 1624l338 303l336 -303l-109 -111l-227 201l-228 -201z" />
<glyph unicode="&#xeb;" horiz-adv-x="1198" d="M168 0v1434h899v-211h-676v-375h531v-199h-531v-438h688v-211h-911zM285 1683q0 49 32.5 82t79.5 33q46 0 78.5 -33t32.5 -82t-32.5 -81.5t-78.5 -32.5q-48 0 -80 32.5t-32 81.5zM750 1683q0 49 32.5 82t79.5 33q46 0 78.5 -33t32.5 -82t-32.5 -81.5t-78.5 -32.5 q-48 0 -80 32.5t-32 81.5z" />
<glyph unicode="&#xec;" horiz-adv-x="559" d="M-59 1718l84 154l419 -244l-71 -123zM168 0v1434h223v-1434h-223z" />
<glyph unicode="&#xed;" horiz-adv-x="559" d="M74 1628l420 244l84 -154l-433 -213zM168 0v1434h223v-1434h-223z" />
<glyph unicode="&#xee;" horiz-adv-x="559" d="M-61 1624l337 303l336 -303l-108 -111l-228 201l-227 -201zM168 0v1434h223v-1434h-223z" />
<glyph unicode="&#xef;" horiz-adv-x="559" d="M-70 1683q0 49 32.5 82t80.5 33q46 0 78.5 -33t32.5 -82t-32.5 -81.5t-78.5 -32.5q-48 0 -80.5 32.5t-32.5 81.5zM168 0v1434h223v-1434h-223zM395 1683q0 49 32.5 82t80.5 33q46 0 78 -33t32 -82t-32 -81.5t-78 -32.5q-48 0 -80.5 32.5t-32.5 81.5z" />
<glyph unicode="&#xf0;" horiz-adv-x="1482" d="M80 627v202h104v605h523q200 0 358 -89t248 -254.5t90 -379.5q0 -161 -51.5 -294.5t-142.5 -224.5t-217 -141.5t-273 -50.5h-535v627h-104zM408 209h319q198 0 323.5 134.5t125.5 367.5q0 238 -129 376t-330 138h-309v-396h282v-202h-282v-418z" />
<glyph unicode="&#xf1;" horiz-adv-x="1443" d="M168 0v1434h203l485 -734q38 -56 90 -134.5t83 -125.5t32 -47h4q1 0 -1.5 56t-5.5 165t-3 209v611h221v-1434h-203l-477 725q-46 67 -99.5 149.5t-83 128.5t-30.5 46h-4q-1 0 1.5 -53.5t5.5 -165.5t3 -222v-608h-221zM332 1567q0 104 70 173.5t176 69.5q46 0 89 -18 t69.5 -40t58.5 -40t59 -18q42 0 67 26t25 66h172q2 -104 -68.5 -174t-177.5 -70q-44 0 -86 18.5t-69 40t-60 40t-61 18.5q-42 0 -67 -26t-25 -66h-172z" />
<glyph unicode="&#xf2;" d="M80 717q0 223 86.5 393.5t236.5 261t340 90.5q143 0 266 -53.5t212 -149.5t139.5 -236t50.5 -306q0 -168 -50.5 -308t-139.5 -236t-212 -149t-266 -53t-265 53.5t-210 150t-138 236.5t-50 306zM309 717q0 -245 119 -387t315 -142q198 0 318.5 142.5t120.5 386.5 q0 247 -120.5 387.5t-318.5 140.5q-196 0 -315 -141.5t-119 -386.5zM412 1718l84 154l419 -244l-71 -123z" />
<glyph unicode="&#xf3;" d="M80 717q0 223 86.5 393.5t236.5 261t340 90.5q143 0 266 -53.5t212 -149.5t139.5 -236t50.5 -306q0 -168 -50.5 -308t-139.5 -236t-212 -149t-266 -53t-265 53.5t-210 150t-138 236.5t-50 306zM309 717q0 -245 119 -387t315 -142q198 0 318.5 142.5t120.5 386.5 q0 247 -120.5 387.5t-318.5 140.5q-196 0 -315 -141.5t-119 -386.5zM545 1628l420 244l84 -154l-433 -213z" />
<glyph unicode="&#xf4;" d="M80 717q0 223 86.5 393.5t236.5 261t340 90.5q143 0 266 -53.5t212 -149.5t139.5 -236t50.5 -306q0 -168 -50.5 -308t-139.5 -236t-212 -149t-266 -53t-265 53.5t-210 150t-138 236.5t-50 306zM309 717q0 -245 119 -387t315 -142q198 0 318.5 142.5t120.5 386.5 q0 247 -120.5 387.5t-318.5 140.5q-196 0 -315 -141.5t-119 -386.5zM410 1624l338 303l335 -303l-108 -111l-227 201l-228 -201z" />
<glyph unicode="&#xf5;" d="M80 717q0 223 86.5 393.5t236.5 261t340 90.5q143 0 266 -53.5t212 -149.5t139.5 -236t50.5 -306q0 -168 -50.5 -308t-139.5 -236t-212 -149t-266 -53t-265 53.5t-210 150t-138 236.5t-50 306zM309 717q0 -245 119 -387t315 -142q198 0 318.5 142.5t120.5 386.5 q0 247 -120.5 387.5t-318.5 140.5q-196 0 -315 -141.5t-119 -386.5zM358 1567q0 104 70 173.5t176 69.5q46 0 89 -18t70 -40t59 -40t59 -18q42 0 67 26t25 66h172q2 -104 -68.5 -174t-177.5 -70q-44 0 -86 18.5t-69 40t-60 40t-61 18.5q-42 0 -67.5 -26t-25.5 -66h-172z" />
<glyph unicode="&#xf6;" d="M80 717q0 223 86.5 393.5t236.5 261t340 90.5q143 0 266 -53.5t212 -149.5t139.5 -236t50.5 -306q0 -168 -50.5 -308t-139.5 -236t-212 -149t-266 -53t-265 53.5t-210 150t-138 236.5t-50 306zM309 717q0 -245 119 -387t315 -142q198 0 318.5 142.5t120.5 386.5 q0 247 -120.5 387.5t-318.5 140.5q-196 0 -315 -141.5t-119 -386.5zM401 1683q0 49 32.5 82t80.5 33q46 0 78.5 -33t32.5 -82t-32.5 -81.5t-78.5 -32.5q-48 0 -80.5 32.5t-32.5 81.5zM866 1683q0 49 32.5 82t80.5 33q46 0 78.5 -33t32.5 -82t-32.5 -81.5t-78.5 -32.5 q-48 0 -80.5 32.5t-32.5 81.5z" />
<glyph unicode="&#xf7;" horiz-adv-x="1333" d="M227 633v184h873v-184h-873zM537 272q0 51 34 85t84 34q49 0 83 -34.5t34 -84.5t-34.5 -85t-82.5 -35q-51 0 -84.5 34.5t-33.5 85.5zM537 1186q0 51 34 85t84 34q49 0 83 -34.5t34 -84.5q0 -51 -34.5 -86t-82.5 -35q-51 0 -84.5 35t-33.5 86z" />
<glyph unicode="&#xf8;" d="M80 717q0 223 86.5 393.5t236.5 261t340 90.5q193 0 347 -94l65 92l158 -108l-78 -111q176 -205 176 -524q0 -168 -50.5 -308t-139.5 -236t-212 -149t-266 -53q-188 0 -337 90l-62 -88l-158 111l72 102q-178 203 -178 531zM309 717q0 -202 84 -338l570 809 q-94 57 -220 57q-196 0 -315 -141.5t-119 -386.5zM532 242q94 -54 211 -54q198 0 318.5 142.5t120.5 386.5q0 201 -82 334z" />
<glyph unicode="&#xf9;" horiz-adv-x="1386" d="M139 567v867h221v-869q0 -385 332 -385t332 385v869h223v-867q0 -287 -146 -441.5t-409 -154.5t-408 154.5t-145 441.5zM358 1718l84 154l420 -244l-71 -123z" />
<glyph unicode="&#xfa;" horiz-adv-x="1386" d="M139 567v867h221v-869q0 -385 332 -385t332 385v869h223v-867q0 -287 -146 -441.5t-409 -154.5t-408 154.5t-145 441.5zM492 1628l419 244l84 -154l-432 -213z" />
<glyph unicode="&#xfb;" horiz-adv-x="1386" d="M139 567v867h221v-869q0 -385 332 -385t332 385v869h223v-867q0 -287 -146 -441.5t-409 -154.5t-408 154.5t-145 441.5zM356 1624l338 303l336 -303l-108 -111l-228 201l-227 -201z" />
<glyph unicode="&#xfc;" horiz-adv-x="1386" d="M139 567v867h221v-869q0 -385 332 -385t332 385v869h223v-867q0 -287 -146 -441.5t-409 -154.5t-408 154.5t-145 441.5zM348 1683q0 49 32.5 82t80.5 33q46 0 78 -33t32 -82t-32 -81.5t-78 -32.5q-48 0 -80.5 32.5t-32.5 81.5zM813 1683q0 49 32.5 82t80.5 33 q46 0 78 -33t32 -82t-32 -81.5t-78 -32.5q-48 0 -80.5 32.5t-32.5 81.5z" />
<glyph unicode="&#xfd;" horiz-adv-x="1292" d="M29 1434h243l295 -443q76 -133 78 -133h4q2 0 78 133l293 443h244l-508 -775v-659h-219v659zM442 1628l420 244l84 -154l-432 -213z" />
<glyph unicode="&#xfe;" horiz-adv-x="1183" d="M168 0v1434h223v-248h225q223 0 360.5 -129.5t137.5 -337.5t-137 -336.5t-361 -128.5h-225v-254h-223zM391 463h232q121 0 191.5 70t70.5 186q0 118 -70.5 188t-191.5 70h-232v-514z" />
<glyph unicode="&#xff;" horiz-adv-x="1292" d="M29 1434h243l295 -443q76 -133 78 -133h4q2 0 78 133l293 443h244l-508 -775v-659h-219v659zM299 1683q0 49 32.5 82t80.5 33q46 0 78 -33t32 -82t-32 -81.5t-78 -32.5q-48 0 -80.5 32.5t-32.5 81.5zM764 1683q0 49 32.5 82t80.5 33q46 0 78 -33t32 -82t-32 -81.5 t-78 -32.5q-48 0 -80.5 32.5t-32.5 81.5z" />
<glyph unicode="&#x152;" horiz-adv-x="1906" d="M80 717q0 166 49 303t135.5 229t206.5 142.5t262 50.5q82 0 148 -10v2h895v-211h-678v-375h532v-199h-532v-438h690v-211h-907v2q-56 -10 -148 -10q-289 0 -471 197.5t-182 527.5zM309 717q0 -241 116.5 -374.5t311.5 -133.5q85 0 144 24v967q-61 25 -144 25 q-195 0 -311.5 -133.5t-116.5 -374.5z" />
<glyph unicode="&#x153;" horiz-adv-x="1906" d="M80 717q0 166 49 303t135.5 229t206.5 142.5t262 50.5q82 0 148 -10v2h895v-211h-678v-375h532v-199h-532v-438h690v-211h-907v2q-56 -10 -148 -10q-289 0 -471 197.5t-182 527.5zM309 717q0 -241 116.5 -374.5t311.5 -133.5q85 0 144 24v967q-61 25 -144 25 q-195 0 -311.5 -133.5t-116.5 -374.5z" />
<glyph unicode="&#x178;" horiz-adv-x="1292" d="M29 1434h243l295 -443q76 -133 78 -133h4q2 0 78 133l293 443h244l-508 -775v-659h-219v659zM299 1683q0 49 32.5 82t80.5 33q46 0 78 -33t32 -82t-32 -81.5t-78 -32.5q-48 0 -80.5 32.5t-32.5 81.5zM764 1683q0 49 32.5 82t80.5 33q46 0 78 -33t32 -82t-32 -81.5 t-78 -32.5q-48 0 -80.5 32.5t-32.5 81.5z" />
<glyph unicode="&#x2c6;" horiz-adv-x="774" d="M33 1624l338 303l336 -303l-109 -111l-227 201l-228 -201z" />
<glyph unicode="&#x2dc;" horiz-adv-x="923" d="M51 1567q0 104 70 173.5t176 69.5q46 0 88.5 -18t69 -40t59 -40t59.5 -18q41 0 67 26t26 66h172q0 -104 -70 -174t-176 -70q-44 0 -86 18.5t-69.5 40t-60.5 40t-61 18.5q-42 0 -67 -26t-25 -66h-172z" />
<glyph unicode="&#x2000;" horiz-adv-x="963" />
<glyph unicode="&#x2001;" horiz-adv-x="1927" />
<glyph unicode="&#x2002;" horiz-adv-x="963" />
<glyph unicode="&#x2003;" horiz-adv-x="1927" />
<glyph unicode="&#x2004;" horiz-adv-x="642" />
<glyph unicode="&#x2005;" horiz-adv-x="481" />
<glyph unicode="&#x2006;" horiz-adv-x="321" />
<glyph unicode="&#x2007;" horiz-adv-x="321" />
<glyph unicode="&#x2008;" horiz-adv-x="240" />
<glyph unicode="&#x2009;" horiz-adv-x="385" />
<glyph unicode="&#x200a;" horiz-adv-x="107" />
<glyph unicode="&#x2010;" horiz-adv-x="1210" d="M168 635v184h872v-184h-872z" />
<glyph unicode="&#x2011;" horiz-adv-x="1210" d="M168 635v184h872v-184h-872z" />
<glyph unicode="&#x2012;" horiz-adv-x="1210" d="M168 635v184h872v-184h-872z" />
<glyph unicode="&#x2013;" horiz-adv-x="1126" d="M168 623v208h790v-208h-790z" />
<glyph unicode="&#x2014;" horiz-adv-x="1935" d="M168 623v208h1599v-208h-1599z" />
<glyph unicode="&#x2018;" horiz-adv-x="602" d="M168 1114q0 90 52 184.5t126 161.5h86q-46 -38 -84.5 -112t-38.5 -131l-24 -11l24 -2q38 -2 67.5 -32t29.5 -78q0 -51 -34.5 -85t-84.5 -34q-51 0 -85 39t-34 100z" />
<glyph unicode="&#x2019;" horiz-adv-x="602" d="M168 975q46 39 85.5 112.5t39.5 131.5l22 8l-22 2q-38 3 -67 33.5t-29 78.5q0 51 34 85t84 34t83.5 -39t33.5 -100q0 -90 -51.5 -185.5t-124.5 -160.5h-88z" />
<glyph unicode="&#x201a;" horiz-adv-x="602" d="M168 -270q47 39 86 112t39 131l22 9l-22 2q-38 3 -67 33.5t-29 78.5q0 51 34 85t84 34t83.5 -39t33.5 -100q0 -90 -51.5 -185.5t-124.5 -160.5h-88z" />
<glyph unicode="&#x201c;" horiz-adv-x="980" d="M168 1114q0 90 52 184.5t126 161.5h86q-46 -38 -84.5 -112t-38.5 -131l-24 -11l24 -2q38 -2 67.5 -32t29.5 -78q0 -51 -34.5 -85t-84.5 -34q-51 0 -85 39t-34 100zM547 1114q0 90 52 184.5t126 161.5h88q-47 -38 -86 -112t-39 -131l-22 -11l22 -2q38 -3 67 -32.5 t29 -77.5q0 -51 -34 -85t-84 -34t-84.5 39t-34.5 100z" />
<glyph unicode="&#x201d;" horiz-adv-x="980" d="M168 975q46 39 85.5 112.5t39.5 131.5l22 8l-22 2q-38 3 -67 33.5t-29 78.5q0 51 34 85t84 34t83.5 -39t33.5 -100q0 -90 -51.5 -185.5t-124.5 -160.5h-88zM547 975q47 38 86 112t39 132l24 8l-24 2q-38 3 -67.5 33.5t-29.5 78.5q0 51 34.5 85t84.5 34q51 0 85 -39 t34 -100q0 -90 -52.5 -185.5t-125.5 -160.5h-88z" />
<glyph unicode="&#x201e;" horiz-adv-x="970" d="M168 -270q47 39 86 112t39 131l22 9l-22 2q-38 3 -67 33.5t-29 78.5q0 51 34 85t84 34t83.5 -39t33.5 -100q0 -90 -51.5 -185.5t-124.5 -160.5h-88zM539 -270q47 39 86 112t39 131l22 9l-24 2q-37 3 -66 33.5t-29 78.5q0 51 34.5 85t84.5 34t83.5 -39t33.5 -100 q0 -90 -51.5 -185.5t-124.5 -160.5h-88z" />
<glyph unicode="&#x2022;" horiz-adv-x="751" d="M168 727q0 91 60.5 154t148.5 63q87 0 147 -63t60 -154q0 -92 -59.5 -155.5t-147.5 -63.5t-148.5 63.5t-60.5 155.5z" />
<glyph unicode="&#x2026;" horiz-adv-x="1396" d="M115 72q0 41 28.5 69.5t69.5 28.5q40 0 68 -29t28 -69q0 -41 -28 -71t-68 -30q-41 0 -68.5 29.5t-29.5 71.5zM596 72q0 41 28.5 69.5t69.5 28.5q39 0 66.5 -29t27.5 -69q0 -42 -27.5 -71.5t-66.5 -29.5q-41 0 -69.5 29.5t-28.5 71.5zM1090 72q0 41 28 69.5t68 28.5 t68 -29t28 -69q0 -41 -28 -71t-68 -30q-41 0 -68.5 29.5t-27.5 71.5z" />
<glyph unicode="&#x202f;" horiz-adv-x="385" />
<glyph unicode="&#x2039;" horiz-adv-x="903" d="M168 721l436 -477l129 116l-332 361l332 358l-129 119z" />
<glyph unicode="&#x203a;" horiz-adv-x="903" d="M168 360l334 361l-332 358l129 119l434 -477l-434 -477z" />
<glyph unicode="&#x205f;" horiz-adv-x="481" />
<glyph unicode="&#x20ac;" horiz-adv-x="1492" d="M80 524v152h96v41v39h-96v149h115q51 257 225 406t418 149q197 0 350 -99.5t233 -277.5l-221 -55q-55 106 -149 160.5t-213 54.5q-152 0 -265 -89.5t-155 -248.5h450v-149h-475v-39q0 -27 2 -41h471v-152h-446q44 -155 157.5 -243t262.5 -88q131 0 232 65t153 188 l217 -55q-75 -197 -234.5 -307.5t-369.5 -110.5q-243 0 -417 149t-226 402h-115z" />
<glyph unicode="&#x2122;" horiz-adv-x="1505" d="M35 1298v138h553v-138h-207v-530h-139v530h-207zM698 768v668h129l138 -244q18 -32 31.5 -62.5t18.5 -44.5l5 -14h2l5 14q5 14 19 44.5t33 62.5l138 244h129v-668h-136v240q0 49 4 103t7 83t2 29h-2q-1 0 -10 -17t-26.5 -48.5t-33.5 -57.5l-98 -174h-64l-98 174 q-17 28 -34 59.5t-25 47.5t-9 16h-2q-1 0 2 -29t7 -83t4 -103v-240h-136z" />
<glyph unicode="&#x25fc;" horiz-adv-x="1433" d="M0 0v1434h1434v-1434h-1434z" />
</font>
</defs>
</svg>
