<?xml version="1.0" standalone="no"?>
<!DOCTYPE svg PUBLIC "-//W3C//DTD SVG 1.1//EN" "http://www.w3.org/Graphics/SVG/1.1/DTD/svg11.dtd" >
<svg xmlns="http://www.w3.org/2000/svg">
<metadata></metadata>
<defs>
<font id="novecentolight" horiz-adv-x="1486" >
<font-face units-per-em="2048" ascent="1741" descent="-307" />
<missing-glyph horiz-adv-x="466" />
<glyph horiz-adv-x="0" />
<glyph horiz-adv-x="682" />
<glyph unicode=" "  horiz-adv-x="466" />
<glyph unicode="&#x09;" horiz-adv-x="466" />
<glyph unicode="&#xa0;" horiz-adv-x="466" />
<glyph unicode="!" horiz-adv-x="458" d="M190 0v322h78v-322h-78zM190 481v953h78v-953h-78z" />
<glyph unicode="&#x22;" horiz-adv-x="665" d="M190 989v445h82v-445h-82zM395 989v445h80v-445h-80z" />
<glyph unicode="#" horiz-adv-x="1568" d="M63 428l31 64h254l221 485h-252l31 63h250l180 394h72l-178 -394h493l181 394h73l-180 -394h272l-28 -63h-273l-221 -485h268l-30 -64h-266l-197 -428h-74l197 428h-496l-194 -428h-74l196 428h-256zM420 492h495l222 485h-496z" />
<glyph unicode="$" horiz-adv-x="1095" d="M82 371l74 20q12 -154 116 -250t281 -96q170 0 274.5 89t104.5 228q0 34 -7.5 64.5t-19 55t-31.5 47.5t-39 40.5t-48.5 36t-52.5 30.5t-59 28t-59.5 25t-62 24t-59.5 24q-150 59 -212 96q-173 105 -173 271q0 151 111 248t286 108v158h74v-158q163 -9 273 -104.5 t136 -251.5l-74 -21q-23 142 -122.5 224t-249.5 82q-157 0 -256 -77t-99 -208q0 -37 13 -71t31.5 -59.5t53 -51t61.5 -41.5t74.5 -36t75 -30.5t78.5 -28.5q158 -64 211 -92q176 -95 214 -238q12 -45 12 -94q0 -164 -119 -273t-313 -118v-155h-74v157q-185 12 -297 121.5 t-127 276.5z" />
<glyph unicode="%" horiz-adv-x="1685" d="M31 1032q0 185 90.5 301.5t243.5 116.5t242 -116.5t89 -301.5q0 -186 -89 -303t-242 -117t-243.5 117t-90.5 303zM102 1032q0 -156 71.5 -254t191.5 -98t190 98t70 254t-70 253t-190 97t-191.5 -97t-71.5 -253zM354 0l908 1434h69l-905 -1434h-72zM987 401 q0 186 90.5 303t243.5 117t242.5 -117t89.5 -303t-89.5 -301.5t-242.5 -115.5t-243.5 115.5t-90.5 301.5zM1059 401q0 -155 71 -252.5t191 -97.5t190 97.5t70 252.5q0 156 -70 254.5t-190 98.5t-191 -98.5t-71 -254.5z" />
<glyph unicode="&#x26;" horiz-adv-x="1355" d="M94 381q0 82 27 149.5t72 111.5t100 70t115 33v3q-48 8 -95 31.5t-88.5 62.5t-67.5 100.5t-26 134.5t23 138.5t70.5 122.5t131.5 90.5t195 33.5q172 0 292 -99t154 -286l-71 -20q-71 334 -377 334q-76 0 -135.5 -19.5t-97 -50.5t-62 -73.5t-34 -84.5t-9.5 -86 q0 -127 94 -212t266 -85h727v-71h-254v-215q0 -257 -114.5 -390t-368.5 -133q-209 0 -338 113.5t-129 296.5zM172 381q0 -150 109.5 -244t281.5 -94q220 0 312 112t92 337v217h-396q-182 0 -290.5 -84.5t-108.5 -243.5z" />
<glyph unicode="'" horiz-adv-x="462" d="M190 989v445h82v-445h-82z" />
<glyph unicode="(" horiz-adv-x="673" d="M100 721q0 429 112 681t351 343l33 -70q-214 -78 -316 -311t-102 -643t102 -643t316 -311l-33 -68q-239 90 -351 342t-112 680z" />
<glyph unicode=")" horiz-adv-x="679" d="M84 -233l33 -68q239 90 351 342t112 680q0 429 -112 681t-351 343l-33 -70q214 -78 316 -311t102 -643t-102 -643t-316 -311z" />
<glyph unicode="*" horiz-adv-x="1003" d="M190 1171l19 60l260 -84v287h66l-5 -287l263 84l20 -60l-266 -77l166 -246l-49 -35l-162 248l-162 -250l-49 37l164 246z" />
<glyph unicode="+" horiz-adv-x="1333" d="M231 692v72h398v391h76v-391h399v-72h-399v-399h-76v399h-398z" />
<glyph unicode="," horiz-adv-x="382" d="M94 -272q40 45 66 107t26 128l15 8h-17q-28 -2 -49.5 18t-21.5 54q0 31 21.5 50.5t51.5 19.5q32 0 52 -25.5t20 -64.5q0 -83 -37 -163.5t-82 -131.5h-45z" />
<glyph unicode="-" horiz-adv-x="1253" d="M190 692v72h873v-72h-873z" />
<glyph unicode="." horiz-adv-x="382" d="M123 43q0 30 19.5 50t47.5 20q30 0 50 -20t20 -50q0 -31 -20.5 -51.5t-49.5 -20.5t-48 20.5t-19 51.5z" />
<glyph unicode="/" horiz-adv-x="841" d="M57 0l656 1434h71l-653 -1434h-74z" />
<glyph unicode="0" horiz-adv-x="1316" d="M94 717q0 210 63 376.5t192.5 267.5t307.5 101q134 0 242.5 -58t178.5 -159.5t107.5 -236.5t37.5 -291t-37.5 -291t-107.5 -237t-178.5 -160t-242.5 -58q-178 0 -307.5 101t-192.5 268t-63 377zM172 717q0 -141 31 -262t90 -212.5t152.5 -143.5t211.5 -52t212 52 t153 143.5t90 212t31 262.5t-31 262.5t-90 211.5t-153 143t-212 52q-156 0 -267.5 -90.5t-164.5 -239.5t-53 -339z" />
<glyph unicode="1" horiz-adv-x="706" d="M94 1073l367 361h55v-1434h-78v1094q0 43 2 101t3.5 92t0.5 34h-4q-1 0 -18 -19t-41.5 -45.5t-38.5 -39.5l-197 -193z" />
<glyph unicode="2" horiz-adv-x="1058" d="M86 1106q49 176 169.5 266t297.5 90q190 0 311 -116t121 -304q0 -41 -6.5 -81t-16 -73.5t-27.5 -69t-33 -61.5t-41.5 -58.5t-43 -52t-48 -50t-47 -44.5t-49 -43.5t-44.5 -39.5l-430 -397l2 -2h5q5 1 13.5 1.5t20.5 1t29 1t35.5 1t43 1t49.5 0.5h584v-76h-889v61 q104 99 314 297l315 297q82 75 134 173.5t52 211.5q0 157 -98 253t-256 96q-157 0 -256 -80t-135 -222z" />
<glyph unicode="3" horiz-adv-x="1120" d="M94 367l72 20q19 -152 131.5 -247t275.5 -95q180 0 277.5 100t97.5 254q0 151 -105.5 231.5t-283.5 80.5h-115v71h115q172 0 271.5 79.5t99.5 232.5q0 54 -19.5 103.5t-59.5 94t-111.5 71t-166.5 26.5q-156 0 -250.5 -79.5t-127.5 -224.5l-72 19q34 167 153.5 262.5 t296.5 95.5q112 0 198.5 -31.5t137 -84.5t76 -117t25.5 -135q0 -146 -94 -240t-218 -104v-2q62 -4 119 -28t104.5 -66.5t76 -109t28.5 -147.5q0 -193 -127.5 -309.5t-325.5 -116.5q-189 0 -321 109.5t-158 286.5z" />
<glyph unicode="4" horiz-adv-x="1157" d="M94 412v53l740 969h53v-949h198v-73h-198v-412h-76v412h-717zM188 485l2 -2q4 0 46.5 0.5t101 1t100.5 0.5h373v537q0 33 0.5 66t1 60t1 52t1 43.5t1 32.5t0.5 22l1 7h-2q-1 0 -18.5 -26t-53 -76t-71.5 -95l-348 -457q-44 -56 -79 -98t-46 -54.5t-11 -13.5z" />
<glyph unicode="5" horiz-adv-x="1085" d="M84 379l74 18q27 -162 130.5 -257t268.5 -95t271 114.5t106 295.5q0 180 -106 294.5t-271 114.5q-76 0 -138 -19t-103 -52t-67.5 -69t-43.5 -79l-68 21l123 768h678v-76h-619l-53 -318q-11 -69 -24 -135.5t-20 -100t-7 -34.5l2 -2q35 61 127 113.5t213 52.5 q198 0 327.5 -134t129.5 -345q0 -212 -129 -348t-328 -136q-193 0 -316.5 110t-156.5 298z" />
<glyph unicode="6" horiz-adv-x="1118" d="M94 463q0 136 40 243.5t134 237.5l359 490h90l-471 -641l2 -5q119 156 330 156q208 0 340.5 -136.5t132.5 -344.5q0 -216 -135 -354t-345 -138q-211 0 -344 139t-133 353zM172 463q0 -190 110 -304t291 -114q178 0 288.5 115t113.5 303q2 185 -108.5 297t-293.5 112 q-182 0 -291.5 -112.5t-109.5 -296.5z" />
<glyph unicode="7" horiz-adv-x="1009" d="M61 1358v76h902v-56l-713 -1378h-84l627 1208q18 35 40 73t35 59l13 20l-2 2h-11q-12 -1 -31 -1.5t-42 -1t-52 -1t-55 -0.5h-627z" />
<glyph unicode="8" horiz-adv-x="1165" d="M94 385q0 86 31.5 157.5t83 116.5t111.5 70.5t122 30.5v4q-29 3 -64.5 16.5t-75.5 40.5t-72.5 63t-54 90t-21.5 116q0 162 119.5 267t310.5 105q192 0 310 -106t118 -266q0 -62 -21.5 -116.5t-54.5 -91t-73 -63t-75 -39.5t-63 -16v-4q62 -5 122 -30.5t111.5 -70.5 t83 -116.5t31.5 -157.5q0 -187 -134 -299.5t-355 -114.5q-221 2 -355.5 114.5t-134.5 299.5zM170 387q0 -158 111.5 -251t302.5 -95q190 1 300.5 94.5t110.5 251.5q0 155 -110.5 243.5t-300.5 88.5q-191 0 -302.5 -89t-111.5 -243zM227 1090q0 -130 100 -211.5t257 -79.5 t255.5 83t98.5 208q0 137 -98 220t-256 83q-159 0 -258 -83t-99 -220z" />
<glyph unicode="9" horiz-adv-x="1134" d="M72 969q0 224 136 358.5t349 134.5q215 0 349 -131.5t134 -363.5q0 -140 -61 -273.5t-207 -316.5l-287 -377h-88l494 641l-2 2q-61 -75 -149 -115.5t-187 -40.5q-219 0 -350 136.5t-131 345.5zM147 967q0 -100 33.5 -179.5t91 -128t129.5 -73.5t154 -25q177 0 292.5 109 t115.5 297q0 108 -32.5 190.5t-89.5 132t-129.5 74.5t-156.5 25q-82 0 -154.5 -26t-130 -76.5t-90.5 -133t-33 -186.5z" />
<glyph unicode=":" horiz-adv-x="382" d="M123 43q0 30 19.5 50t47.5 20q30 0 50 -20t20 -50q0 -31 -20.5 -51.5t-49.5 -20.5t-48 20.5t-19 51.5zM123 698q0 30 19.5 50t47.5 20q30 0 50 -20t20 -50t-20 -50.5t-50 -20.5q-29 0 -48 20t-19 51z" />
<glyph unicode=";" horiz-adv-x="409" d="M123 -281q40 45 66 107t26 129l14 8h-16q-28 -2 -50 18t-22 54q0 31 21.5 50t52.5 19q32 0 52 -25.5t20 -64.5q0 -83 -37 -163.5t-82 -131.5h-45zM141 698q0 30 20 50t48 20q30 0 50 -20t20 -50t-20.5 -50.5t-49.5 -20.5t-48.5 20t-19.5 51z" />
<glyph unicode="&#x3c;" horiz-adv-x="1333" d="M207 752l737 -500h125l-739 500l739 499h-125z" />
<glyph unicode="=" horiz-adv-x="1333" d="M231 528v72h873v-72h-873zM231 856v72h873v-72h-873z" />
<glyph unicode="&#x3e;" horiz-adv-x="1333" d="M221 252l740 500l-740 499h125l737 -499l-737 -500h-125z" />
<glyph unicode="?" horiz-adv-x="1073" d="M94 1104q35 170 156.5 264t298.5 94q111 0 196 -31.5t135 -86.5t74.5 -122.5t24.5 -146.5q0 -67 -24.5 -128.5t-64.5 -109t-97.5 -90t-117 -73.5t-128.5 -58v-135h-82v176q233 92 333.5 189.5t100.5 230.5q0 61 -19 114.5t-58 98t-109 70.5t-164 26q-314 0 -387 -301z M465 0v322h82v-322h-82z" />
<glyph unicode="@" horiz-adv-x="1503" d="M94 727q0 212 84 380t234.5 261.5t339.5 93.5q190 0 340.5 -93.5t234.5 -261.5t84 -380q0 -178 -66 -290.5t-174 -112.5q-74 0 -121.5 48.5t-50.5 139.5l-2 4q-28 -83 -104 -136.5t-164 -53.5q-153 0 -249.5 109t-96.5 282q0 186 94.5 302t251.5 116q62 0 114.5 -19 t82 -45t45.5 -49t16 -35h4v107h66v-574q0 -61 32 -99t82 -38q81 0 130 94.5t49 249.5q0 197 -77 352t-213.5 240.5t-307.5 85.5q-261 0 -428.5 -189.5t-167.5 -488.5q0 -197 76 -356.5t212.5 -250.5t307.5 -91q45 0 87 4t75.5 12.5t62.5 17t53.5 21.5t42 22.5t34.5 23.5 l25.5 21t19 17.5l11.5 11.5l49 -26q-11 -16 -29.5 -34.5t-58.5 -46.5t-88.5 -49.5t-123.5 -37t-160 -15.5q-189 0 -340 98.5t-234.5 271t-83.5 386.5zM455 717q0 -146 76.5 -235t197.5 -89q119 0 190.5 84t71.5 223v144q0 103 -74.5 163t-187.5 60q-126 0 -200 -95t-74 -255 z" />
<glyph unicode="A" horiz-adv-x="1335" d="M57 0l576 1434h67l578 -1434h-82l-178 451h-701l-178 -451h-82zM346 522h643l-264 664l-57 153h-2q-1 0 -8 -20t-21.5 -61t-26.5 -72z" />
<glyph unicode="B" horiz-adv-x="1183" d="M190 0v1434h422q179 0 285.5 -93t106.5 -247q0 -117 -81.5 -202t-174.5 -97v-2q38 -3 83 -18.5t92.5 -47t86 -74t63.5 -105t25 -132.5q0 -193 -121.5 -304.5t-323.5 -111.5h-463zM268 72h387q159 0 261 92t102 248q0 145 -110.5 241.5t-262.5 96.5h-377v-678zM268 821 h338q141 0 230.5 78t89.5 195q0 123 -87.5 195.5t-236.5 72.5h-334v-541z" />
<glyph unicode="C" horiz-adv-x="1382" d="M94 717q0 224 85 394.5t231.5 260.5t330.5 90q193 0 342.5 -98t227.5 -274l-78 -21q-69 152 -198 234.5t-294 82.5q-251 0 -409 -181.5t-158 -487.5t160 -488t409 -182q173 0 308.5 96.5t203.5 262.5l76 -21q-75 -195 -231 -304.5t-357 -109.5q-140 0 -259.5 53.5 t-205.5 150t-135 236.5t-49 306z" />
<glyph unicode="D" horiz-adv-x="1449" d="M190 0v1434h498q144 0 267.5 -52t212 -145.5t138.5 -229.5t50 -298q0 -213 -84 -375t-231 -248t-334 -86h-517zM268 76h441q163 0 291 75t202 220t74 338q0 151 -44.5 274t-123 205t-186 126t-234.5 44h-420v-1282z" />
<glyph unicode="E" horiz-adv-x="1122" d="M190 0v1434h816v-76h-738v-547h590v-74h-590v-661h750v-76h-828z" />
<glyph unicode="F" horiz-adv-x="1050" d="M190 0v1434h801v-76h-723v-586h576v-74h-576v-698h-78z" />
<glyph unicode="G" horiz-adv-x="1441" d="M94 717q0 224 85 394.5t232 260.5t332 90q202 -4 347 -101.5t221 -270.5l-78 -21q-67 152 -195.5 234.5t-294.5 82.5q-252 0 -410.5 -181t-158.5 -488q0 -204 74 -356.5t202.5 -232t292.5 -79.5q95 0 184 29t152.5 75.5t108.5 99.5t65 105v287h-415v72h487v-719h-72v72 t0.5 58t0.5 43.5v32t0.5 20.5t0.5 12v4h-2q-18 -29 -45 -60.5t-74 -69.5t-101.5 -67.5t-131 -49.5t-158.5 -20q-139 0 -258.5 53.5t-206 149t-135.5 235.5t-49 306z" />
<glyph unicode="H" horiz-adv-x="1347" d="M190 0v1434h78v-641h811v641h78v-1434h-78v717h-811v-717h-78z" />
<glyph unicode="I" horiz-adv-x="458" d="M190 0v1434h78v-1434h-78z" />
<glyph unicode="J" horiz-adv-x="1193" d="M37 334l78 18q38 -145 148.5 -226t262.5 -81q215 0 326 122.5t111 346.5v920h79v-912q0 -262 -133 -407.5t-383 -145.5q-185 0 -315.5 99t-173.5 266z" />
<glyph unicode="K" horiz-adv-x="1245" d="M190 0v1434h78v-461q0 -85 -1 -178.5t-1.5 -118.5t0.5 -43h2q2 0 85.5 89.5t146.5 158.5l512 553h96l-537 -574l596 -860h-90l-559 803l-250 -268v-535h-78z" />
<glyph unicode="L" horiz-adv-x="1036" d="M190 0v1434h78v-1358h727v-76h-805z" />
<glyph unicode="M" horiz-adv-x="1521" d="M190 0v1434h74l365 -711q49 -88 81.5 -154.5t41.5 -86.5l8 -21h2l8 21q9 20 41.5 86.5t81.5 154.5l364 711h74v-1434h-76v750q0 110 3 250q2 140 4 220q2 58 2 73v7h-2q-1 0 -13.5 -26.5t-40 -83t-55.5 -111.5l-371 -712h-43l-370 712q-29 55 -55.5 111.5t-38.5 83 t-13 26.5h-4v-7q0 -15 2 -73q2 -80 5 -220t3 -250v-750h-78z" />
<glyph unicode="N" horiz-adv-x="1384" d="M190 0v1434h72l717 -1084q43 -62 78.5 -118t49.5 -79.5t15 -23.5h2q1 0 -1 44.5t-4.5 131t-2.5 164.5v965h78v-1434h-72l-719 1090q-43 62 -78 118t-49 80l-14 23h-2q-1 0 1 -43.5t4.5 -130t2.5 -166.5v-971h-78z" />
<glyph unicode="O" d="M94 717q0 224 85 394.5t232 260.5t332 90q139 0 259 -53.5t207 -149.5t136.5 -236t49.5 -306q0 -168 -50 -309t-137 -236t-207 -148t-258 -53q-140 0 -259.5 53.5t-205.5 150t-135 236.5t-49 306zM174 717q0 -205 74 -358t202.5 -232.5t292.5 -79.5q250 0 411 183 t161 487q0 155 -43.5 282t-120 211.5t-181.5 130t-227 45.5q-252 0 -410.5 -181t-158.5 -488z" />
<glyph unicode="P" horiz-adv-x="1062" d="M190 0v1434h334q228 0 358 -118t130 -323t-131 -322.5t-357 -117.5h-256v-553h-78zM268 627h258q194 0 300 98t106 268q0 175 -109.5 271t-296.5 96h-258v-733z" />
<glyph unicode="Q" d="M94 717q0 224 85 394.5t232 260.5t332 90q139 0 259 -53.5t207 -149.5t136.5 -236t49.5 -306q0 -215 -80 -382t-218 -259.5t-313 -102.5v-243h-82v243q-176 10 -314 104t-216 260.5t-78 379.5zM174 717q0 -205 74 -358t202.5 -232.5t292.5 -79.5q250 0 411 183t161 487 q0 155 -43.5 282t-120 211.5t-181.5 130t-227 45.5q-252 0 -410.5 -181t-158.5 -488z" />
<glyph unicode="R" horiz-adv-x="1150" d="M190 0v1434h336q226 0 357 -117t131 -316q0 -154 -77 -258t-218 -147l338 -596h-90l-324 578q-55 -9 -117 -9h-258v-569h-78zM268 639h260q192 0 299 97.5t107 264.5q0 169 -109 264t-297 95h-260v-721z" />
<glyph unicode="S" horiz-adv-x="1095" d="M82 371l74 20q12 -154 116 -250t281 -96q170 0 274.5 89t104.5 228q0 34 -7.5 64.5t-19 55t-31.5 47.5t-39 40.5t-48.5 36t-52.5 30.5t-59 28t-59.5 25t-62 24t-59.5 24q-150 59 -212 96q-173 105 -173 271q0 159 123 258.5t313 99.5q177 0 296.5 -97t147.5 -261l-74 -21 q-23 142 -122.5 224t-249.5 82q-157 0 -256 -77t-99 -208q0 -37 13 -71t31.5 -59.5t53 -51t61.5 -41.5t74.5 -36t75 -30.5t78.5 -28.5q158 -64 211 -92q176 -95 214 -238q12 -45 12 -94q0 -170 -128 -280.5t-333 -110.5q-203 0 -327 111t-142 289z" />
<glyph unicode="T" horiz-adv-x="1101" d="M53 1358v76h996v-76h-459v-1358h-78v1358h-459z" />
<glyph unicode="U" horiz-adv-x="1314" d="M152 522v912h77v-918q0 -233 107.5 -352t320.5 -119t320.5 119t107.5 352v918h78v-912q0 -271 -129.5 -412t-376.5 -141q-248 0 -376.5 141t-128.5 412z" />
<glyph unicode="V" horiz-adv-x="1320" d="M57 1434h80l453 -1145q13 -34 30.5 -84.5t27.5 -81.5t11 -31h3q1 0 11 31t27.5 81.5t30.5 84.5l453 1145h80l-568 -1434h-71z" />
<glyph unicode="W" horiz-adv-x="1773" d="M59 1434h78l348 -1115q16 -52 30 -103.5t19.5 -74t6.5 -22.5h2q1 0 5.5 23t16.5 73.5t27 103.5l264 895h62l264 -895q15 -53 27 -103.5t16.5 -73.5t5.5 -23h2q1 0 6.5 22.5t18.5 74t28 103.5l348 1115h80l-450 -1434h-62l-237 811q-28 95 -46.5 168.5t-23.5 97t-6 23.5 h-4q-1 0 -6.5 -24t-24 -98t-45.5 -167l-238 -811h-61z" />
<glyph unicode="X" horiz-adv-x="1216" d="M39 0l520 752l-471 682h94l344 -502q79 -127 82 -127h2q3 0 82 127l342 502h94l-471 -682l521 -752h-95l-395 571q-18 25 -37.5 56.5t-29.5 49t-11 17.5h-2q-1 0 -11.5 -17.5t-30.5 -49t-38 -56.5l-393 -571h-96z" />
<glyph unicode="Y" horiz-adv-x="1165" d="M39 1434h90l365 -512q84 -131 90 -131h2q4 0 86 131l364 512h90l-503 -711v-723h-78v723z" />
<glyph unicode="Z" horiz-adv-x="1253" d="M113 0v70l856 1185q14 18 36 44.5t36 43t14 17.5l-2 2h-7q-7 -1 -21 -1.5t-32.5 -1t-46.5 -1t-59 -0.5h-754v76h1008v-70l-852 -1184q-21 -28 -42.5 -55.5t-31.5 -39.5t-10 -13l2 -2h8q8 1 22.5 2t33 2t44.5 1.5t52 0.5h774v-76h-1028z" />
<glyph unicode="[" horiz-adv-x="595" d="M190 -307v2060h328v-76h-246v-1910h246v-74h-328z" />
<glyph unicode="\" horiz-adv-x="841" d="M57 1434l654 -1434h73l-655 1434h-72z" />
<glyph unicode="]" horiz-adv-x="618" d="M100 -233v-74h328v2060h-328v-76h246v-1910h-246z" />
<glyph unicode="^" horiz-adv-x="1263" d="M190 977l441 481l442 -481l-53 -47l-389 432l-389 -432z" />
<glyph unicode="_" horiz-adv-x="1427" d="M190 0h1047v-63h-1047v63z" />
<glyph unicode="`" horiz-adv-x="612" d="M102 1737l37 61l375 -223l-33 -51z" />
<glyph unicode="a" horiz-adv-x="1335" d="M57 0l576 1434h67l578 -1434h-82l-178 451h-701l-178 -451h-82zM346 522h643l-264 664l-57 153h-2q-1 0 -8 -20t-21.5 -61t-26.5 -72z" />
<glyph unicode="b" horiz-adv-x="1183" d="M190 0v1434h422q179 0 285.5 -93t106.5 -247q0 -117 -81.5 -202t-174.5 -97v-2q38 -3 83 -18.5t92.5 -47t86 -74t63.5 -105t25 -132.5q0 -193 -121.5 -304.5t-323.5 -111.5h-463zM268 72h387q159 0 261 92t102 248q0 145 -110.5 241.5t-262.5 96.5h-377v-678zM268 821 h338q141 0 230.5 78t89.5 195q0 123 -87.5 195.5t-236.5 72.5h-334v-541z" />
<glyph unicode="c" horiz-adv-x="1382" d="M94 717q0 224 85 394.5t231.5 260.5t330.5 90q193 0 342.5 -98t227.5 -274l-78 -21q-69 152 -198 234.5t-294 82.5q-251 0 -409 -181.5t-158 -487.5t160 -488t409 -182q173 0 308.5 96.5t203.5 262.5l76 -21q-75 -195 -231 -304.5t-357 -109.5q-140 0 -259.5 53.5 t-205.5 150t-135 236.5t-49 306z" />
<glyph unicode="d" horiz-adv-x="1449" d="M190 0v1434h498q144 0 267.5 -52t212 -145.5t138.5 -229.5t50 -298q0 -213 -84 -375t-231 -248t-334 -86h-517zM268 76h441q163 0 291 75t202 220t74 338q0 151 -44.5 274t-123 205t-186 126t-234.5 44h-420v-1282z" />
<glyph unicode="e" horiz-adv-x="1122" d="M190 0v1434h816v-76h-738v-547h590v-74h-590v-661h750v-76h-828z" />
<glyph unicode="f" horiz-adv-x="1050" d="M190 0v1434h801v-76h-723v-586h576v-74h-576v-698h-78z" />
<glyph unicode="g" horiz-adv-x="1441" d="M94 717q0 224 85 394.5t232 260.5t332 90q202 -4 347 -101.5t221 -270.5l-78 -21q-67 152 -195.5 234.5t-294.5 82.5q-252 0 -410.5 -181t-158.5 -488q0 -204 74 -356.5t202.5 -232t292.5 -79.5q95 0 184 29t152.5 75.5t108.5 99.5t65 105v287h-415v72h487v-719h-72v72 t0.5 58t0.5 43.5v32t0.5 20.5t0.5 12v4h-2q-18 -29 -45 -60.5t-74 -69.5t-101.5 -67.5t-131 -49.5t-158.5 -20q-139 0 -258.5 53.5t-206 149t-135.5 235.5t-49 306z" />
<glyph unicode="h" horiz-adv-x="1347" d="M190 0v1434h78v-641h811v641h78v-1434h-78v717h-811v-717h-78z" />
<glyph unicode="i" horiz-adv-x="458" d="M190 0v1434h78v-1434h-78z" />
<glyph unicode="j" horiz-adv-x="1193" d="M37 334l78 18q38 -145 148.5 -226t262.5 -81q215 0 326 122.5t111 346.5v920h79v-912q0 -262 -133 -407.5t-383 -145.5q-185 0 -315.5 99t-173.5 266z" />
<glyph unicode="k" horiz-adv-x="1245" d="M190 0v1434h78v-461q0 -85 -1 -178.5t-1.5 -118.5t0.5 -43h2q2 0 85.5 89.5t146.5 158.5l512 553h96l-537 -574l596 -860h-90l-559 803l-250 -268v-535h-78z" />
<glyph unicode="l" horiz-adv-x="1036" d="M190 0v1434h78v-1358h727v-76h-805z" />
<glyph unicode="m" horiz-adv-x="1521" d="M190 0v1434h74l365 -711q49 -88 81.5 -154.5t41.5 -86.5l8 -21h2l8 21q9 20 41.5 86.5t81.5 154.5l364 711h74v-1434h-76v750q0 110 3 250q2 140 4 220q2 58 2 73v7h-2q-1 0 -13.5 -26.5t-40 -83t-55.5 -111.5l-371 -712h-43l-370 712q-29 55 -55.5 111.5t-38.5 83 t-13 26.5h-4v-7q0 -15 2 -73q2 -80 5 -220t3 -250v-750h-78z" />
<glyph unicode="n" horiz-adv-x="1384" d="M190 0v1434h72l717 -1084q43 -62 78.5 -118t49.5 -79.5t15 -23.5h2q1 0 -1 44.5t-4.5 131t-2.5 164.5v965h78v-1434h-72l-719 1090q-43 62 -78 118t-49 80l-14 23h-2q-1 0 1 -43.5t4.5 -130t2.5 -166.5v-971h-78z" />
<glyph unicode="o" d="M94 717q0 224 85 394.5t232 260.5t332 90q139 0 259 -53.5t207 -149.5t136.5 -236t49.5 -306q0 -168 -50 -309t-137 -236t-207 -148t-258 -53q-140 0 -259.5 53.5t-205.5 150t-135 236.5t-49 306zM174 717q0 -205 74 -358t202.5 -232.5t292.5 -79.5q250 0 411 183 t161 487q0 155 -43.5 282t-120 211.5t-181.5 130t-227 45.5q-252 0 -410.5 -181t-158.5 -488z" />
<glyph unicode="p" horiz-adv-x="1062" d="M190 0v1434h334q228 0 358 -118t130 -323t-131 -322.5t-357 -117.5h-256v-553h-78zM268 627h258q194 0 300 98t106 268q0 175 -109.5 271t-296.5 96h-258v-733z" />
<glyph unicode="q" d="M94 717q0 224 85 394.5t232 260.5t332 90q139 0 259 -53.5t207 -149.5t136.5 -236t49.5 -306q0 -215 -80 -382t-218 -259.5t-313 -102.5v-243h-82v243q-176 10 -314 104t-216 260.5t-78 379.5zM174 717q0 -205 74 -358t202.5 -232.5t292.5 -79.5q250 0 411 183t161 487 q0 155 -43.5 282t-120 211.5t-181.5 130t-227 45.5q-252 0 -410.5 -181t-158.5 -488z" />
<glyph unicode="r" horiz-adv-x="1150" d="M190 0v1434h336q226 0 357 -117t131 -316q0 -154 -77 -258t-218 -147l338 -596h-90l-324 578q-55 -9 -117 -9h-258v-569h-78zM268 639h260q192 0 299 97.5t107 264.5q0 169 -109 264t-297 95h-260v-721z" />
<glyph unicode="s" horiz-adv-x="1095" d="M82 371l74 20q12 -154 116 -250t281 -96q170 0 274.5 89t104.5 228q0 34 -7.5 64.5t-19 55t-31.5 47.5t-39 40.5t-48.5 36t-52.5 30.5t-59 28t-59.5 25t-62 24t-59.5 24q-150 59 -212 96q-173 105 -173 271q0 159 123 258.5t313 99.5q177 0 296.5 -97t147.5 -261l-74 -21 q-23 142 -122.5 224t-249.5 82q-157 0 -256 -77t-99 -208q0 -37 13 -71t31.5 -59.5t53 -51t61.5 -41.5t74.5 -36t75 -30.5t78.5 -28.5q158 -64 211 -92q176 -95 214 -238q12 -45 12 -94q0 -170 -128 -280.5t-333 -110.5q-203 0 -327 111t-142 289z" />
<glyph unicode="t" horiz-adv-x="1101" d="M53 1358v76h996v-76h-459v-1358h-78v1358h-459z" />
<glyph unicode="u" horiz-adv-x="1314" d="M152 522v912h77v-918q0 -233 107.5 -352t320.5 -119t320.5 119t107.5 352v918h78v-912q0 -271 -129.5 -412t-376.5 -141q-248 0 -376.5 141t-128.5 412z" />
<glyph unicode="v" horiz-adv-x="1320" d="M57 1434h80l453 -1145q13 -34 30.5 -84.5t27.5 -81.5t11 -31h3q1 0 11 31t27.5 81.5t30.5 84.5l453 1145h80l-568 -1434h-71z" />
<glyph unicode="w" horiz-adv-x="1773" d="M59 1434h78l348 -1115q16 -52 30 -103.5t19.5 -74t6.5 -22.5h2q1 0 5.5 23t16.5 73.5t27 103.5l264 895h62l264 -895q15 -53 27 -103.5t16.5 -73.5t5.5 -23h2q1 0 6.5 22.5t18.5 74t28 103.5l348 1115h80l-450 -1434h-62l-237 811q-28 95 -46.5 168.5t-23.5 97t-6 23.5 h-4q-1 0 -6.5 -24t-24 -98t-45.5 -167l-238 -811h-61z" />
<glyph unicode="x" horiz-adv-x="1216" d="M39 0l520 752l-471 682h94l344 -502q79 -127 82 -127h2q3 0 82 127l342 502h94l-471 -682l521 -752h-95l-395 571q-18 25 -37.5 56.5t-29.5 49t-11 17.5h-2q-1 0 -11.5 -17.5t-30.5 -49t-38 -56.5l-393 -571h-96z" />
<glyph unicode="y" horiz-adv-x="1165" d="M39 1434h90l365 -512q84 -131 90 -131h2q4 0 86 131l364 512h90l-503 -711v-723h-78v723z" />
<glyph unicode="z" horiz-adv-x="1253" d="M113 0v70l856 1185q14 18 36 44.5t36 43t14 17.5l-2 2h-7q-7 -1 -21 -1.5t-32.5 -1t-46.5 -1t-59 -0.5h-754v76h1008v-70l-852 -1184q-21 -28 -42.5 -55.5t-31.5 -39.5t-10 -13l2 -2h8q8 1 22.5 2t33 2t44.5 1.5t52 0.5h774v-76h-1028z" />
<glyph unicode="{" horiz-adv-x="686" d="M190 721q5 2 14.5 6.5t32.5 26.5t40.5 53t32 92t14.5 137v285q0 432 323 432v-76q-246 0 -246 -331v-299q0 -38 -3 -72t-7 -60t-11 -50t-13.5 -41t-15.5 -32.5t-15.5 -25t-15 -18.5t-12.5 -13t-10 -9l-7 -5q110 -79 110 -328v-297q0 -332 246 -332v-75q-323 0 -323 432 v285q0 76 -14 136.5t-33.5 92.5t-39 53t-33.5 27z" />
<glyph unicode="|" horiz-adv-x="452" d="M190 -152v1739h72v-1739h-72z" />
<glyph unicode="}" horiz-adv-x="692" d="M45 -236v-75q324 0 324 432v285q0 76 13.5 136.5t33.5 92.5t39.5 53t32.5 27l14 6q-5 2 -14 6.5t-32 26.5t-40.5 53t-32 92t-14.5 137v285q0 432 -324 432v-76q246 0 246 -331v-299q0 -38 3 -72t7 -60t11 -50t13.5 -41t15.5 -32.5t15.5 -25t15 -18.5t12.5 -13t10 -9l7 -5 q-110 -79 -110 -328v-297q0 -332 -246 -332z" />
<glyph unicode="~" horiz-adv-x="1333" d="M291 668q12 79 70 126t143 46q44 0 83 -16t67.5 -39t55.5 -46t58 -39.5t63 -17.5q59 0 99.5 35t44.5 90l69 -19q-11 -78 -67 -124.5t-141 -45.5q-43 0 -81.5 16t-67.5 38.5t-57 45.5t-59.5 39t-64.5 17q-61 0 -99.5 -33.5t-46.5 -89.5z" />
<glyph unicode="&#xa1;" horiz-adv-x="458" d="M190 0v952h78v-952h-78zM190 1112v322h78v-322h-78z" />
<glyph unicode="&#xa2;" horiz-adv-x="1021" d="M94 721q0 227 118.5 370.5t303.5 155.5v215h70v-215q127 -7 223.5 -77.5t146.5 -190.5l-65 -18q-47 107 -135 163t-205 56q-172 0 -277.5 -123t-105.5 -336q0 -214 106.5 -336.5t278.5 -122.5q123 0 214.5 63t135.5 183l66 -21q-45 -131 -146.5 -208t-236.5 -86v-222h-68 v222q-187 12 -305.5 157t-118.5 371z" />
<glyph unicode="&#xa3;" horiz-adv-x="1253" d="M190 0v76q72 15 115 55.5t59 102t18 143t-9 178.5l-15 156h-145v71h139l-20 230q-19 201 84 323t286 127q71 2 134 -16t121 -58.5t103 -113t70 -172.5l-71 -19q-47 163 -136.5 237t-228.5 69q-142 -3 -221.5 -104t-64.5 -275l20 -228h483v-71h-477l15 -156 q20 -216 -12.5 -330.5t-117.5 -152.5l3 -2h14q13 1 36.5 1.5t55 1t72 1t82.5 1t92 1t96 0.5h383v-76h-963z" />
<glyph unicode="&#xa4;" horiz-adv-x="1243" d="M94 207l154 155q-109 144 -109 338q0 217 129 365l-145 143l47 47l147 -143q133 117 306 117q178 0 305 -115l145 141l45 -47l-141 -143q131 -151 131 -365q0 -197 -111 -340l152 -153l-47 -47l-150 149q-140 -137 -329 -137q-190 0 -332 139l-152 -151zM215 700 q0 -195 116.5 -324.5t291.5 -129.5t292 129.5t117 324.5t-117 326t-292 131t-291.5 -131t-116.5 -326z" />
<glyph unicode="&#xa5;" horiz-adv-x="1165" d="M39 1434h90l365 -512q84 -131 90 -131h2q4 0 86 131l364 512h90l-432 -609h330v-69h-379l-22 -33v-59h401v-68h-401v-596h-78v596h-389v68h389v59l-23 33h-366v69h315z" />
<glyph unicode="&#xa6;" horiz-adv-x="452" d="M190 -152v594h72v-594h-72zM190 1014v573h72v-573h-72z" />
<glyph unicode="&#xa7;" horiz-adv-x="970" d="M82 266l68 19q9 -112 95 -182.5t238 -71.5q145 0 235.5 60.5t90.5 154.5q0 36 -12.5 66.5t-39 54.5t-54 42t-70.5 35.5t-75.5 29t-81.5 26.5q-25 8 -38 12q-139 44 -182 64q-163 75 -164 198q0 86 69 149t183 87q-95 36 -152 85t-57 128q0 109 103 177t262 68 q148 0 246 -68.5t120 -185.5l-71 -20q-17 96 -95 151.5t-200 55.5q-128 0 -207.5 -47t-79.5 -129q0 -32 18 -59.5t40 -45t68 -36.5t72.5 -27.5t82.5 -25.5l30 -9q160 -50 226 -88q137 -79 137 -205q0 -83 -59.5 -141.5t-165.5 -83.5q223 -92 223 -256q0 -124 -111 -203.5 t-291 -79.5q-178 0 -284 85t-117 216zM166 776q0 -29 12 -53.5t37.5 -44.5t50.5 -35t66.5 -30t70 -24t75.5 -23q5 -1 8 -2l7.5 -2.5t8.5 -2.5q26 -8 82 -27q98 18 162.5 71.5t64.5 125.5q0 25 -6 46.5t-20.5 40t-29 33t-40.5 28.5t-44.5 23t-52 21t-52.5 18t-56.5 17.5 t-54.5 16.5q-3 1 -10.5 3t-10.5 3q-46 -6 -89.5 -20t-85.5 -37.5t-67.5 -61t-25.5 -84.5z" />
<glyph unicode="&#xa8;" horiz-adv-x="741" d="M106 1636q0 32 19.5 53t48.5 21q31 0 50.5 -21t19.5 -53t-19.5 -53.5t-50.5 -21.5q-29 0 -48.5 21.5t-19.5 53.5zM502 1636q0 32 19.5 53t47.5 21q31 0 50.5 -21t19.5 -53t-19.5 -53.5t-50.5 -21.5q-28 0 -47.5 21.5t-19.5 53.5z" />
<glyph unicode="&#xa9;" horiz-adv-x="1540" d="M94 717q0 215 89 386t242.5 265t342.5 94q190 0 344.5 -94t244 -265t89.5 -386q0 -161 -52.5 -300.5t-143 -237t-215.5 -153t-267 -55.5q-141 0 -265.5 55.5t-214.5 153t-142 237t-52 300.5zM162 717q0 -305 171 -492.5t435 -187.5q130 0 242 49t193 136.5t127 215 t46 279.5q0 307 -171.5 493.5t-436.5 186.5q-174 0 -311 -82.5t-216 -238t-79 -359.5zM449 715q0 171 90 275t237 104q95 0 177 -55.5t116 -143.5l-61 -21q-27 72 -91 114t-141 42q-118 0 -190 -85t-72 -230q0 -147 72.5 -232.5t189.5 -85.5q83 0 148.5 47.5t91.5 128.5 l61 -18q-30 -98 -115 -158.5t-186 -60.5q-148 0 -237.5 104.5t-89.5 274.5z" />
<glyph unicode="&#xaa;" horiz-adv-x="653" d="M41 565v64h571v-64h-571zM47 768l256 682h45l256 -682h-72l-67 186h-279l-67 -186h-72zM207 1012h237l-84 227q-8 24 -15.5 56t-11.5 51.5t-5 19.5h-2q-1 0 -5 -19.5t-12.5 -51.5t-17.5 -56z" />
<glyph unicode="&#xab;" horiz-adv-x="1357" d="M190 721l433 -477l51 45l-391 432l391 432l-51 45zM684 721l432 -477l51 45l-391 432l391 432l-51 45z" />
<glyph unicode="&#xad;" horiz-adv-x="1243" d="M190 692v72h873v-72h-873z" />
<glyph unicode="&#xae;" horiz-adv-x="1540" d="M94 717q0 215 89 386t242.5 265t342.5 94q190 0 344.5 -94t244 -265t89.5 -386q0 -161 -52.5 -300.5t-143 -237t-215.5 -153t-267 -55.5q-141 0 -265.5 55.5t-214.5 153t-142 237t-52 300.5zM164 717q0 -305 170 -492.5t434 -187.5q130 0 242 49t193 136.5t127 215 t46 279.5q0 307 -171.5 493.5t-436.5 186.5q-174 0 -310.5 -82.5t-215 -238t-78.5 -359.5zM569 336v762h195q121 0 192.5 -62t71.5 -168q0 -80 -39.5 -135t-111.5 -80l180 -317h-72l-174 303q-14 -2 -47 -2h-131v-301h-64zM633 696h131q102 0 151.5 41.5t49.5 130.5 q0 168 -201 168h-131v-340z" />
<glyph unicode="&#xaf;" horiz-adv-x="772" d="M98 1442v63h578v-63h-578z" />
<glyph unicode="&#xb0;" horiz-adv-x="538" d="M90 1409q0 76 51.5 128t126.5 52t128 -52t53 -128t-53 -129t-128 -53t-126.5 52.5t-51.5 129.5zM147 1409q0 -53 35 -89t86 -36t87 36.5t36 88.5q0 53 -35.5 88t-87.5 35t-86.5 -35t-34.5 -88z" />
<glyph unicode="&#xb1;" horiz-adv-x="1333" d="M231 -23v72h873v-72h-873zM231 692v72h398v391h76v-391h399v-72h-399v-389h-76v389h-398z" />
<glyph unicode="&#xb2;" horiz-adv-x="610" d="M41 1561q27 106 96.5 163.5t175.5 57.5q108 0 183 -70t75 -176q0 -142 -151 -274q-175 -156 -201 -179q-23 -19 -47.5 -35.5t-36.5 -23.5t-12 -8l2 -2q72 12 182 12h256v-65h-514v51l332 293q52 49 87.5 109.5t35.5 121.5q0 79 -54.5 129.5t-138.5 50.5q-89 0 -136 -41.5 t-71 -132.5z" />
<glyph unicode="&#xb3;" horiz-adv-x="614" d="M35 1184l67 16q3 -86 62.5 -138t148.5 -52q91 0 143 49.5t52 128.5q0 73 -57 117.5t-148 44.5h-72v59h72q88 0 141.5 46t53.5 116q0 60 -47 103.5t-140 43.5q-161 0 -196 -170l-62 19q15 99 86 157t172 58q123 0 188.5 -59.5t65.5 -151.5q0 -79 -54.5 -131.5 t-125.5 -57.5v-2q76 -7 132 -57t56 -137q0 -107 -73 -174.5t-187 -67.5q-113 0 -191 69.5t-87 170.5z" />
<glyph unicode="&#xb4;" horiz-adv-x="612" d="M102 1575l375 223l37 -61l-379 -213z" />
<glyph unicode="&#xb6;" horiz-adv-x="1069" d="M94 1092q0 162 104 252t291 90h388v-1434h-78v1358h-160v-1358h-78v750h-72q-187 0 -291 91t-104 251z" />
<glyph unicode="&#xb7;" horiz-adv-x="382" d="M123 698q0 30 19.5 50t47.5 20q30 0 50 -20t20 -50t-20 -50.5t-50 -20.5q-29 0 -48 20t-19 51z" />
<glyph unicode="&#xb8;" horiz-adv-x="489" d="M102 -442l25 55h72q59 0 96 31.5t37 83.5q0 54 -37 88t-96 34h-86l55 150h63l-36 -96q88 2 142 -46.5t54 -129.5q0 -76 -53 -123t-139 -47h-97z" />
<glyph unicode="&#xb9;" horiz-adv-x="380" d="M31 1556l217 209h45v-804h-68v532q0 15 1 40t2.5 49t3.5 46t3 36l1 15h-3q-1 0 -8 -9.5t-20.5 -26t-26.5 -29.5l-102 -101z" />
<glyph unicode="&#xba;" horiz-adv-x="679" d="M20 1106q0 158 91 258t229 100q137 0 228 -101t91 -257q0 -158 -91 -258t-228 -100q-139 0 -229.5 100.5t-90.5 257.5zM43 565v64h598v-64h-598zM86 1106q0 -131 71.5 -212t182.5 -81q110 0 181 82t71 211q0 131 -71 212t-181 81q-112 0 -183 -82t-71 -211z" />
<glyph unicode="&#xbb;" horiz-adv-x="1357" d="M190 289l392 432l-392 432l52 45l432 -477l-432 -477zM684 289l391 432l-391 432l53 45l430 -477l-430 -477z" />
<glyph unicode="&#xbc;" horiz-adv-x="1228" d="M31 1225l217 209h45v-805h-68v532q0 15 1 40t2.5 49.5t3.5 46.5t3 37l1 14h-3q-1 0 -8 -10t-20.5 -26.5t-26.5 -29.5l-102 -100zM94 0l905 1434h70l-905 -1434h-70zM618 221v49l412 535h47v-520h109v-64h-109v-221h-65v221h-394zM690 285l4 -4q3 0 24 1t54 2t66 1h174 v194q0 23 0.5 48.5t1.5 46.5t2 41.5t2 36t2 27.5t2 19v7h-2q-1 0 -20.5 -30.5t-53.5 -80.5t-63 -88l-92 -113q-16 -22 -41.5 -49t-42.5 -43z" />
<glyph unicode="&#xbd;" horiz-adv-x="1316" d="M31 1225l217 209h45v-805h-68v532q0 15 1 40t2.5 49.5t3.5 46.5t3 37l1 14h-3q-1 0 -8 -10t-20.5 -26.5t-26.5 -29.5l-102 -100zM94 0l905 1434h70l-905 -1434h-70zM748 600q27 106 96.5 163.5t175.5 57.5q108 0 183 -70t75 -176q0 -141 -152 -274q-170 -152 -200 -178 q-23 -19 -47.5 -35.5t-37 -24t-12.5 -8.5l2 -2q78 13 183 13h256v-66h-514v51l331 293q52 49 87.5 109.5t35.5 121.5q0 79 -54 130t-138 51q-89 0 -136 -41.5t-71 -132.5z" />
<glyph unicode="&#xbe;" horiz-adv-x="1394" d="M35 852l67 16q3 -86 62.5 -138t148.5 -52q91 0 143 49.5t52 128.5q0 73 -57 117.5t-148 44.5h-72v59h72q88 0 141.5 46t53.5 116q0 60 -47 103.5t-140 43.5q-162 0 -196 -169l-62 18q15 99 86 157t172 58q123 0 188.5 -59.5t65.5 -151.5q0 -79 -54.5 -131t-125.5 -57v-2 q76 -7 132 -57.5t56 -137.5q0 -107 -73 -174.5t-187 -67.5q-113 0 -191 69.5t-87 170.5zM260 0l907 1434h70l-905 -1434h-72zM786 221v49l412 535h47v-520h109v-64h-109v-221h-65v221h-394zM858 285l4 -4q3 0 24 1t54 2t66 1h174v194q0 23 0.5 48.5t1.5 46.5t2 41.5t2 36 t2 27.5t2 19v7h-2q-1 0 -20.5 -30.5t-53.5 -80.5t-63 -88l-93 -113q-16 -22 -41.5 -49t-42.5 -43z" />
<glyph unicode="&#xbf;" horiz-adv-x="1073" d="M94 358q0 67 24.5 128.5t64.5 109t97.5 90t117 73.5t128.5 58v135h82v-176q-233 -92 -333.5 -189.5t-100.5 -230.5q0 -61 19 -114.5t58 -98t109 -70.5t164 -26q314 0 387 301l68 -18q-35 -170 -156.5 -264.5t-298.5 -94.5q-111 0 -196 31.5t-135 86.5t-74.5 122.5 t-24.5 146.5zM526 1112v322h82v-322h-82z" />
<glyph unicode="&#xc0;" horiz-adv-x="1335" d="M57 0l576 1434h67l578 -1434h-82l-178 451h-701l-178 -451h-82zM346 522h643l-264 664l-57 153h-2q-1 0 -8 -20t-21.5 -61t-26.5 -72zM385 1737l37 61l375 -223l-33 -51z" />
<glyph unicode="&#xc1;" horiz-adv-x="1335" d="M57 0l576 1434h67l578 -1434h-82l-178 451h-701l-178 -451h-82zM346 522h643l-264 664l-57 153h-2q-1 0 -8 -20t-21.5 -61t-26.5 -72zM516 1575l373 223l39 -61l-381 -213z" />
<glyph unicode="&#xc2;" horiz-adv-x="1335" d="M57 0l576 1434h67l578 -1434h-82l-178 451h-701l-178 -451h-82zM346 522h643l-264 664l-57 153h-2q-1 0 -8 -20t-21.5 -61t-26.5 -72zM387 1583l281 258l278 -258l-47 -43l-231 213l-234 -213z" />
<glyph unicode="&#xc3;" horiz-adv-x="1335" d="M57 0l576 1434h67l578 -1434h-82l-178 451h-701l-178 -451h-82zM346 522h643l-264 664l-57 153h-2q-1 0 -8 -20t-21.5 -61t-26.5 -72zM377 1581q-1 69 46.5 114.5t121.5 45.5q37 0 72.5 -17.5t59 -39t53 -39t56.5 -17.5q43 0 71.5 28.5t29.5 72.5h67q1 -69 -46.5 -114.5 t-121.5 -45.5q-35 0 -69.5 17.5t-58 38.5t-54.5 38.5t-59 17.5q-45 0 -74 -28.5t-27 -71.5h-67z" />
<glyph unicode="&#xc4;" horiz-adv-x="1335" d="M57 0l576 1434h67l578 -1434h-82l-178 451h-701l-178 -451h-82zM346 522h643l-264 664l-57 153h-2q-1 0 -8 -20t-21.5 -61t-26.5 -72zM399 1636q0 32 19.5 53t48.5 21q31 0 50.5 -21t19.5 -53t-19.5 -53.5t-50.5 -21.5q-29 0 -48.5 21.5t-19.5 53.5zM795 1636 q0 32 19.5 53t47.5 21q31 0 50.5 -21t19.5 -53t-19.5 -53.5t-50.5 -21.5q-28 0 -47.5 21.5t-19.5 53.5z" />
<glyph unicode="&#xc5;" horiz-adv-x="1335" d="M57 0l574 1430q-62 12 -102 61.5t-40 116.5q0 76 52 127t127 51q74 0 127 -51t53 -127q0 -66 -41.5 -116t-104.5 -62l576 -1430h-82l-178 451h-701l-178 -451h-82zM346 522h643l-264 664l-57 153h-2q-1 0 -8 -20t-21.5 -61t-26.5 -72zM545 1608q0 -52 36 -88.5t87 -36.5 t87 36.5t36 88.5q0 53 -35.5 88t-87.5 35t-87.5 -35t-35.5 -88z" />
<glyph unicode="&#xc6;" horiz-adv-x="1794" d="M57 0l594 1434h1026v-76h-739v-547h594v-74h-594v-661h752v-76h-834v451h-530l-187 -451h-82zM354 522h502v836h-160q-6 0 -104 -262z" />
<glyph unicode="&#xc7;" horiz-adv-x="1382" d="M94 717q0 224 85 394.5t231.5 260.5t330.5 90q193 0 342.5 -98t227.5 -274l-78 -21q-69 152 -198 234.5t-294 82.5q-251 0 -409 -181.5t-158 -487.5t160 -488t409 -182q173 0 308.5 96.5t203.5 262.5l76 -21q-75 -193 -229 -302.5t-352 -111.5l-27 -67q88 2 142.5 -46.5 t54.5 -129.5q0 -76 -53.5 -123t-139.5 -47h-96l24 55h72q59 0 96 31.5t37 83.5q0 54 -37 88t-96 34h-86l45 123q-172 14 -305.5 109t-210 260t-76.5 375z" />
<glyph unicode="&#xc8;" horiz-adv-x="1122" d="M190 0v1434h816v-76h-738v-547h590v-74h-590v-661h750v-76h-828zM319 1737l37 61l375 -223l-33 -51z" />
<glyph unicode="&#xc9;" horiz-adv-x="1122" d="M190 0v1434h816v-76h-738v-547h590v-74h-590v-661h750v-76h-828zM451 1575l372 223l39 -61l-381 -213z" />
<glyph unicode="&#xca;" horiz-adv-x="1122" d="M190 0v1434h816v-76h-738v-547h590v-74h-590v-661h750v-76h-828zM322 1583l280 258l279 -258l-47 -43l-232 213l-233 -213z" />
<glyph unicode="&#xcb;" horiz-adv-x="1122" d="M190 0v1434h816v-76h-738v-547h590v-74h-590v-661h750v-76h-828zM334 1636q0 32 19 53t48 21q31 0 50.5 -21t19.5 -53t-19.5 -53.5t-50.5 -21.5q-29 0 -48 21.5t-19 53.5zM729 1636q0 32 20 53t48 21q31 0 50 -21t19 -53q0 -33 -19.5 -54t-49.5 -21q-28 0 -48 21.5 t-20 53.5z" />
<glyph unicode="&#xcc;" horiz-adv-x="458" d="M-53 1737l37 61l374 -223l-32 -51zM190 0v1434h78v-1434h-78z" />
<glyph unicode="&#xcd;" horiz-adv-x="458" d="M78 1575l373 223l38 -61l-380 -213zM190 0v1434h78v-1434h-78z" />
<glyph unicode="&#xce;" horiz-adv-x="458" d="M-51 1583l280 258l279 -258l-47 -43l-232 213l-233 -213zM190 0v1434h78v-1434h-78z" />
<glyph unicode="&#xcf;" horiz-adv-x="458" d="M-39 1636q0 32 19.5 53t48.5 21q31 0 50 -21t19 -53q0 -33 -19.5 -54t-49.5 -21q-29 0 -48.5 21.5t-19.5 53.5zM190 0v1434h78v-1434h-78zM356 1636q0 32 20 53t48 21q31 0 50.5 -21t19.5 -53t-19.5 -53.5t-50.5 -21.5q-28 0 -48 21.5t-20 53.5z" />
<glyph unicode="&#xd0;" horiz-adv-x="1456" d="M94 696v74h103v664h497q144 0 267.5 -52t212 -145.5t138.5 -229.5t50 -298q0 -213 -84 -375t-231 -248t-334 -86h-516v696h-103zM274 76h441q163 0 291 75t202 220t74 338q0 151 -44.5 274t-123 205t-186 126t-234.5 44h-420v-588h377v-74h-377v-620z" />
<glyph unicode="&#xd1;" horiz-adv-x="1384" d="M190 0v1434h72l717 -1084q43 -62 78.5 -118t49.5 -79.5t15 -23.5h2q1 0 -1 44.5t-4.5 131t-2.5 164.5v965h78v-1434h-72l-719 1090q-43 62 -78 118t-49 80l-14 23h-2q-1 0 1 -43.5t4.5 -130t2.5 -166.5v-971h-78zM403 1581q-1 69 46.5 114.5t121.5 45.5q37 0 73 -17.5 t59 -39t53 -39t57 -17.5q43 0 70.5 28.5t29.5 72.5h68q1 -69 -46.5 -114.5t-121.5 -45.5q-35 0 -69.5 17.5t-58 38.5t-55 38.5t-59.5 17.5q-45 0 -73.5 -28.5t-26.5 -71.5h-68z" />
<glyph unicode="&#xd2;" d="M94 717q0 224 85 394.5t232 260.5t332 90q139 0 259 -53.5t207 -149.5t136.5 -236t49.5 -306q0 -168 -50 -309t-137 -236t-207 -148t-258 -53q-140 0 -259.5 53.5t-205.5 150t-135 236.5t-49 306zM174 717q0 -205 74 -358t202.5 -232.5t292.5 -79.5q250 0 411 183 t161 487q0 155 -43.5 282t-120 211.5t-181.5 130t-227 45.5q-252 0 -410.5 -181t-158.5 -488zM469 1737l37 61l375 -223l-33 -51z" />
<glyph unicode="&#xd3;" d="M94 717q0 224 85 394.5t232 260.5t332 90q139 0 259 -53.5t207 -149.5t136.5 -236t49.5 -306q0 -168 -50 -309t-137 -236t-207 -148t-258 -53q-140 0 -259.5 53.5t-205.5 150t-135 236.5t-49 306zM174 717q0 -205 74 -358t202.5 -232.5t292.5 -79.5q250 0 411 183 t161 487q0 155 -43.5 282t-120 211.5t-181.5 130t-227 45.5q-252 0 -410.5 -181t-158.5 -488zM600 1575l373 223l39 -61l-381 -213z" />
<glyph unicode="&#xd4;" d="M94 717q0 224 85 394.5t232 260.5t332 90q139 0 259 -53.5t207 -149.5t136.5 -236t49.5 -306q0 -168 -50 -309t-137 -236t-207 -148t-258 -53q-140 0 -259.5 53.5t-205.5 150t-135 236.5t-49 306zM174 717q0 -205 74 -358t202.5 -232.5t292.5 -79.5q250 0 411 183 t161 487q0 155 -43.5 282t-120 211.5t-181.5 130t-227 45.5q-252 0 -410.5 -181t-158.5 -488zM471 1583l281 258l278 -258l-47 -43l-231 213l-234 -213z" />
<glyph unicode="&#xd5;" d="M94 717q0 224 85 394.5t232 260.5t332 90q139 0 259 -53.5t207 -149.5t136.5 -236t49.5 -306q0 -168 -50 -309t-137 -236t-207 -148t-258 -53q-140 0 -259.5 53.5t-205.5 150t-135 236.5t-49 306zM174 717q0 -205 74 -358t202.5 -232.5t292.5 -79.5q250 0 411 183 t161 487q0 155 -43.5 282t-120 211.5t-181.5 130t-227 45.5q-252 0 -410.5 -181t-158.5 -488zM461 1581q-1 69 46.5 114.5t121.5 45.5q37 0 72.5 -17.5t59 -39t53 -39t56.5 -17.5q43 0 71.5 28.5t29.5 72.5h67q1 -69 -46.5 -114.5t-121.5 -45.5q-35 0 -69.5 17.5t-58 38.5 t-54.5 38.5t-59 17.5q-45 0 -74 -28.5t-27 -71.5h-67z" />
<glyph unicode="&#xd6;" d="M94 717q0 224 85 394.5t232 260.5t332 90q139 0 259 -53.5t207 -149.5t136.5 -236t49.5 -306q0 -168 -50 -309t-137 -236t-207 -148t-258 -53q-140 0 -259.5 53.5t-205.5 150t-135 236.5t-49 306zM174 717q0 -205 74 -358t202.5 -232.5t292.5 -79.5q250 0 411 183 t161 487q0 155 -43.5 282t-120 211.5t-181.5 130t-227 45.5q-252 0 -410.5 -181t-158.5 -488zM483 1636q0 32 19.5 53t48.5 21q31 0 50.5 -21t19.5 -53t-19.5 -53.5t-50.5 -21.5q-29 0 -48.5 21.5t-19.5 53.5zM879 1636q0 32 19.5 53t47.5 21q31 0 50.5 -21t19.5 -53 t-19.5 -53.5t-50.5 -21.5q-28 0 -47.5 21.5t-19.5 53.5z" />
<glyph unicode="&#xd7;" horiz-adv-x="1333" d="M307 401l311 340l-311 340l51 47l310 -333l307 333l51 -47l-309 -340l311 -340l-53 -47l-307 336l-310 -336z" />
<glyph unicode="&#xd8;" d="M94 717q0 224 85 394.5t232 260.5t332 90q228 0 394 -135l69 98l56 -39l-74 -104q99 -100 153 -244t54 -321q0 -168 -50 -309t-137 -236t-207 -148t-258 -53q-225 0 -385 129l-65 -92l-57 41l69 98q-100 100 -155.5 246t-55.5 324zM174 717q0 -324 176 -506l744 1055 q-148 120 -351 120q-252 0 -410.5 -181t-158.5 -488zM401 162q146 -115 342 -115q250 0 411 183t161 487q0 315 -172 502z" />
<glyph unicode="&#xd9;" horiz-adv-x="1314" d="M152 522v912h77v-918q0 -233 107.5 -352t320.5 -119t320.5 119t107.5 352v918h78v-912q0 -271 -129.5 -412t-376.5 -141q-248 0 -376.5 141t-128.5 412zM379 1737l37 61l375 -223l-33 -51z" />
<glyph unicode="&#xda;" horiz-adv-x="1314" d="M152 522v912h77v-918q0 -233 107.5 -352t320.5 -119t320.5 119t107.5 352v918h78v-912q0 -271 -129.5 -412t-376.5 -141q-248 0 -376.5 141t-128.5 412zM510 1575l373 223l39 -61l-381 -213z" />
<glyph unicode="&#xdb;" horiz-adv-x="1314" d="M152 522v912h77v-918q0 -233 107.5 -352t320.5 -119t320.5 119t107.5 352v918h78v-912q0 -271 -129.5 -412t-376.5 -141q-248 0 -376.5 141t-128.5 412zM381 1583l281 258l278 -258l-47 -43l-231 213l-234 -213z" />
<glyph unicode="&#xdc;" horiz-adv-x="1314" d="M152 522v912h77v-918q0 -233 107.5 -352t320.5 -119t320.5 119t107.5 352v918h78v-912q0 -271 -129.5 -412t-376.5 -141q-248 0 -376.5 141t-128.5 412zM393 1636q0 32 19.5 53t48.5 21q31 0 50 -21t19 -53q0 -33 -19.5 -54t-49.5 -21q-29 0 -48.5 21.5t-19.5 53.5z M788 1636q0 32 20 53t48 21q31 0 50.5 -21t19.5 -53t-19.5 -53.5t-50.5 -21.5q-28 0 -48 21.5t-20 53.5z" />
<glyph unicode="&#xdd;" horiz-adv-x="1165" d="M39 1434h90l365 -512q84 -131 90 -131h2q4 0 86 131l364 512h90l-503 -711v-723h-78v723zM432 1575l373 223l39 -61l-381 -213z" />
<glyph unicode="&#xde;" horiz-adv-x="1093" d="M190 0v1434h78v-275h299q197 0 319 -120.5t122 -315.5t-122 -315.5t-319 -120.5h-299v-287h-78zM268 362h299q162 0 261.5 99.5t99.5 261.5q0 163 -100 262.5t-261 99.5h-299v-723z" />
<glyph unicode="&#xdf;" horiz-adv-x="1409" d="M190 0v1434h1010l-256 -471q-15 -27 -38.5 -66t-38.5 -64t-15 -26l2 -2h14q204 1 325.5 -113.5t121.5 -302.5q0 -184 -120 -301t-312 -117q-146 0 -269.5 77.5t-175.5 205.5l76 22q46 -107 146.5 -170t222.5 -63q157 0 255.5 97t98.5 249q0 146 -94 246t-260 100h-103v70 l213 395q14 27 37.5 66.5t39 65t15.5 26.5l-4 4h-8q-8 -1 -23 -1.5t-33.5 -1t-45 -1t-53.5 -0.5h-650v-1358h-78z" />
<glyph unicode="&#xe0;" horiz-adv-x="1335" d="M57 0l576 1434h67l578 -1434h-82l-178 451h-701l-178 -451h-82zM346 522h643l-264 664l-57 153h-2q-1 0 -8 -20t-21.5 -61t-26.5 -72zM385 1737l37 61l375 -223l-33 -51z" />
<glyph unicode="&#xe1;" horiz-adv-x="1335" d="M57 0l576 1434h67l578 -1434h-82l-178 451h-701l-178 -451h-82zM346 522h643l-264 664l-57 153h-2q-1 0 -8 -20t-21.5 -61t-26.5 -72zM516 1575l373 223l39 -61l-381 -213z" />
<glyph unicode="&#xe2;" horiz-adv-x="1335" d="M57 0l576 1434h67l578 -1434h-82l-178 451h-701l-178 -451h-82zM346 522h643l-264 664l-57 153h-2q-1 0 -8 -20t-21.5 -61t-26.5 -72zM387 1583l281 258l278 -258l-47 -43l-231 213l-234 -213z" />
<glyph unicode="&#xe3;" horiz-adv-x="1335" d="M57 0l576 1434h67l578 -1434h-82l-178 451h-701l-178 -451h-82zM346 522h643l-264 664l-57 153h-2q-1 0 -8 -20t-21.5 -61t-26.5 -72zM377 1581q-1 69 46.5 114.5t121.5 45.5q37 0 72.5 -17.5t59 -39t53 -39t56.5 -17.5q43 0 71.5 28.5t29.5 72.5h67q1 -69 -46.5 -114.5 t-121.5 -45.5q-35 0 -69.5 17.5t-58 38.5t-54.5 38.5t-59 17.5q-45 0 -74 -28.5t-27 -71.5h-67z" />
<glyph unicode="&#xe4;" horiz-adv-x="1335" d="M57 0l576 1434h67l578 -1434h-82l-178 451h-701l-178 -451h-82zM346 522h643l-264 664l-57 153h-2q-1 0 -8 -20t-21.5 -61t-26.5 -72zM399 1636q0 32 19.5 53t48.5 21q31 0 50.5 -21t19.5 -53t-19.5 -53.5t-50.5 -21.5q-29 0 -48.5 21.5t-19.5 53.5zM795 1636 q0 32 19.5 53t47.5 21q31 0 50.5 -21t19.5 -53t-19.5 -53.5t-50.5 -21.5q-28 0 -47.5 21.5t-19.5 53.5z" />
<glyph unicode="&#xe5;" horiz-adv-x="1335" d="M57 0l574 1430q-62 12 -102 61.5t-40 116.5q0 76 52 127t127 51q74 0 127 -51t53 -127q0 -66 -41.5 -116t-104.5 -62l576 -1430h-82l-178 451h-701l-178 -451h-82zM346 522h643l-264 664l-57 153h-2q-1 0 -8 -20t-21.5 -61t-26.5 -72zM545 1608q0 -52 36 -88.5t87 -36.5 t87 36.5t36 88.5q0 53 -35.5 88t-87.5 35t-87.5 -35t-35.5 -88z" />
<glyph unicode="&#xe6;" horiz-adv-x="1794" d="M57 0l594 1434h1026v-76h-739v-547h594v-74h-594v-661h752v-76h-834v451h-530l-187 -451h-82zM354 522h502v836h-160q-6 0 -104 -262z" />
<glyph unicode="&#xe7;" horiz-adv-x="1382" d="M94 717q0 224 85 394.5t231.5 260.5t330.5 90q193 0 342.5 -98t227.5 -274l-78 -21q-69 152 -198 234.5t-294 82.5q-251 0 -409 -181.5t-158 -487.5t160 -488t409 -182q173 0 308.5 96.5t203.5 262.5l76 -21q-75 -193 -229 -302.5t-352 -111.5l-27 -67q88 2 142.5 -46.5 t54.5 -129.5q0 -76 -53.5 -123t-139.5 -47h-96l24 55h72q59 0 96 31.5t37 83.5q0 54 -37 88t-96 34h-86l45 123q-172 14 -305.5 109t-210 260t-76.5 375z" />
<glyph unicode="&#xe8;" horiz-adv-x="1122" d="M190 0v1434h816v-76h-738v-547h590v-74h-590v-661h750v-76h-828zM311 1737l37 61l375 -223l-33 -51z" />
<glyph unicode="&#xe9;" horiz-adv-x="1122" d="M190 0v1434h816v-76h-738v-547h590v-74h-590v-661h750v-76h-828zM442 1575l373 223l39 -61l-381 -213z" />
<glyph unicode="&#xea;" horiz-adv-x="1122" d="M190 0v1434h816v-76h-738v-547h590v-74h-590v-661h750v-76h-828zM313 1583l281 258l278 -258l-47 -43l-231 213l-234 -213z" />
<glyph unicode="&#xeb;" horiz-adv-x="1122" d="M190 0v1434h816v-76h-738v-547h590v-74h-590v-661h750v-76h-828zM326 1636q0 32 19 53t48 21q31 0 50.5 -21t19.5 -53t-19.5 -53.5t-50.5 -21.5q-29 0 -48 21.5t-19 53.5zM721 1636q0 32 19.5 53t47.5 21q31 0 50.5 -21t19.5 -53t-19.5 -53.5t-50.5 -21.5 q-28 0 -47.5 21.5t-19.5 53.5z" />
<glyph unicode="&#xec;" horiz-adv-x="458" d="M-53 1737l37 61l374 -223l-32 -51zM190 0v1434h78v-1434h-78z" />
<glyph unicode="&#xed;" horiz-adv-x="458" d="M78 1575l373 223l38 -61l-380 -213zM190 0v1434h78v-1434h-78z" />
<glyph unicode="&#xee;" horiz-adv-x="458" d="M-51 1583l280 258l279 -258l-47 -43l-232 213l-233 -213zM190 0v1434h78v-1434h-78z" />
<glyph unicode="&#xef;" horiz-adv-x="458" d="M-39 1636q0 32 19.5 53t48.5 21q31 0 50 -21t19 -53q0 -33 -19.5 -54t-49.5 -21q-29 0 -48.5 21.5t-19.5 53.5zM190 0v1434h78v-1434h-78zM356 1636q0 32 20 53t48 21q31 0 50.5 -21t19.5 -53t-19.5 -53.5t-50.5 -21.5q-28 0 -48 21.5t-20 53.5z" />
<glyph unicode="&#xf0;" horiz-adv-x="1456" d="M94 696v74h103v664h497q144 0 267.5 -52t212 -145.5t138.5 -229.5t50 -298q0 -213 -84 -375t-231 -248t-334 -86h-516v696h-103zM274 76h441q163 0 291 75t202 220t74 338q0 151 -44.5 274t-123 205t-186 126t-234.5 44h-420v-588h377v-74h-377v-620z" />
<glyph unicode="&#xf1;" horiz-adv-x="1384" d="M190 0v1434h72l717 -1084q43 -62 78.5 -118t49.5 -79.5t15 -23.5h2q1 0 -1 44.5t-4.5 131t-2.5 164.5v965h78v-1434h-72l-719 1090q-43 62 -78 118t-49 80l-14 23h-2q-1 0 1 -43.5t4.5 -130t2.5 -166.5v-971h-78zM403 1581q-1 69 46.5 114.5t121.5 45.5q37 0 73 -17.5 t59 -39t53 -39t57 -17.5q43 0 70.5 28.5t29.5 72.5h68q1 -69 -46.5 -114.5t-121.5 -45.5q-35 0 -69.5 17.5t-58 38.5t-55 38.5t-59.5 17.5q-45 0 -73.5 -28.5t-26.5 -71.5h-68z" />
<glyph unicode="&#xf2;" d="M94 717q0 224 85 394.5t232 260.5t332 90q139 0 259 -53.5t207 -149.5t136.5 -236t49.5 -306q0 -168 -50 -309t-137 -236t-207 -148t-258 -53q-140 0 -259.5 53.5t-205.5 150t-135 236.5t-49 306zM174 717q0 -205 74 -358t202.5 -232.5t292.5 -79.5q250 0 411 183 t161 487q0 155 -43.5 282t-120 211.5t-181.5 130t-227 45.5q-252 0 -410.5 -181t-158.5 -488zM465 1737l37 61l375 -223l-33 -51z" />
<glyph unicode="&#xf3;" d="M94 717q0 224 85 394.5t232 260.5t332 90q139 0 259 -53.5t207 -149.5t136.5 -236t49.5 -306q0 -168 -50 -309t-137 -236t-207 -148t-258 -53q-140 0 -259.5 53.5t-205.5 150t-135 236.5t-49 306zM174 717q0 -205 74 -358t202.5 -232.5t292.5 -79.5q250 0 411 183 t161 487q0 155 -43.5 282t-120 211.5t-181.5 130t-227 45.5q-252 0 -410.5 -181t-158.5 -488zM596 1575l373 223l39 -61l-381 -213z" />
<glyph unicode="&#xf4;" d="M94 717q0 224 85 394.5t232 260.5t332 90q139 0 259 -53.5t207 -149.5t136.5 -236t49.5 -306q0 -168 -50 -309t-137 -236t-207 -148t-258 -53q-140 0 -259.5 53.5t-205.5 150t-135 236.5t-49 306zM174 717q0 -205 74 -358t202.5 -232.5t292.5 -79.5q250 0 411 183 t161 487q0 155 -43.5 282t-120 211.5t-181.5 130t-227 45.5q-252 0 -410.5 -181t-158.5 -488zM467 1583l281 258l278 -258l-47 -43l-231 213l-234 -213z" />
<glyph unicode="&#xf5;" d="M94 717q0 224 85 394.5t232 260.5t332 90q139 0 259 -53.5t207 -149.5t136.5 -236t49.5 -306q0 -168 -50 -309t-137 -236t-207 -148t-258 -53q-140 0 -259.5 53.5t-205.5 150t-135 236.5t-49 306zM174 717q0 -205 74 -358t202.5 -232.5t292.5 -79.5q250 0 411 183 t161 487q0 155 -43.5 282t-120 211.5t-181.5 130t-227 45.5q-252 0 -410.5 -181t-158.5 -488zM457 1581q-1 69 46.5 114.5t121.5 45.5q37 0 72.5 -17.5t59 -39t53 -39t56.5 -17.5q43 0 71.5 28.5t29.5 72.5h67q1 -69 -46.5 -114.5t-121.5 -45.5q-35 0 -69.5 17.5t-58 38.5 t-54.5 38.5t-59 17.5q-45 0 -74 -28.5t-27 -71.5h-67z" />
<glyph unicode="&#xf6;" d="M94 717q0 224 85 394.5t232 260.5t332 90q139 0 259 -53.5t207 -149.5t136.5 -236t49.5 -306q0 -168 -50 -309t-137 -236t-207 -148t-258 -53q-140 0 -259.5 53.5t-205.5 150t-135 236.5t-49 306zM174 717q0 -205 74 -358t202.5 -232.5t292.5 -79.5q250 0 411 183 t161 487q0 155 -43.5 282t-120 211.5t-181.5 130t-227 45.5q-252 0 -410.5 -181t-158.5 -488zM479 1636q0 32 19.5 53t48.5 21q31 0 50 -21t19 -53q0 -33 -19.5 -54t-49.5 -21q-29 0 -48.5 21.5t-19.5 53.5zM874 1636q0 32 20 53t48 21q31 0 50.5 -21t19.5 -53t-19.5 -53.5 t-50.5 -21.5q-28 0 -48 21.5t-20 53.5z" />
<glyph unicode="&#xf7;" horiz-adv-x="1333" d="M223 692v72h873v-72h-873zM584 281q0 30 19.5 49.5t47.5 19.5q31 0 50.5 -20t19.5 -49q0 -31 -20.5 -51.5t-49.5 -20.5t-48 20.5t-19 51.5zM584 1182q0 30 19.5 49.5t47.5 19.5q31 0 50.5 -19.5t19.5 -49.5q0 -31 -20.5 -51.5t-49.5 -20.5t-48 20.5t-19 51.5z" />
<glyph unicode="&#xf8;" d="M94 717q0 224 85 394.5t232 260.5t332 90q228 0 394 -135l69 98l56 -39l-74 -104q99 -100 153 -244t54 -321q0 -168 -50 -309t-137 -236t-207 -148t-258 -53q-225 0 -385 129l-65 -92l-57 41l69 98q-100 100 -155.5 246t-55.5 324zM174 717q0 -324 176 -506l744 1055 q-148 120 -351 120q-252 0 -410.5 -181t-158.5 -488zM401 162q146 -115 342 -115q250 0 411 183t161 487q0 315 -172 502z" />
<glyph unicode="&#xf9;" horiz-adv-x="1314" d="M152 522v912h77v-918q0 -233 107.5 -352t320.5 -119t320.5 119t107.5 352v918h78v-912q0 -271 -129.5 -412t-376.5 -141q-248 0 -376.5 141t-128.5 412zM379 1737l37 61l375 -223l-33 -51z" />
<glyph unicode="&#xfa;" horiz-adv-x="1314" d="M152 522v912h77v-918q0 -233 107.5 -352t320.5 -119t320.5 119t107.5 352v918h78v-912q0 -271 -129.5 -412t-376.5 -141q-248 0 -376.5 141t-128.5 412zM510 1575l373 223l39 -61l-381 -213z" />
<glyph unicode="&#xfb;" horiz-adv-x="1314" d="M152 522v912h77v-918q0 -233 107.5 -352t320.5 -119t320.5 119t107.5 352v918h78v-912q0 -271 -129.5 -412t-376.5 -141q-248 0 -376.5 141t-128.5 412zM381 1583l281 258l278 -258l-47 -43l-231 213l-234 -213z" />
<glyph unicode="&#xfc;" horiz-adv-x="1314" d="M152 522v912h77v-918q0 -233 107.5 -352t320.5 -119t320.5 119t107.5 352v918h78v-912q0 -271 -129.5 -412t-376.5 -141q-248 0 -376.5 141t-128.5 412zM393 1636q0 32 19.5 53t48.5 21q31 0 50 -21t19 -53q0 -33 -19.5 -54t-49.5 -21q-29 0 -48.5 21.5t-19.5 53.5z M788 1636q0 32 20 53t48 21q31 0 50.5 -21t19.5 -53t-19.5 -53.5t-50.5 -21.5q-28 0 -48 21.5t-20 53.5z" />
<glyph unicode="&#xfd;" horiz-adv-x="1165" d="M39 1434h90l365 -512q84 -131 90 -131h2q4 0 86 131l364 512h90l-503 -711v-723h-78v723zM432 1575l373 223l39 -61l-381 -213z" />
<glyph unicode="&#xfe;" horiz-adv-x="1093" d="M190 0v1434h78v-275h299q197 0 319 -120.5t122 -315.5t-122 -315.5t-319 -120.5h-299v-287h-78zM268 362h299q162 0 261.5 99.5t99.5 261.5q0 163 -100 262.5t-261 99.5h-299v-723z" />
<glyph unicode="&#xff;" horiz-adv-x="1165" d="M39 1434h90l365 -512q84 -131 90 -131h2q4 0 86 131l364 512h90l-503 -711v-723h-78v723zM315 1636q0 32 19.5 53t48.5 21q31 0 50.5 -21t19.5 -53t-19.5 -53.5t-50.5 -21.5q-29 0 -48.5 21.5t-19.5 53.5zM711 1636q0 32 19.5 53t47.5 21q31 0 50.5 -21t19.5 -53 t-19.5 -53.5t-50.5 -21.5q-28 0 -47.5 21.5t-19.5 53.5z" />
<glyph unicode="&#x152;" horiz-adv-x="1783" d="M94 717q0 168 48 305.5t133 229t203.5 141t258.5 49.5q62 0 111 -8h819v-76h-741v-547h594v-74h-594v-661h753v-76h-831q-47 -8 -111 -8q-288 0 -465.5 195.5t-177.5 529.5zM174 717q0 -154 41.5 -277.5t116.5 -204.5t178 -124t227 -43q61 0 111 12v1274q-50 12 -111 12 q-255 0 -409 -171.5t-154 -477.5z" />
<glyph unicode="&#x153;" horiz-adv-x="1783" d="M94 717q0 168 48 305.5t133 229t203.5 141t258.5 49.5q62 0 111 -8h819v-76h-741v-547h594v-74h-594v-661h753v-76h-831q-47 -8 -111 -8q-288 0 -465.5 195.5t-177.5 529.5zM174 717q0 -154 41.5 -277.5t116.5 -204.5t178 -124t227 -43q61 0 111 12v1274q-50 12 -111 12 q-255 0 -409 -171.5t-154 -477.5z" />
<glyph unicode="&#x178;" horiz-adv-x="1165" d="M39 1434h90l365 -512q84 -131 90 -131h2q4 0 86 131l364 512h90l-503 -711v-723h-78v723zM315 1636q0 32 19.5 53t48.5 21q31 0 50.5 -21t19.5 -53t-19.5 -53.5t-50.5 -21.5q-29 0 -48.5 21.5t-19.5 53.5zM711 1636q0 32 19.5 53t47.5 21q31 0 50.5 -21t19.5 -53 t-19.5 -53.5t-50.5 -21.5q-28 0 -47.5 21.5t-19.5 53.5z" />
<glyph unicode="&#x2c6;" horiz-adv-x="778" d="M111 1583l280 258l279 -258l-47 -43l-232 213l-233 -213z" />
<glyph unicode="&#x2dc;" horiz-adv-x="780" d="M102 1581q0 69 47.5 114.5t120.5 45.5q38 0 74 -17.5t59 -39t52.5 -39t56.5 -17.5q44 0 72 28.5t28 72.5h68q2 -69 -45.5 -114.5t-122.5 -45.5q-35 0 -69.5 17.5t-58 38.5t-55 38.5t-59.5 17.5q-44 0 -72 -28.5t-28 -71.5h-68z" />
<glyph unicode="&#x2000;" horiz-adv-x="920" />
<glyph unicode="&#x2001;" horiz-adv-x="1841" />
<glyph unicode="&#x2002;" horiz-adv-x="920" />
<glyph unicode="&#x2003;" horiz-adv-x="1841" />
<glyph unicode="&#x2004;" horiz-adv-x="613" />
<glyph unicode="&#x2005;" horiz-adv-x="460" />
<glyph unicode="&#x2006;" horiz-adv-x="306" />
<glyph unicode="&#x2007;" horiz-adv-x="306" />
<glyph unicode="&#x2008;" horiz-adv-x="230" />
<glyph unicode="&#x2009;" horiz-adv-x="368" />
<glyph unicode="&#x200a;" horiz-adv-x="102" />
<glyph unicode="&#x2010;" horiz-adv-x="1253" d="M190 692v72h873v-72h-873z" />
<glyph unicode="&#x2011;" horiz-adv-x="1253" d="M190 692v72h873v-72h-873z" />
<glyph unicode="&#x2012;" horiz-adv-x="1253" d="M190 692v72h873v-72h-873z" />
<glyph unicode="&#x2013;" horiz-adv-x="1132" d="M190 690v74h752v-74h-752z" />
<glyph unicode="&#x2014;" horiz-adv-x="1884" d="M190 690v74h1504v-74h-1504z" />
<glyph unicode="&#x2018;" horiz-adv-x="542" d="M190 1167q0 84 36 164.5t81 130.5h45q-39 -45 -64.5 -107t-25.5 -128l-14 -8h16q28 2 50 -18t22 -54q0 -31 -22 -50.5t-52 -19.5q-32 0 -52 25.5t-20 64.5z" />
<glyph unicode="&#x2019;" horiz-adv-x="542" d="M190 1077q39 44 65 106t26 128l16 10h-16q-28 -2 -50 18t-22 52q0 33 21 52t53 19q31 0 50 -26t19 -64q0 -85 -35.5 -165t-80.5 -130h-46z" />
<glyph unicode="&#x201a;" horiz-adv-x="542" d="M190 -270q39 44 65 105.5t26 127.5l16 10h-16q-28 -2 -50 18t-22 52q0 33 21 52.5t53 19.5q31 0 50 -26t19 -64q0 -85 -35.5 -165t-80.5 -130h-46z" />
<glyph unicode="&#x201c;" horiz-adv-x="841" d="M190 1167q0 84 36 164.5t81 130.5h45q-39 -45 -64.5 -107t-25.5 -128l-14 -8h16q28 2 50 -18t22 -54q0 -31 -22 -50.5t-52 -19.5q-32 0 -52 25.5t-20 64.5zM487 1167q0 83 37 163.5t82 131.5h45q-39 -45 -64.5 -107t-25.5 -128l-16 -8h16q28 2 50 -18t22 -54 q0 -32 -21 -51t-53 -19t-52 25.5t-20 64.5z" />
<glyph unicode="&#x201d;" horiz-adv-x="841" d="M190 1077q39 44 65 106t26 128l16 10h-16q-28 -2 -50 18t-22 52q0 33 21 52t53 19q31 0 50 -26t19 -64q0 -85 -35.5 -165t-80.5 -130h-46zM487 1077q40 43 66.5 105.5t26.5 128.5l14 10h-16q-28 -2 -50 18t-22 52t21.5 51.5t52.5 19.5q32 0 51.5 -26t19.5 -64 q0 -85 -36.5 -164.5t-82.5 -130.5h-45z" />
<glyph unicode="&#x201e;" horiz-adv-x="821" d="M190 -270q39 44 65 105.5t26 127.5l16 10h-16q-28 -2 -50 18t-22 52q0 33 21 52.5t53 19.5q31 0 50 -26t19 -64q0 -85 -35.5 -165t-80.5 -130h-46zM467 -270q39 44 64.5 105.5t25.5 127.5l16 10h-16q-28 -2 -50 18t-22 52q0 33 21 52.5t53 19.5t52 -26t20 -64 q0 -85 -36.5 -164.5t-82.5 -130.5h-45z" />
<glyph unicode="&#x2022;" horiz-adv-x="684" d="M190 727q0 68 44 114t108 46t108 -46t44 -114q0 -69 -43.5 -115.5t-108.5 -46.5t-108.5 46.5t-43.5 115.5z" />
<glyph unicode="&#x2026;" horiz-adv-x="1316" d="M123 29q0 26 16 42.5t41 16.5q24 0 40 -17t16 -42t-16.5 -41.5t-39.5 -16.5q-25 0 -41 16.5t-16 41.5zM598 29q0 26 15.5 42.5t39.5 16.5q25 0 41.5 -17t16.5 -42t-16.5 -41.5t-41.5 -16.5q-24 0 -39.5 16.5t-15.5 41.5zM1083 29q0 26 16 42.5t40 16.5t39.5 -17t15.5 -42 t-16 -41.5t-39 -16.5q-25 0 -40.5 16.5t-15.5 41.5z" />
<glyph unicode="&#x202f;" horiz-adv-x="368" />
<glyph unicode="&#x2039;" horiz-adv-x="864" d="M190 721l431 -477l53 45l-391 432l391 432l-53 45z" />
<glyph unicode="&#x203a;" horiz-adv-x="864" d="M190 289l392 432l-392 432l52 45l432 -477l-432 -477z" />
<glyph unicode="&#x205f;" horiz-adv-x="460" />
<glyph unicode="&#x20ac;" horiz-adv-x="1462" d="M94 596v68h86q-2 18 -2 53v47h-84v67h90q32 287 209 458t432 171q190 0 340 -98t228 -272l-82 -23q-69 152 -195.5 233.5t-290.5 81.5q-226 0 -379.5 -147.5t-183.5 -403.5h598v-67h-602q-2 -16 -2 -47q0 -35 2 -53h602v-68h-596q30 -253 184 -399t377 -146 q174 0 308 94.5t198 262.5l78 -23q-73 -195 -227.5 -302.5t-356.5 -107.5q-255 0 -431 169t-210 452h-90z" />
<glyph unicode="&#x2122;" horiz-adv-x="1478" d="M53 1374v64h518v-64h-227v-606h-65v606h-226zM700 768v670h64l180 -344q15 -27 27 -54t16.5 -39t5.5 -12h4q1 0 5 12t15.5 38.5t26.5 54.5l183 344h63v-670h-67v313q0 51 3.5 115t6.5 100.5t2 36.5h-2q-1 0 -7.5 -14.5t-20 -43t-27.5 -54.5l-162 -295h-43l-160 295 q-15 26 -28.5 54t-19.5 43t-7 15h-4q-1 0 2 -36.5t6.5 -100.5t3.5 -115v-313h-66z" />
<glyph unicode="&#x25fc;" horiz-adv-x="1433" d="M0 0v1434h1434v-1434h-1434z" />
</font>
</defs>
</svg>
