<?xml version="1.0" standalone="no"?>
<!DOCTYPE svg PUBLIC "-//W3C//DTD SVG 1.1//EN" "http://www.w3.org/Graphics/SVG/1.1/DTD/svg11.dtd" >
<svg xmlns="http://www.w3.org/2000/svg">
<metadata></metadata>
<defs>
<font id="novecentobook" horiz-adv-x="1333" >
<font-face units-per-em="2048" ascent="1741" descent="-307" />
<missing-glyph horiz-adv-x="471" />
<glyph horiz-adv-x="0" />
<glyph horiz-adv-x="682" />
<glyph unicode=" "  horiz-adv-x="471" />
<glyph unicode="&#x09;" horiz-adv-x="471" />
<glyph unicode="&#xa0;" horiz-adv-x="471" />
<glyph unicode="!" horiz-adv-x="485" d="M184 0v322h117v-322h-117zM184 475v959h117v-959h-117z" />
<glyph unicode="&#x22;" horiz-adv-x="741" d="M184 989v445h117v-445h-117zM440 989v445h117v-445h-117z" />
<glyph unicode="#" horiz-adv-x="1603" d="M63 406l48 98h239l209 454h-240l48 99h237l172 377h109l-172 -377h463l174 377h108l-172 -377h260l-45 -99h-260l-207 -454h256l-47 -98h-254l-184 -406h-115l187 406h-459l-185 -406h-114l186 406h-242zM463 504h459l208 454h-460z" />
<glyph unicode="$" horiz-adv-x="1110" d="M76 375l110 31q14 -144 113 -235t264 -91q158 0 253 80.5t95 206.5q0 39 -11 73.5t-26.5 60t-45.5 50.5t-54 41.5t-67 36.5t-69 31t-75.5 30t-73.5 29q-148 61 -206 97q-177 108 -177 280q0 147 109 248t281 116v158h112v-158q159 -15 267.5 -112t136.5 -250l-111 -29 q-25 134 -119 211.5t-233 77.5q-143 0 -233.5 -71t-90.5 -189q0 -47 21 -86.5t55.5 -69t81.5 -54.5t97 -45.5t103 -40.5q10 -3 15 -5q166 -66 234 -108q187 -114 197 -297q1 -11 1 -23q0 -164 -115.5 -274t-306.5 -122v-157h-112v159q-178 18 -288 127t-132 273z" />
<glyph unicode="%" horiz-adv-x="1689" d="M31 1032q0 186 90.5 302t243.5 116t243 -116t90 -302t-90 -302t-243 -116t-243.5 116t-90.5 302zM123 1032q0 -145 65.5 -236t176.5 -91t176 91t65 236t-65 236.5t-176 91.5t-176.5 -91.5t-65.5 -236.5zM342 0l913 1434h91l-912 -1434h-92zM991 401q0 185 90.5 301.5 t243.5 116.5t243.5 -116.5t90.5 -301.5q0 -186 -90.5 -301.5t-243.5 -115.5t-243.5 115.5t-90.5 301.5zM1083 401q0 -145 65.5 -236t176.5 -91t176.5 91t65.5 236t-65.5 236.5t-176.5 91.5t-176.5 -91.5t-65.5 -236.5z" />
<glyph unicode="&#x26;" horiz-adv-x="1359" d="M90 387q0 78 26 144t70 109t98.5 69.5t114.5 33.5v2q-48 7 -94.5 31t-87.5 63t-66.5 100t-25.5 134q0 75 25 142.5t74.5 124t134.5 89.5t196 33q176 0 298.5 -100t158.5 -287l-105 -28q-36 157 -121.5 235t-230.5 78q-86 0 -150 -26.5t-98 -71t-49.5 -92t-15.5 -99.5 q0 -119 89 -198.5t251 -79.5h729v-99h-252v-202q0 -253 -117.5 -387t-374.5 -134q-214 0 -345.5 115t-131.5 301zM205 387q0 -138 101.5 -224.5t260.5 -86.5q206 0 292.5 103.5t86.5 312.5v202h-366q-172 0 -273.5 -79t-101.5 -228z" />
<glyph unicode="'" horiz-adv-x="485" d="M184 989v445h117v-445h-117z" />
<glyph unicode="(" horiz-adv-x="690" d="M96 719q0 839 482 1018l38 -107q-209 -76 -306 -299t-97 -612q0 -391 97 -615.5t306 -298.5l-38 -104q-482 175 -482 1018z" />
<glyph unicode=")" horiz-adv-x="694" d="M80 -195l39 -104q481 175 481 1018q0 840 -481 1018l-39 -107q209 -76 306 -299t97 -612q0 -391 -97 -615.5t-306 -298.5z" />
<glyph unicode="*" horiz-adv-x="997" d="M184 1161l25 78l248 -80v275h86l-6 -275l251 80l25 -78l-252 -76l160 -233l-68 -47l-153 235l-154 -235l-67 47l157 233z" />
<glyph unicode="+" d="M231 678v100h381v379h109v-379h383v-100h-383v-387h-109v387h-381z" />
<glyph unicode="," horiz-adv-x="405" d="M92 -272q40 44 69 109t29 128l19 8l-19 2q-31 -2 -54 21t-23 61q0 36 24.5 59t59.5 23q37 0 60.5 -29t23.5 -73q0 -85 -40.5 -169t-93.5 -140h-55z" />
<glyph unicode="-" horiz-adv-x="1243" d="M184 678v100h875v-100h-875z" />
<glyph unicode="." horiz-adv-x="405" d="M121 55q0 36 24 60t58 24t57 -24.5t23 -59.5t-23 -59.5t-57 -24.5q-35 0 -58.5 25t-23.5 59z" />
<glyph unicode="/" horiz-adv-x="866" d="M49 0l658 1434h110l-653 -1434h-115z" />
<glyph unicode="0" horiz-adv-x="1325" d="M90 717q0 157 38 292t109 236t180.5 159t244.5 58t244.5 -58t181 -159t109.5 -236t38 -292t-38 -292.5t-109.5 -236.5t-181 -159t-244.5 -58q-179 0 -310.5 100.5t-196.5 267.5t-65 378zM209 717q0 -181 49 -321.5t153 -226t251 -85.5q111 0 198.5 49t142.5 135t84 200.5 t29 248.5t-29 248.5t-84 200.5t-142.5 135t-198.5 49q-147 0 -251 -85.5t-153 -226t-49 -321.5z" />
<glyph unicode="1" horiz-adv-x="737" d="M90 1057l381 377h82v-1434h-117v1030q0 44 2 104.5t3.5 96t0.5 35.5h-2q-1 0 -17.5 -19t-41 -46t-39.5 -42l-176 -174z" />
<glyph unicode="2" horiz-adv-x="1077" d="M88 1100q50 175 172.5 268.5t302.5 93.5q195 0 319 -118.5t124 -307.5q0 -50 -10.5 -99t-23 -86t-41.5 -81.5t-46 -68.5t-58.5 -66.5t-56.5 -57t-62.5 -56.5t-56.5 -50q-399 -362 -403 -362l4 -3h5q5 1 15 1t23 0.5t31 1.5t38.5 1t47 0.5t53.5 0.5h534v-111h-905v92 q102 98 308 291.5t309 290.5q178 167 178 362q0 144 -91 232t-237 88t-237.5 -76t-126.5 -209z" />
<glyph unicode="3" horiz-adv-x="1132" d="M90 367l105 28q21 -140 125.5 -227.5t257.5 -87.5q165 0 255.5 92t90.5 234q0 139 -97.5 213.5t-263.5 74.5h-114v101h114q160 0 251 73.5t91 212.5q0 51 -18 98t-55.5 87.5t-103.5 65t-153 24.5q-144 0 -231 -74.5t-121 -210.5l-104 27q37 171 158.5 267.5t302.5 96.5 q112 0 199 -31.5t138.5 -85t78 -119t26.5 -139.5t-27 -137.5t-70.5 -105t-97 -66t-108.5 -28.5v-5q60 -3 116.5 -26.5t103.5 -64.5t75 -107.5t28 -147.5q0 -193 -130 -310.5t-332 -117.5q-191 0 -326.5 110t-163.5 286z" />
<glyph unicode="4" horiz-adv-x="1173" d="M90 389v84l733 961h88v-938h191v-107h-191v-389h-112v389h-709zM223 496l2 -2q4 0 44 0.5t96 1t96 0.5h338v467q0 32 0.5 65.5t1 61.5t1.5 53.5t2 45.5t1.5 34.5t0.5 22.5l1 9h-2q-1 0 -19 -26.5t-53.5 -75.5t-68.5 -92l-314 -410q-41 -52 -73.5 -91t-43 -51t-10.5 -13z " />
<glyph unicode="5" horiz-adv-x="1101" d="M86 373l107 28q27 -148 122.5 -236.5t247.5 -88.5q153 0 251.5 107t98.5 274t-98.5 274t-251.5 107q-242 0 -325 -201l-101 29l125 768h690v-111h-602l-47 -274q-12 -68 -25 -131.5t-20 -93.5l-6 -31l2 -5q35 55 118.5 101.5t192.5 46.5q201 0 333 -134t132 -345 q0 -212 -131.5 -349t-331.5 -137q-196 0 -321 109.5t-160 292.5z" />
<glyph unicode="6" horiz-adv-x="1124" d="M90 465q0 140 43 251.5t141 246.5l347 471h129l-457 -623l2 -2q102 137 297 137q208 0 339.5 -137t131.5 -346q0 -216 -137.5 -354t-350.5 -138q-212 0 -348.5 139.5t-136.5 354.5zM205 465q0 -176 103 -281.5t270 -105.5t268.5 106.5t103.5 280.5q2 170 -100.5 274.5 t-271.5 104.5q-168 0 -270.5 -105t-102.5 -274z" />
<glyph unicode="7" horiz-adv-x="1024" d="M61 1323v111h918v-78l-700 -1356h-123l594 1143q21 41 47 86t41 69l16 25l-2 4l-12 -1q-12 0 -31.5 -0.5t-43.5 -1t-53 -1t-55 -0.5h-596z" />
<glyph unicode="8" horiz-adv-x="1169" d="M90 389q0 84 31 154t80.5 114.5t107.5 71t117 31.5v4q-28 4 -62.5 17.5t-72.5 41t-69 63t-51.5 88.5t-20.5 113q0 162 121.5 268.5t312.5 106.5q194 0 315 -107t121 -268q0 -75 -30.5 -138t-76.5 -100.5t-90 -59t-80 -25.5v-4q59 -5 117 -31.5t107.5 -71t80.5 -114.5 t31 -154q0 -187 -136.5 -301.5t-358.5 -116.5q-222 2 -358 116.5t-136 301.5zM203 391q0 -146 103 -232.5t278 -86.5q177 0 280 86t103 233q0 142 -104 225.5t-279 83.5t-278 -83.5t-103 -225.5zM254 1085q0 -121 92 -195.5t238 -74.5q146 2 238.5 77t92.5 193 q0 127 -92 205t-239 78q-146 0 -238 -78t-92 -205z" />
<glyph unicode="9" horiz-adv-x="1140" d="M66 969q0 223 139 358t354 135q217 0 354.5 -132.5t137.5 -364.5q0 -139 -60 -273t-200 -313l-291 -379h-129l481 621l-2 2q-55 -66 -134.5 -102t-168.5 -36q-219 0 -350 137.5t-131 346.5zM178 967q0 -93 31 -166.5t84 -118.5t120.5 -68.5t143.5 -23.5q166 0 272.5 101 t106.5 276q0 191 -107.5 290t-271.5 99q-77 0 -144.5 -24.5t-120.5 -71.5t-83.5 -122.5t-30.5 -170.5z" />
<glyph unicode=":" horiz-adv-x="405" d="M121 55q0 36 24 60t58 24t57 -24.5t23 -59.5t-23 -59.5t-57 -24.5q-35 0 -58.5 25t-23.5 59zM121 702q0 36 24 60t58 24t57 -24.5t23 -59.5t-23 -59.5t-57 -24.5q-35 0 -58.5 25t-23.5 59z" />
<glyph unicode=";" horiz-adv-x="432" d="M123 -279q40 43 69 108.5t29 129.5l19 8l-19 2q-31 -2 -54.5 21t-23.5 61q0 36 24.5 59t59.5 23q37 0 60.5 -29t23.5 -73q0 -86 -40.5 -170t-92.5 -140h-55zM141 702q0 36 24 60t58 24t57 -24.5t23 -59.5t-23 -59.5t-57 -24.5q-35 0 -58.5 25t-23.5 59z" />
<glyph unicode="&#x3c;" d="M207 752l702 -500h162l-698 500l698 499h-162z" />
<glyph unicode="=" d="M231 500v100h873v-100h-873zM231 850v100h873v-100h-873z" />
<glyph unicode="&#x3e;" d="M225 252l699 500l-699 499h162l703 -499l-703 -500h-162z" />
<glyph unicode="?" horiz-adv-x="1085" d="M90 1098q36 173 160.5 268.5t306.5 95.5q111 0 196.5 -31.5t137.5 -86.5t78 -124t26 -149q0 -285 -422 -459v-137h-118v189q227 95 323 188.5t96 216.5q0 56 -17.5 105t-53.5 90.5t-100 65.5t-150 24q-294 0 -363 -283zM455 0v322h118v-322h-118z" />
<glyph unicode="@" horiz-adv-x="1515" d="M90 725q0 212 85.5 380.5t238 262.5t344.5 94q193 0 346 -94t238 -262.5t85 -380.5q0 -178 -67.5 -293t-185.5 -115q-75 0 -126 48.5t-55 136.5l-2 2q-28 -79 -103 -132t-161 -53q-153 0 -249.5 110t-96.5 284q0 186 95.5 301.5t252.5 115.5q59 0 109.5 -18t78.5 -43 t43.5 -46.5t16.5 -33.5h2v103h88v-564q0 -62 31 -100.5t80 -38.5q78 0 123 93.5t45 242.5q0 191 -75.5 342t-209.5 235t-303 84t-303 -84t-209.5 -235t-75.5 -342q0 -193 75 -348.5t209 -243.5t302 -88q56 0 106.5 6.5t88.5 18t68 24t54 28.5t38 27t27 23.5t15 13.5l66 -32 q-13 -20 -42.5 -45.5t-83.5 -59t-143 -56t-194 -22.5q-191 0 -344 98t-237.5 270t-84.5 386zM479 715q0 -139 72 -222t184 -83q108 0 175.5 76t68.5 204v131q1 103 -69 161t-175 58q-116 0 -186.5 -88.5t-69.5 -236.5z" />
<glyph unicode="A" horiz-adv-x="1341" d="M49 0l567 1434h109l567 -1434h-123l-161 418h-674l-162 -418h-123zM375 522h592l-238 613l-57 161h-2q-1 0 -8.5 -21.5t-22 -63.5t-27.5 -76z" />
<glyph unicode="B" horiz-adv-x="1198" d="M184 0v1434h443q182 0 289.5 -95.5t107.5 -251.5q0 -114 -78 -197.5t-168 -96.5v-5q38 -3 82 -19.5t89.5 -48t82 -73t59.5 -101t23 -126.5q0 -195 -121.5 -307.5t-330.5 -112.5h-478zM301 104h358q149 0 242.5 84.5t93.5 229.5q0 134 -101 223.5t-243 89.5h-350v-627z M301 829h315q129 0 211 72t82 180q0 114 -81 181t-216 67h-311v-500z" />
<glyph unicode="C" horiz-adv-x="1388" d="M90 717q0 168 49.5 308.5t136.5 236t207 148t260 52.5q193 0 343.5 -98t230.5 -274l-117 -31q-64 139 -184.5 215t-272.5 76q-238 0 -386 -171.5t-148 -461.5q0 -289 149.5 -460t384.5 -171q162 0 289.5 88.5t190.5 243.5l112 -33q-73 -195 -230.5 -304.5t-361.5 -109.5 q-140 0 -261 53.5t-207.5 150t-135.5 236.5t-49 306z" />
<glyph unicode="D" horiz-adv-x="1454" d="M184 0v1434h504q145 0 270 -52t214.5 -145.5t140.5 -229.5t51 -298q0 -213 -85.5 -375t-234.5 -248t-339 -86h-521zM301 111h408q236 0 386 161.5t150 436.5q0 142 -42 258.5t-116.5 194t-175.5 119.5t-219 42h-391v-1212z" />
<glyph unicode="E" horiz-adv-x="1142" d="M184 0v1434h838v-111h-721v-502h573v-108h-573v-602h733v-111h-850z" />
<glyph unicode="F" horiz-adv-x="1067" d="M184 0v1434h824v-111h-707v-543h559v-108h-559v-672h-117z" />
<glyph unicode="G" horiz-adv-x="1447" d="M90 717q0 168 49.5 308.5t137 236t207.5 148t259 52.5q201 -4 348 -101.5t226 -270.5l-117 -31q-64 139 -184.5 215t-272.5 76q-237 0 -385.5 -171.5t-148.5 -461.5q0 -145 40.5 -264t112.5 -199t171 -124t215 -44q92 0 175.5 27.5t143.5 72t101.5 95.5t60.5 102v246 h-404v102h506v-733h-102v67t0.5 53t0.5 40v29.5t0.5 19t0.5 11.5v3h-2q-24 -36 -63 -74t-99 -79.5t-146 -68t-180 -26.5q-139 0 -259 53.5t-206.5 149t-136 235.5t-49.5 306z" />
<glyph unicode="H" horiz-adv-x="1363" d="M184 0v1434h117v-629h760v629h117v-1434h-117v692h-760v-692h-117z" />
<glyph unicode="I" horiz-adv-x="485" d="M184 0v1434h117v-1434h-117z" />
<glyph unicode="J" horiz-adv-x="1210" d="M35 334l115 31q36 -134 139.5 -209.5t245.5 -75.5q201 0 305 116t104 328v910h119v-899q0 -267 -137.5 -416.5t-390.5 -149.5q-188 0 -321 99t-179 266z" />
<glyph unicode="K" horiz-adv-x="1271" d="M184 0v1434h117v-426q0 -86 -1 -178.5t-1.5 -116t0.5 -41.5h2q1 0 34.5 36.5t93.5 102.5t93 102l484 521h141l-541 -580l594 -854h-135l-535 772l-229 -246v-526h-117z" />
<glyph unicode="L" horiz-adv-x="1052" d="M184 0v1434h117v-1323h711v-111h-828z" />
<glyph unicode="M" horiz-adv-x="1540" d="M184 0v1434h111l346 -670q47 -86 78.5 -150.5t40.5 -85.5l8 -20h4l8 20q8 21 39 85.5t78 150.5l348 670h111v-1434h-115v694q0 115 3 252q4 138 6 214q2 55 1 71v6h-2q-1 0 -15 -28.5t-42 -87t-51 -105.5l-340 -651h-62l-340 651q-23 47 -51 105.5t-42 87t-15 28.5h-2v-6 q-1 -17 1 -71q2 -76 5.5 -213.5t3.5 -252.5v-694h-115z" />
<glyph unicode="N" horiz-adv-x="1400" d="M184 0v1434h109l653 -990q42 -60 82 -122t58.5 -91.5t19.5 -29.5h2q1 0 -1 47t-4.5 139t-2.5 176v871h117v-1434h-107l-655 993q-44 63 -84 125.5t-57.5 92.5t-18.5 30h-4q-1 0 1.5 -46t5.5 -139.5t3 -181.5v-874h-117z" />
<glyph unicode="O" horiz-adv-x="1488" d="M90 717q0 168 49.5 308.5t137 236t207.5 148t259 52.5q188 0 336.5 -91.5t234 -262t85.5 -391.5q0 -168 -50 -309t-138 -236t-208.5 -148t-259.5 -53q-140 0 -261 53.5t-207.5 150t-135.5 236.5t-49 306zM209 717q0 -291 149 -462t385 -171t385.5 172.5t149.5 460.5 q0 293 -149.5 463t-385.5 170q-237 0 -385.5 -171.5t-148.5 -461.5z" />
<glyph unicode="P" horiz-adv-x="1091" d="M184 0v1434h361q231 0 363 -120.5t132 -328.5q0 -209 -133 -328.5t-362 -119.5h-244v-537h-117zM301 647h244q179 0 277 91t98 247q0 162 -101 250t-274 88h-244v-676z" />
<glyph unicode="Q" horiz-adv-x="1488" d="M90 717q0 168 49.5 308.5t137 236t207.5 148t259 52.5q188 0 336.5 -91.5t234 -262t85.5 -391.5q0 -211 -78 -376.5t-212.5 -259t-305.5 -108.5v-243h-119v243q-263 24 -428.5 226.5t-165.5 517.5zM209 717q0 -291 149 -462t385 -171t385.5 172.5t149.5 460.5 q0 293 -149.5 463t-385.5 170q-237 0 -385.5 -171.5t-148.5 -461.5z" />
<glyph unicode="R" horiz-adv-x="1175" d="M184 0v1434h363q229 0 362 -120t133 -323q0 -150 -74.5 -254.5t-209.5 -150.5l327 -586h-131l-311 559q-46 -6 -98 -6h-244v-553h-117zM301 657h250q177 0 275 90.5t98 243.5q0 156 -100 244t-273 88h-250v-666z" />
<glyph unicode="S" horiz-adv-x="1110" d="M76 375l110 31q14 -144 113 -235t264 -91q158 0 253 80.5t95 206.5q0 39 -11 73.5t-26.5 60t-45.5 50.5t-54 41.5t-67 36.5t-69 31t-75.5 30t-73.5 29q-148 61 -206 97q-177 108 -177 280q0 160 126 263t321 103q180 0 304 -99t155 -265l-111 -29q-25 134 -119 211.5 t-233 77.5q-143 0 -233.5 -71t-90.5 -189q0 -47 21 -86.5t55.5 -69t81.5 -54.5t97 -45.5t103 -40.5q10 -3 15 -5q166 -66 234 -108q187 -114 197 -297q1 -11 1 -23q0 -174 -129.5 -286t-339.5 -112q-206 0 -333.5 112t-151.5 292z" />
<glyph unicode="T" horiz-adv-x="1112" d="M49 1323v111h1014v-111h-449v-1323h-116v1323h-449z" />
<glyph unicode="U" d="M147 535v899h117v-906q0 -222 101.5 -335t300.5 -113q201 0 302 113t101 335v906h117v-899q0 -276 -134.5 -421t-385.5 -145t-385 145t-134 421z" />
<glyph unicode="V" horiz-adv-x="1331" d="M49 1434h123l422 -1092q14 -40 31.5 -94t27.5 -85.5t11 -31.5h4q1 0 10.5 31.5t26.5 85t32 94.5l422 1092h123l-557 -1434h-119z" />
<glyph unicode="W" horiz-adv-x="1812" d="M57 1434h121l320 -1049q15 -54 28 -108t18.5 -78.5t6.5 -24.5h2q1 0 6 24.5t18 78.5t29 108l252 844h98l252 -844q16 -54 29.5 -108t18.5 -78.5t6 -24.5h2q1 0 6 24.5t18 78.5t29 108l317 1049h121l-440 -1434h-103l-229 788q-27 90 -45.5 162.5t-24 97.5t-6.5 25h-2 q-1 0 -6.5 -25.5t-23.5 -98t-44 -161.5l-231 -788h-102z" />
<glyph unicode="X" horiz-adv-x="1236" d="M37 0l510 750l-465 684h139l316 -469q9 -14 29.5 -48t34.5 -57.5t15 -23.5h2q1 0 15 23t35.5 58.5t29.5 47.5l318 469h139l-465 -684l510 -750h-141l-359 524q-17 25 -37.5 59t-32 54t-12.5 20h-2q-1 0 -12.5 -20t-31 -54t-35.5 -59l-361 -524h-139z" />
<glyph unicode="Y" horiz-adv-x="1200" d="M37 1434h131l346 -494q82 -133 86 -133h2q6 0 84 133l346 494h131l-506 -727v-707h-114v707z" />
<glyph unicode="Z" horiz-adv-x="1267" d="M113 0v106l817 1111q15 20 38.5 46t38.5 42.5t15 17.5l-4 2h-8q-9 0 -24 -0.5t-35 -1t-48.5 -0.5h-58.5h-711v111h1022v-107l-809 -1106q-22 -30 -45 -58t-34 -40.5t-11 -13.5l2 -3h8q9 1 24 1.5t34.5 1.5t47 1.5t54.5 0.5h729v-111h-1042z" />
<glyph unicode="[" horiz-adv-x="620" d="M184 -307v2060h367v-111h-246v-1839h246v-110h-367z" />
<glyph unicode="\" horiz-adv-x="866" d="M49 1434l653 -1434h115l-659 1434h-109z" />
<glyph unicode="]" horiz-adv-x="641" d="M90 -197v-110h367v2060h-367v-111h246v-1839h-246z" />
<glyph unicode="^" horiz-adv-x="1253" d="M184 977l443 483l442 -483l-63 -59l-379 417l-377 -417z" />
<glyph unicode="_" horiz-adv-x="1441" d="M184 0h1073v-94h-1073v94z" />
<glyph unicode="`" horiz-adv-x="620" d="M88 1733l49 84l387 -228l-43 -71z" />
<glyph unicode="a" horiz-adv-x="1341" d="M49 0l567 1434h109l567 -1434h-123l-161 418h-674l-162 -418h-123zM375 522h592l-238 613l-57 161h-2q-1 0 -8.5 -21.5t-22 -63.5t-27.5 -76z" />
<glyph unicode="b" horiz-adv-x="1198" d="M184 0v1434h443q182 0 289.5 -95.5t107.5 -251.5q0 -114 -78 -197.5t-168 -96.5v-5q38 -3 82 -19.5t89.5 -48t82 -73t59.5 -101t23 -126.5q0 -195 -121.5 -307.5t-330.5 -112.5h-478zM301 104h358q149 0 242.5 84.5t93.5 229.5q0 134 -101 223.5t-243 89.5h-350v-627z M301 829h315q129 0 211 72t82 180q0 114 -81 181t-216 67h-311v-500z" />
<glyph unicode="c" horiz-adv-x="1388" d="M90 717q0 168 49.5 308.5t136.5 236t207 148t260 52.5q193 0 343.5 -98t230.5 -274l-117 -31q-64 139 -184.5 215t-272.5 76q-238 0 -386 -171.5t-148 -461.5q0 -289 149.5 -460t384.5 -171q162 0 289.5 88.5t190.5 243.5l112 -33q-73 -195 -230.5 -304.5t-361.5 -109.5 q-140 0 -261 53.5t-207.5 150t-135.5 236.5t-49 306z" />
<glyph unicode="d" horiz-adv-x="1454" d="M184 0v1434h504q145 0 270 -52t214.5 -145.5t140.5 -229.5t51 -298q0 -213 -85.5 -375t-234.5 -248t-339 -86h-521zM301 111h408q236 0 386 161.5t150 436.5q0 142 -42 258.5t-116.5 194t-175.5 119.5t-219 42h-391v-1212z" />
<glyph unicode="e" horiz-adv-x="1142" d="M184 0v1434h838v-111h-721v-502h573v-108h-573v-602h733v-111h-850z" />
<glyph unicode="f" horiz-adv-x="1067" d="M184 0v1434h824v-111h-707v-543h559v-108h-559v-672h-117z" />
<glyph unicode="g" horiz-adv-x="1447" d="M90 717q0 168 49.5 308.5t137 236t207.5 148t259 52.5q201 -4 348 -101.5t226 -270.5l-117 -31q-64 139 -184.5 215t-272.5 76q-237 0 -385.5 -171.5t-148.5 -461.5q0 -145 40.5 -264t112.5 -199t171 -124t215 -44q92 0 175.5 27.5t143.5 72t101.5 95.5t60.5 102v246 h-404v102h506v-733h-102v67t0.5 53t0.5 40v29.5t0.5 19t0.5 11.5v3h-2q-24 -36 -63 -74t-99 -79.5t-146 -68t-180 -26.5q-139 0 -259 53.5t-206.5 149t-136 235.5t-49.5 306z" />
<glyph unicode="h" horiz-adv-x="1363" d="M184 0v1434h117v-629h760v629h117v-1434h-117v692h-760v-692h-117z" />
<glyph unicode="i" horiz-adv-x="485" d="M184 0v1434h117v-1434h-117z" />
<glyph unicode="j" horiz-adv-x="1210" d="M35 334l115 31q36 -134 139.5 -209.5t245.5 -75.5q201 0 305 116t104 328v910h119v-899q0 -267 -137.5 -416.5t-390.5 -149.5q-188 0 -321 99t-179 266z" />
<glyph unicode="k" horiz-adv-x="1271" d="M184 0v1434h117v-426q0 -86 -1 -178.5t-1.5 -116t0.5 -41.5h2q1 0 34.5 36.5t93.5 102.5t93 102l484 521h141l-541 -580l594 -854h-135l-535 772l-229 -246v-526h-117z" />
<glyph unicode="l" horiz-adv-x="1052" d="M184 0v1434h117v-1323h711v-111h-828z" />
<glyph unicode="m" horiz-adv-x="1540" d="M184 0v1434h111l346 -670q47 -86 78.5 -150.5t40.5 -85.5l8 -20h4l8 20q8 21 39 85.5t78 150.5l348 670h111v-1434h-115v694q0 115 3 252q4 138 6 214q2 55 1 71v6h-2q-1 0 -15 -28.5t-42 -87t-51 -105.5l-340 -651h-62l-340 651q-23 47 -51 105.5t-42 87t-15 28.5h-2v-6 q-1 -17 1 -71q2 -76 5.5 -213.5t3.5 -252.5v-694h-115z" />
<glyph unicode="n" horiz-adv-x="1400" d="M184 0v1434h109l653 -990q42 -60 82 -122t58.5 -91.5t19.5 -29.5h2q1 0 -1 47t-4.5 139t-2.5 176v871h117v-1434h-107l-655 993q-44 63 -84 125.5t-57.5 92.5t-18.5 30h-4q-1 0 1.5 -46t5.5 -139.5t3 -181.5v-874h-117z" />
<glyph unicode="o" horiz-adv-x="1488" d="M90 717q0 168 49.5 308.5t137 236t207.5 148t259 52.5q188 0 336.5 -91.5t234 -262t85.5 -391.5q0 -168 -50 -309t-138 -236t-208.5 -148t-259.5 -53q-140 0 -261 53.5t-207.5 150t-135.5 236.5t-49 306zM209 717q0 -291 149 -462t385 -171t385.5 172.5t149.5 460.5 q0 293 -149.5 463t-385.5 170q-237 0 -385.5 -171.5t-148.5 -461.5z" />
<glyph unicode="p" horiz-adv-x="1091" d="M184 0v1434h361q231 0 363 -120.5t132 -328.5q0 -209 -133 -328.5t-362 -119.5h-244v-537h-117zM301 647h244q179 0 277 91t98 247q0 162 -101 250t-274 88h-244v-676z" />
<glyph unicode="q" horiz-adv-x="1488" d="M90 717q0 168 49.5 308.5t137 236t207.5 148t259 52.5q188 0 336.5 -91.5t234 -262t85.5 -391.5q0 -211 -78 -376.5t-212.5 -259t-305.5 -108.5v-243h-119v243q-263 24 -428.5 226.5t-165.5 517.5zM209 717q0 -291 149 -462t385 -171t385.5 172.5t149.5 460.5 q0 293 -149.5 463t-385.5 170q-237 0 -385.5 -171.5t-148.5 -461.5z" />
<glyph unicode="r" horiz-adv-x="1175" d="M184 0v1434h363q229 0 362 -120t133 -323q0 -150 -74.5 -254.5t-209.5 -150.5l327 -586h-131l-311 559q-46 -6 -98 -6h-244v-553h-117zM301 657h250q177 0 275 90.5t98 243.5q0 156 -100 244t-273 88h-250v-666z" />
<glyph unicode="s" horiz-adv-x="1110" d="M76 375l110 31q14 -144 113 -235t264 -91q158 0 253 80.5t95 206.5q0 39 -11 73.5t-26.5 60t-45.5 50.5t-54 41.5t-67 36.5t-69 31t-75.5 30t-73.5 29q-148 61 -206 97q-177 108 -177 280q0 160 126 263t321 103q180 0 304 -99t155 -265l-111 -29q-25 134 -119 211.5 t-233 77.5q-143 0 -233.5 -71t-90.5 -189q0 -47 21 -86.5t55.5 -69t81.5 -54.5t97 -45.5t103 -40.5q10 -3 15 -5q166 -66 234 -108q187 -114 197 -297q1 -11 1 -23q0 -174 -129.5 -286t-339.5 -112q-206 0 -333.5 112t-151.5 292z" />
<glyph unicode="t" horiz-adv-x="1112" d="M49 1323v111h1014v-111h-449v-1323h-116v1323h-449z" />
<glyph unicode="u" d="M147 535v899h117v-906q0 -222 101.5 -335t300.5 -113q201 0 302 113t101 335v906h117v-899q0 -276 -134.5 -421t-385.5 -145t-385 145t-134 421z" />
<glyph unicode="v" horiz-adv-x="1331" d="M49 1434h123l422 -1092q14 -40 31.5 -94t27.5 -85.5t11 -31.5h4q1 0 10.5 31.5t26.5 85t32 94.5l422 1092h123l-557 -1434h-119z" />
<glyph unicode="w" horiz-adv-x="1812" d="M57 1434h121l320 -1049q15 -54 28 -108t18.5 -78.5t6.5 -24.5h2q1 0 6 24.5t18 78.5t29 108l252 844h98l252 -844q16 -54 29.5 -108t18.5 -78.5t6 -24.5h2q1 0 6 24.5t18 78.5t29 108l317 1049h121l-440 -1434h-103l-229 788q-27 90 -45.5 162.5t-24 97.5t-6.5 25h-2 q-1 0 -6.5 -25.5t-23.5 -98t-44 -161.5l-231 -788h-102z" />
<glyph unicode="x" horiz-adv-x="1236" d="M37 0l510 750l-465 684h139l316 -469q9 -14 29.5 -48t34.5 -57.5t15 -23.5h2q1 0 15 23t35.5 58.5t29.5 47.5l318 469h139l-465 -684l510 -750h-141l-359 524q-17 25 -37.5 59t-32 54t-12.5 20h-2q-1 0 -12.5 -20t-31 -54t-35.5 -59l-361 -524h-139z" />
<glyph unicode="y" horiz-adv-x="1200" d="M37 1434h131l346 -494q82 -133 86 -133h2q6 0 84 133l346 494h131l-506 -727v-707h-114v707z" />
<glyph unicode="z" horiz-adv-x="1267" d="M113 0v106l817 1111q15 20 38.5 46t38.5 42.5t15 17.5l-4 2h-8q-9 0 -24 -0.5t-35 -1t-48.5 -0.5h-58.5h-711v111h1022v-107l-809 -1106q-22 -30 -45 -58t-34 -40.5t-11 -13.5l2 -3h8q9 1 24 1.5t34.5 1.5t47 1.5t54.5 0.5h729v-111h-1042z" />
<glyph unicode="{" horiz-adv-x="716" d="M184 721q5 2 14 6.5t32 26.5t40.5 53t32 92t14.5 137v271q0 230 94 341t269 111v-110q-246 0 -246 -328v-272q0 -249 -110 -328q8 -5 17 -12t27.5 -32t31.5 -57.5t23.5 -92.5t10.5 -134v-272q0 -328 246 -328v-110q-175 0 -269 111t-94 341v271q0 76 -13.5 136.5 t-33.5 92.5t-39.5 53t-32.5 27z" />
<glyph unicode="|" horiz-adv-x="471" d="M184 -152v1739h103v-1739h-103z" />
<glyph unicode="}" horiz-adv-x="722" d="M43 -207v-110q175 0 269 111t94 341v271q0 76 13.5 136.5t33 92.5t39.5 53t34 27l13 6q-5 2 -14 6.5t-32 26.5t-40.5 53t-32 92t-14.5 137v271q0 230 -94 341t-269 111v-110q246 0 246 -328v-272q0 -249 110 -328q-8 -5 -17 -12t-27.5 -32t-31.5 -57.5t-23.5 -92.5 t-10.5 -134v-272q0 -328 -246 -328z" />
<glyph unicode="~" d="M262 657q13 89 78 140t156 51q54 -1 104.5 -25t82.5 -52t73.5 -52t79.5 -25q60 0 98 35t43 90l100 -26q-12 -89 -76 -140t-155 -51q-52 1 -102.5 24.5t-83.5 51.5t-75 51.5t-81 24.5q-61 0 -98.5 -33.5t-45.5 -89.5z" />
<glyph unicode="&#xa1;" horiz-adv-x="485" d="M184 0v958h117v-958h-117zM184 1112v322h117v-322h-117z" />
<glyph unicode="&#xa2;" horiz-adv-x="1034" d="M90 719q0 223 116 366t298 164v213h98v-213q125 -12 221.5 -84t145.5 -190l-101 -27q-44 99 -125 151t-188 52q-162 0 -259 -115t-97 -317t97.5 -317t258.5 -115q115 0 201 59t127 170l98 -27q-46 -131 -146 -211t-233 -92v-215h-96v215q-184 19 -300 164.5t-116 368.5z " />
<glyph unicode="&#xa3;" horiz-adv-x="1255" d="M184 0v111q88 19 131.5 78t47 149.5t-6.5 212.5l-12 137h-139v100h131l-21 222q-17 199 91 323t292 129q72 2 137 -16.5t125 -59.5t107 -115t72 -175l-103 -27q-44 151 -128 221.5t-212 65.5q-133 -5 -206 -97.5t-60 -252.5l21 -218h462v-100h-454l12 -135 q35 -375 -119 -447l2 -2h12q13 1 35 1.5t51.5 1.5t68 1.5t79 1t88.5 1t94 0.5h375v-111h-973z" />
<glyph unicode="&#xa4;" horiz-adv-x="1253" d="M92 213l152 152q-109 144 -109 333q0 208 123 357l-143 141l65 66l144 -142q132 113 303 113q170 0 303 -111l143 140l64 -66l-142 -141q123 -146 123 -357q0 -193 -106 -336l149 -149l-65 -66l-146 148q-139 -129 -323 -129q-183 0 -324 131l-147 -150zM246 700 q0 -184 109 -305t272 -121q165 0 274 121t109 305t-109 305t-274 121q-163 0 -272 -121t-109 -305z" />
<glyph unicode="&#xa5;" horiz-adv-x="1200" d="M37 1434h131l346 -494q82 -133 86 -133h2q6 0 84 133l346 494h131l-409 -588h305v-90h-367l-35 -49v-41h402v-91h-402v-575h-114v575h-391v91h391v41l-35 49h-356v90h294z" />
<glyph unicode="&#xa6;" horiz-adv-x="471" d="M184 -152v594h103v-594h-103zM184 1014v573h103v-573h-103z" />
<glyph unicode="&#xa7;" horiz-adv-x="980" d="M76 266l98 27q11 -105 94 -171.5t226 -66.5q133 0 215 54t82 141q0 22 -6 41.5t-14.5 35.5t-25.5 31.5t-31 27t-40 24.5t-42.5 21t-48 19.5t-49 17.5t-52.5 17.5t-50 16.5q-140 46 -189 70q-150 76 -151 198q0 82 62 142.5t168 88.5q-88 36 -140.5 86.5t-52.5 129.5 q0 109 106 180t267 71q148 0 251.5 -70t129.5 -186l-103 -26q-17 91 -91.5 142.5t-188.5 51.5q-117 0 -189.5 -43.5t-72.5 -117.5q0 -81 119 -132q38 -17 184 -61q40 -13 55 -18.5t53 -19.5t55.5 -22.5t50 -25.5t48.5 -31t37.5 -34.5t32 -41.5t18.5 -48t8 -56 q0 -83 -56.5 -139.5t-158.5 -81.5q215 -95 215 -254q0 -127 -112 -208t-295 -81q-179 0 -288.5 84.5t-127.5 216.5zM193 772q0 -31 17.5 -58t45.5 -46t67.5 -36t80.5 -30t86 -26q22 -6 32 -9q11 -3 66 -22q90 18 148.5 66t58.5 114q0 26 -9 49.5t-21.5 40.5t-38 34 t-44.5 27.5t-55 24t-57 20t-63 19t-61 18.5q-1 0 -3.5 1.5t-4.5 1.5q-42 -6 -82 -19t-78 -35t-61.5 -57t-23.5 -78z" />
<glyph unicode="&#xa8;" horiz-adv-x="765" d="M92 1649q0 37 23 61.5t57 24.5t57 -24.5t23 -61.5t-23 -61.5t-57 -24.5t-57 24.5t-23 61.5zM506 1649q0 37 23 61.5t57 24.5q35 0 57.5 -24.5t22.5 -61.5t-22.5 -61.5t-57.5 -24.5q-34 0 -57 24.5t-23 61.5z" />
<glyph unicode="&#xa9;" horiz-adv-x="1542" d="M90 717q0 215 90 386t245 265t345 94q143 0 269 -55.5t217.5 -152.5t144.5 -236.5t53 -300.5t-53 -300.5t-144.5 -237t-217.5 -153t-269 -55.5q-142 0 -267.5 55.5t-216.5 153t-143.5 237t-52.5 300.5zM184 717q0 -293 165 -474.5t421 -181.5t422 181.5t166 474.5 q0 147 -44.5 270.5t-122.5 208t-186.5 131.5t-234.5 47t-234 -47t-186 -131.5t-122 -208t-44 -270.5zM451 715q0 167 90.5 269.5t234.5 102.5q97 0 178 -54t115 -142l-80 -25q-26 68 -83.5 106t-129.5 38q-108 0 -174.5 -80t-66.5 -215q0 -137 66.5 -216t174.5 -79 q76 0 136.5 44t86.5 120l78 -25q-30 -99 -114.5 -159t-186.5 -60q-145 0 -235 104t-90 271z" />
<glyph unicode="&#xaa;" horiz-adv-x="663" d="M41 545v86h582v-86h-582zM47 768l250 682h68l251 -682h-92l-61 174h-264l-62 -174h-90zM223 1014h215l-71 200q-9 26 -17.5 60.5t-12.5 55t-5 20.5h-2q-1 0 -5 -20.5t-12.5 -55t-17.5 -60.5z" />
<glyph unicode="&#xab;" horiz-adv-x="1382" d="M184 721l432 -477l74 63l-377 414l377 412l-74 65zM692 721l432 -477l74 63l-377 414l377 412l-74 65z" />
<glyph unicode="&#xad;" horiz-adv-x="1232" d="M184 678v100h875v-100h-875z" />
<glyph unicode="&#xae;" horiz-adv-x="1542" d="M90 717q0 215 90 386t245 265t345 94q143 0 269 -55.5t217.5 -152.5t144.5 -236.5t53 -300.5t-53 -300.5t-144.5 -237t-217.5 -153t-269 -55.5q-142 0 -267.5 55.5t-216.5 153t-143.5 237t-52.5 300.5zM184 717q0 -194 76.5 -344t209.5 -231t300 -81q256 0 422 181.5 t166 474.5q0 147 -44.5 270.5t-122.5 208t-186.5 131.5t-234.5 47q-125 0 -233 -47t-186 -131.5t-122.5 -208t-44.5 -270.5zM565 342v750h203q120 0 191 -62t71 -168q0 -77 -38 -131.5t-105 -79.5l174 -309h-90l-164 293q-12 -2 -39 -2h-121v-291h-82zM647 705h123 q180 0 180 155q0 76 -45.5 116t-134.5 40h-123v-311z" />
<glyph unicode="&#xaf;" horiz-adv-x="757" d="M80 1430v94h590v-94h-590z" />
<glyph unicode="&#xb0;" horiz-adv-x="557" d="M82 1417q0 85 57 142t140 57q82 0 140 -57.5t58 -141.5q0 -83 -58 -140.5t-140 -57.5q-83 0 -140 57.5t-57 140.5zM160 1417q0 -51 35 -87t84 -36q50 0 85 36t35 87q0 53 -35 88t-85 35t-84.5 -35t-34.5 -88z" />
<glyph unicode="&#xb1;" d="M231 -20v100h873v-100h-873zM231 678v100h381v379h109v-379h383v-100h-383v-361h-109v361h-381z" />
<glyph unicode="&#xb2;" horiz-adv-x="618" d="M39 1554q25 105 96.5 166.5t179.5 61.5q111 0 187 -71t76 -177q0 -138 -148 -270q-131 -118 -182 -162q-23 -19 -48 -35t-37.5 -23t-12.5 -8l2 -2q2 0 30.5 3t72.5 6.5t83 3.5h231v-84h-520v63l316 283q124 116 124 223q0 73 -49.5 119.5t-124.5 46.5q-83 0 -127 -40 t-67 -124z" />
<glyph unicode="&#xb3;" horiz-adv-x="622" d="M37 1184l82 20q4 -79 59 -127.5t139 -48.5t131.5 45.5t47.5 118.5q0 69 -51.5 110t-135.5 41h-71v72h71q78 0 128 43t50 107q0 56 -43.5 96.5t-128.5 40.5q-149 0 -184 -160l-80 23q17 99 89.5 158t174.5 59q123 0 190.5 -61t67.5 -154q0 -79 -54 -130.5t-122 -54.5v-2 q74 -7 129.5 -55.5t55.5 -134.5q0 -107 -74.5 -175.5t-190.5 -68.5q-113 0 -192 69.5t-88 168.5z" />
<glyph unicode="&#xb4;" horiz-adv-x="620" d="M88 1589l387 228l49 -84l-393 -215z" />
<glyph unicode="&#xb6;" horiz-adv-x="1146" d="M90 1079q0 166 108.5 260.5t301.5 94.5h463v-1434h-117v1321h-160v-1321h-113v725h-73q-194 0 -302 93.5t-108 260.5z" />
<glyph unicode="&#xb7;" horiz-adv-x="405" d="M121 702q0 36 24 60t58 24t57 -24.5t23 -59.5t-23 -59.5t-57 -24.5q-35 0 -58.5 25t-23.5 59z" />
<glyph unicode="&#xb8;" horiz-adv-x="501" d="M90 -461l31 76h86q54 0 87.5 28.5t33.5 75.5q0 50 -33.5 80.5t-87.5 30.5h-105l62 170h80l-37 -98q88 2 143.5 -49t55.5 -134t-55.5 -131.5t-143.5 -48.5h-117z" />
<glyph unicode="&#xb9;" horiz-adv-x="401" d="M31 1548l225 217h61v-802h-90v507q0 17 1.5 41.5t3.5 48t3.5 45t2.5 35.5l2 13h-2q-1 0 -8.5 -10.5t-21.5 -27.5t-28 -30l-92 -90z" />
<glyph unicode="&#xba;" horiz-adv-x="681" d="M20 1106q0 158 91 257t229 99t230 -99.5t92 -256.5q0 -158 -92 -257t-230 -99t-229 99.5t-91 256.5zM43 545v86h600v-86h-600zM106 1106q0 -123 65.5 -197.5t168.5 -74.5t169 75.5t66 196.5q0 123 -66 197.5t-169 74.5t-168.5 -75t-65.5 -197z" />
<glyph unicode="&#xbb;" horiz-adv-x="1382" d="M184 307l377 414l-377 412l74 65l432 -477l-432 -477zM694 307l375 414l-375 412l72 65l432 -477l-432 -477z" />
<glyph unicode="&#xbc;" horiz-adv-x="1261" d="M31 1217l225 217h61v-803h-90v508q0 17 1.5 41.5t3.5 48t3.5 44.5l2.5 35l2 13h-2q-1 0 -8.5 -10.5t-21.5 -27.5t-28 -30l-92 -90zM102 0l914 1434h90l-911 -1434h-93zM643 209v63l408 531h65v-514h105v-80h-105v-209h-84v209h-389zM735 287l2 -2q1 0 8.5 0.5t20.5 1 t29 1t37 1t42 0.5h158v180q0 29 1 61t2.5 57t3 45t2.5 32l1 12h-2q-1 0 -18.5 -27t-47.5 -71.5t-56 -77.5l-91 -113q-16 -21 -39.5 -45.5t-38 -39t-14.5 -15.5z" />
<glyph unicode="&#xbd;" horiz-adv-x="1347" d="M31 1217l225 217h61v-803h-90v508q0 17 1.5 41.5t3.5 48t3.5 44.5l2.5 35l2 13h-2q-1 0 -8.5 -10.5t-21.5 -27.5t-28 -30l-92 -90zM102 0l914 1434h90l-911 -1434h-93zM768 592q25 105 96.5 166t179.5 61q111 0 187 -71t76 -177q0 -138 -148 -270q-131 -118 -182 -162 q-23 -19 -48 -35t-37.5 -22.5t-12.5 -7.5l2 -2q2 0 30.5 3t72.5 6t83 3h231v-84h-520v63l316 283q125 117 125 223q0 73 -49.5 119.5t-125.5 46.5q-83 0 -127 -40t-67 -124z" />
<glyph unicode="&#xbe;" horiz-adv-x="1419" d="M37 852l82 20q4 -79 59 -127.5t139 -48.5t131.5 45.5t47.5 118.5q0 69 -51.5 110.5t-135.5 41.5h-71v71h71q78 0 128 43t50 107q0 56 -43.5 96.5t-128.5 40.5q-149 0 -184 -160l-80 23q17 99 89.5 158t174.5 59q123 0 190.5 -61t67.5 -154q0 -79 -54 -130t-122 -54v-2 q74 -7 129.5 -56t55.5 -135q0 -107 -74.5 -175.5t-190.5 -68.5q-113 0 -192 69.5t-88 168.5zM258 0l913 1434h93l-914 -1434h-92zM801 209v63l407 531h66v-514h104v-80h-104v-209h-84v209h-389zM893 287l2 -2q1 0 8.5 0.5t20.5 1t29 1t37 1t42 0.5h158v180q0 29 1 61t2.5 57 t3 45t2.5 32l1 12h-2q-1 0 -18.5 -27t-48 -71.5t-56.5 -77.5l-90 -113q-16 -21 -39.5 -45.5t-38 -39t-14.5 -15.5z" />
<glyph unicode="&#xbf;" horiz-adv-x="1085" d="M90 362q0 285 422 459v137h119v-188q-227 -95 -323.5 -188.5t-96.5 -216.5q0 -56 17.5 -105t53.5 -90.5t100 -65.5t150 -24q294 0 363 282l100 -26q-36 -173 -160.5 -269t-306.5 -96q-111 0 -196.5 31.5t-137.5 86.5t-78 124t-26 149zM512 1112v322h119v-322h-119z" />
<glyph unicode="&#xc0;" horiz-adv-x="1341" d="M49 0l567 1434h109l567 -1434h-123l-161 418h-674l-162 -418h-123zM375 522h592l-238 613l-57 161h-2q-1 0 -8.5 -21.5t-22 -63.5t-27.5 -76zM375 1733l49 84l387 -228l-43 -71z" />
<glyph unicode="&#xc1;" horiz-adv-x="1341" d="M49 0l567 1434h109l567 -1434h-123l-161 418h-674l-162 -418h-123zM375 522h592l-238 613l-57 161h-2q-1 0 -8.5 -21.5t-22 -63.5t-27.5 -76zM506 1589l387 228l49 -84l-393 -215z" />
<glyph unicode="&#xc2;" horiz-adv-x="1341" d="M49 0l567 1434h109l567 -1434h-123l-161 418h-674l-162 -418h-123zM375 522h592l-238 613l-57 161h-2q-1 0 -8.5 -21.5t-22 -63.5t-27.5 -76zM375 1595l295 269l295 -269l-64 -63l-231 211l-230 -211z" />
<glyph unicode="&#xc3;" horiz-adv-x="1341" d="M49 0l567 1434h109l567 -1434h-123l-161 418h-674l-162 -418h-123zM354 1577q-2 78 52 130t137 52q40 0 77.5 -18t61.5 -39t54.5 -39t58.5 -18q42 0 69 28t29 70h94q2 -78 -51.5 -130t-136.5 -52q-38 0 -74.5 18t-61 39t-56 39t-60.5 18q-44 0 -71 -27.5t-27 -70.5h-95z M375 522h592l-238 613l-57 161h-2q-1 0 -8.5 -21.5t-22 -63.5t-27.5 -76z" />
<glyph unicode="&#xc4;" horiz-adv-x="1341" d="M49 0l567 1434h109l567 -1434h-123l-161 418h-674l-162 -418h-123zM375 522h592l-238 613l-57 161h-2q-1 0 -8.5 -21.5t-22 -63.5t-27.5 -76zM381 1649q0 37 23.5 61.5t58.5 24.5q34 0 57 -24.5t23 -61.5t-23 -61.5t-57 -24.5q-35 0 -58.5 24.5t-23.5 61.5zM795 1649 q0 36 24 61t58 25t56.5 -24.5t22.5 -61.5t-22.5 -61.5t-56.5 -24.5t-58 25t-24 61z" />
<glyph unicode="&#xc5;" horiz-adv-x="1341" d="M49 0l565 1427q-62 19 -100.5 71.5t-38.5 119.5q0 85 57 142t140 57q82 0 140 -57.5t58 -141.5q0 -67 -40.5 -119.5t-102.5 -71.5l565 -1427h-123l-161 418h-674l-162 -418h-123zM375 522h592l-238 613l-57 161h-2q-1 0 -8.5 -21.5t-22 -63.5t-27.5 -76zM553 1620 q0 -51 35 -87t84 -36q50 0 85.5 36t35.5 87q0 52 -35.5 86.5t-85.5 34.5t-84.5 -34.5t-34.5 -86.5z" />
<glyph unicode="&#xc6;" horiz-adv-x="1816" d="M49 0l584 1434h1065v-111h-725v-502h579v-108h-579v-602h737v-111h-852v418h-516l-168 -418h-125zM385 522h473v801h-156q-5 0 -104 -270z" />
<glyph unicode="&#xc7;" horiz-adv-x="1388" d="M90 717q0 168 49.5 308.5t136.5 236t207 148t260 52.5q193 0 343.5 -98t230.5 -274l-117 -31q-64 139 -184.5 215t-272.5 76q-238 0 -386 -171.5t-148 -461.5q0 -289 149.5 -460t384.5 -171q162 0 289.5 88.5t190.5 243.5l112 -33q-72 -191 -224 -300t-351 -114l-27 -69 q88 2 143.5 -49t55.5 -134t-55.5 -131.5t-143.5 -48.5h-117l31 76h86q54 0 87.5 28.5t33.5 75.5q0 50 -33.5 80.5t-87.5 30.5h-104l51 143q-262 24 -426 226.5t-164 517.5z" />
<glyph unicode="&#xc8;" horiz-adv-x="1142" d="M184 0v1434h838v-111h-721v-502h573v-108h-573v-602h733v-111h-850zM315 1733l50 84l387 -228l-43 -71z" />
<glyph unicode="&#xc9;" horiz-adv-x="1142" d="M184 0v1434h838v-111h-721v-502h573v-108h-573v-602h733v-111h-850zM446 1589l388 228l49 -84l-394 -215z" />
<glyph unicode="&#xca;" horiz-adv-x="1142" d="M184 0v1434h838v-111h-721v-502h573v-108h-573v-602h733v-111h-850zM315 1595l295 269l295 -269l-63 -63l-232 211l-229 -211z" />
<glyph unicode="&#xcb;" horiz-adv-x="1142" d="M184 0v1434h838v-111h-721v-502h573v-108h-573v-602h733v-111h-850zM322 1649q0 37 23 61.5t58 24.5q34 0 57 -24.5t23 -61.5t-23 -61.5t-57 -24.5q-35 0 -58 24.5t-23 61.5zM735 1649q0 36 24 61t58 25t57 -24.5t23 -61.5t-23 -61.5t-57 -24.5t-58 25t-24 61z" />
<glyph unicode="&#xcc;" horiz-adv-x="485" d="M-55 1733l49 84l387 -228l-43 -71zM184 0v1434h117v-1434h-117z" />
<glyph unicode="&#xcd;" horiz-adv-x="485" d="M76 1589l387 228l49 -84l-393 -215zM184 0v1434h117v-1434h-117z" />
<glyph unicode="&#xce;" horiz-adv-x="485" d="M-55 1595l295 269l295 -269l-64 -63l-231 211l-230 -211zM184 0v1434h117v-1434h-117z" />
<glyph unicode="&#xcf;" horiz-adv-x="485" d="M-49 1649q0 37 23.5 61.5t58.5 24.5q34 0 57 -24.5t23 -61.5t-23 -61.5t-57 -24.5q-35 0 -58.5 24.5t-23.5 61.5zM184 0v1434h117v-1434h-117zM365 1649q0 37 23.5 61.5t57.5 24.5t57 -24.5t23 -61.5t-23 -61.5t-57 -24.5t-57.5 24.5t-23.5 61.5z" />
<glyph unicode="&#xd0;" horiz-adv-x="1464" d="M90 678v108h103v648h503q145 0 270 -52t214.5 -145.5t140.5 -229.5t51 -298q0 -213 -85.5 -375t-234.5 -248t-339 -86h-520v678h-103zM309 111h408q236 0 386 161.5t150 436.5q0 142 -42 258.5t-116.5 194t-175.5 119.5t-219 42h-391v-537h353v-108h-353v-567z" />
<glyph unicode="&#xd1;" horiz-adv-x="1400" d="M184 0v1434h109l653 -990q42 -60 82 -122t58.5 -91.5t19.5 -29.5h2q1 0 -1 47t-4.5 139t-2.5 176v871h117v-1434h-107l-655 993q-44 63 -84 125.5t-57.5 92.5t-18.5 30h-4q-1 0 1.5 -46t5.5 -139.5t3 -181.5v-874h-117zM385 1577q-2 78 51.5 130t136.5 52q40 0 77.5 -18 t61.5 -39t54.5 -39t58.5 -18q42 0 69.5 28t29.5 70h94q2 -78 -52 -130t-137 -52q-38 0 -74.5 18t-60.5 39t-55.5 39t-60.5 18q-44 0 -71.5 -27.5t-27.5 -70.5h-94z" />
<glyph unicode="&#xd2;" horiz-adv-x="1488" d="M90 717q0 168 49.5 308.5t137 236t207.5 148t259 52.5q188 0 336.5 -91.5t234 -262t85.5 -391.5q0 -168 -50 -309t-138 -236t-208.5 -148t-259.5 -53q-140 0 -261 53.5t-207.5 150t-135.5 236.5t-49 306zM209 717q0 -291 149 -462t385 -171t385.5 172.5t149.5 460.5 q0 293 -149.5 463t-385.5 170q-237 0 -385.5 -171.5t-148.5 -461.5zM455 1733l49 84l387 -228l-43 -71z" />
<glyph unicode="&#xd3;" horiz-adv-x="1488" d="M90 717q0 168 49.5 308.5t137 236t207.5 148t259 52.5q188 0 336.5 -91.5t234 -262t85.5 -391.5q0 -168 -50 -309t-138 -236t-208.5 -148t-259.5 -53q-140 0 -261 53.5t-207.5 150t-135.5 236.5t-49 306zM209 717q0 -291 149 -462t385 -171t385.5 172.5t149.5 460.5 q0 293 -149.5 463t-385.5 170q-237 0 -385.5 -171.5t-148.5 -461.5zM586 1589l387 228l49 -84l-393 -215z" />
<glyph unicode="&#xd4;" horiz-adv-x="1488" d="M90 717q0 168 49.5 308.5t137 236t207.5 148t259 52.5q188 0 336.5 -91.5t234 -262t85.5 -391.5q0 -168 -50 -309t-138 -236t-208.5 -148t-259.5 -53q-140 0 -261 53.5t-207.5 150t-135.5 236.5t-49 306zM209 717q0 -291 149 -462t385 -171t385.5 172.5t149.5 460.5 q0 293 -149.5 463t-385.5 170q-237 0 -385.5 -171.5t-148.5 -461.5zM455 1595l295 269l294 -269l-63 -63l-231 211l-230 -211z" />
<glyph unicode="&#xd5;" horiz-adv-x="1488" d="M90 717q0 168 49.5 308.5t137 236t207.5 148t259 52.5q188 0 336.5 -91.5t234 -262t85.5 -391.5q0 -168 -50 -309t-138 -236t-208.5 -148t-259.5 -53q-140 0 -261 53.5t-207.5 150t-135.5 236.5t-49 306zM209 717q0 -291 149 -462t385 -171t385.5 172.5t149.5 460.5 q0 293 -149.5 463t-385.5 170q-237 0 -385.5 -171.5t-148.5 -461.5zM434 1577q-2 78 52 130t137 52q40 0 77.5 -18t61.5 -39t54 -39t58 -18q42 0 69.5 28t29.5 70h94q2 -78 -51.5 -130t-136.5 -52q-38 0 -74.5 18t-61 39t-56 39t-60.5 18q-44 0 -71.5 -27.5t-27.5 -70.5h-94 z" />
<glyph unicode="&#xd6;" horiz-adv-x="1488" d="M90 717q0 168 49.5 308.5t137 236t207.5 148t259 52.5q188 0 336.5 -91.5t234 -262t85.5 -391.5q0 -168 -50 -309t-138 -236t-208.5 -148t-259.5 -53q-140 0 -261 53.5t-207.5 150t-135.5 236.5t-49 306zM209 717q0 -291 149 -462t385 -171t385.5 172.5t149.5 460.5 q0 293 -149.5 463t-385.5 170q-237 0 -385.5 -171.5t-148.5 -461.5zM461 1649q0 37 23.5 61.5t58.5 24.5q34 0 57 -24.5t23 -61.5t-23 -61.5t-57 -24.5q-35 0 -58.5 24.5t-23.5 61.5zM874 1649q0 36 24 61t58 25t57 -24.5t23 -61.5t-23 -61.5t-57 -24.5t-58 25t-24 61z" />
<glyph unicode="&#xd7;" d="M295 414l299 323l-299 326l78 72l295 -318l295 318l75 -72l-299 -324l299 -325l-77 -72l-293 320l-295 -320z" />
<glyph unicode="&#xd8;" horiz-adv-x="1488" d="M90 717q0 168 49.5 308.5t137 236t207.5 148t259 52.5q218 0 381 -123l68 97l84 -58l-76 -106q199 -209 199 -555q0 -168 -50 -309t-138 -236t-208.5 -148t-259.5 -53q-215 0 -374 119l-64 -92l-82 59l70 99q-97 100 -150 243.5t-53 317.5zM209 717q0 -294 151 -465 l699 995q-130 103 -316 103q-237 0 -385.5 -171.5t-148.5 -461.5zM434 182q134 -98 309 -98q236 0 385.5 172.5t149.5 460.5q0 287 -145 459z" />
<glyph unicode="&#xd9;" d="M147 535v899h117v-906q0 -222 101.5 -335t300.5 -113q201 0 302 113t101 335v906h117v-899q0 -276 -134.5 -421t-385.5 -145t-385 145t-134 421zM375 1733l49 84l387 -228l-43 -71z" />
<glyph unicode="&#xda;" d="M147 535v899h117v-906q0 -222 101.5 -335t300.5 -113q201 0 302 113t101 335v906h117v-899q0 -276 -134.5 -421t-385.5 -145t-385 145t-134 421zM506 1589l387 228l49 -84l-393 -215z" />
<glyph unicode="&#xdb;" d="M147 535v899h117v-906q0 -222 101.5 -335t300.5 -113q201 0 302 113t101 335v906h117v-899q0 -276 -134.5 -421t-385.5 -145t-385 145t-134 421zM375 1595l295 269l295 -269l-64 -63l-231 211l-230 -211z" />
<glyph unicode="&#xdc;" d="M147 535v899h117v-906q0 -222 101.5 -335t300.5 -113q201 0 302 113t101 335v906h117v-899q0 -276 -134.5 -421t-385.5 -145t-385 145t-134 421zM381 1649q0 37 23.5 61.5t58.5 24.5q34 0 57 -24.5t23 -61.5t-23 -61.5t-57 -24.5q-35 0 -58.5 24.5t-23.5 61.5zM795 1649 q0 36 24 61t58 25t56.5 -24.5t22.5 -61.5t-22.5 -61.5t-56.5 -24.5t-58 25t-24 61z" />
<glyph unicode="&#xdd;" horiz-adv-x="1200" d="M37 1434h131l346 -494q82 -133 86 -133h2q6 0 84 133l346 494h131l-506 -727v-707h-114v707zM434 1589l387 228l49 -84l-393 -215z" />
<glyph unicode="&#xde;" horiz-adv-x="1118" d="M184 0v1434h117v-267h279q204 0 330 -124t126 -322t-126 -320t-330 -122h-279v-279h-117zM301 389h281q150 0 241.5 91.5t91.5 240.5q0 151 -91.5 243.5t-241.5 92.5h-281v-668z" />
<glyph unicode="&#xdf;" horiz-adv-x="1439" d="M184 0v1434h1051l-248 -457q-16 -31 -40 -71l-39 -65t-15 -26l4 -4h12q198 1 319.5 -114.5t121.5 -301.5t-122 -305t-319 -119q-148 0 -270.5 77t-177.5 204l110 33q43 -96 134 -152.5t202 -56.5q146 0 236 88.5t90 230.5q0 136 -87.5 229t-242.5 93h-119v94l191 356 q14 29 36.5 68t37 63t14.5 25l-2 2h-9q-8 0 -23 -0.5t-33.5 -1t-44.5 -0.5h-52h-598v-1323h-117z" />
<glyph unicode="&#xe0;" horiz-adv-x="1341" d="M49 0l567 1434h109l567 -1434h-123l-161 418h-674l-162 -418h-123zM375 522h592l-238 613l-57 161h-2q-1 0 -8.5 -21.5t-22 -63.5t-27.5 -76zM375 1733l49 84l387 -228l-43 -71z" />
<glyph unicode="&#xe1;" horiz-adv-x="1341" d="M49 0l567 1434h109l567 -1434h-123l-161 418h-674l-162 -418h-123zM375 522h592l-238 613l-57 161h-2q-1 0 -8.5 -21.5t-22 -63.5t-27.5 -76zM506 1589l387 228l49 -84l-393 -215z" />
<glyph unicode="&#xe2;" horiz-adv-x="1341" d="M49 0l567 1434h109l567 -1434h-123l-161 418h-674l-162 -418h-123zM375 522h592l-238 613l-57 161h-2q-1 0 -8.5 -21.5t-22 -63.5t-27.5 -76zM375 1595l295 269l295 -269l-64 -63l-231 211l-230 -211z" />
<glyph unicode="&#xe3;" horiz-adv-x="1341" d="M49 0l567 1434h109l567 -1434h-123l-161 418h-674l-162 -418h-123zM354 1577q-2 78 52 130t137 52q40 0 77.5 -18t61.5 -39t54.5 -39t58.5 -18q42 0 69 28t29 70h94q2 -78 -51.5 -130t-136.5 -52q-38 0 -74.5 18t-61 39t-56 39t-60.5 18q-44 0 -71 -27.5t-27 -70.5h-95z M375 522h592l-238 613l-57 161h-2q-1 0 -8.5 -21.5t-22 -63.5t-27.5 -76z" />
<glyph unicode="&#xe4;" horiz-adv-x="1341" d="M49 0l567 1434h109l567 -1434h-123l-161 418h-674l-162 -418h-123zM375 522h592l-238 613l-57 161h-2q-1 0 -8.5 -21.5t-22 -63.5t-27.5 -76zM381 1649q0 37 23.5 61.5t58.5 24.5q34 0 57 -24.5t23 -61.5t-23 -61.5t-57 -24.5q-35 0 -58.5 24.5t-23.5 61.5zM795 1649 q0 36 24 61t58 25t56.5 -24.5t22.5 -61.5t-22.5 -61.5t-56.5 -24.5t-58 25t-24 61z" />
<glyph unicode="&#xe5;" horiz-adv-x="1341" d="M49 0l565 1427q-62 19 -100.5 71.5t-38.5 119.5q0 85 57 142t140 57q82 0 140 -57.5t58 -141.5q0 -67 -40.5 -119.5t-102.5 -71.5l565 -1427h-123l-161 418h-674l-162 -418h-123zM375 522h592l-238 613l-57 161h-2q-1 0 -8.5 -21.5t-22 -63.5t-27.5 -76zM553 1620 q0 -51 35 -87t84 -36q50 0 85.5 36t35.5 87q0 52 -35.5 86.5t-85.5 34.5t-84.5 -34.5t-34.5 -86.5z" />
<glyph unicode="&#xe6;" horiz-adv-x="1816" d="M49 0l584 1434h1065v-111h-725v-502h579v-108h-579v-602h737v-111h-852v418h-516l-168 -418h-125zM385 522h473v801h-156q-5 0 -104 -270z" />
<glyph unicode="&#xe7;" horiz-adv-x="1388" d="M90 717q0 168 49.5 308.5t136.5 236t207 148t260 52.5q193 0 343.5 -98t230.5 -274l-117 -31q-64 139 -184.5 215t-272.5 76q-238 0 -386 -171.5t-148 -461.5q0 -289 149.5 -460t384.5 -171q162 0 289.5 88.5t190.5 243.5l112 -33q-72 -191 -224 -300t-351 -114l-27 -69 q88 2 143.5 -49t55.5 -134t-55.5 -131.5t-143.5 -48.5h-117l31 76h86q54 0 87.5 28.5t33.5 75.5q0 50 -33.5 80.5t-87.5 30.5h-104l51 143q-262 24 -426 226.5t-164 517.5z" />
<glyph unicode="&#xe8;" horiz-adv-x="1142" d="M184 0v1434h838v-111h-721v-502h573v-108h-573v-602h733v-111h-850zM307 1733l49 84l387 -228l-43 -71z" />
<glyph unicode="&#xe9;" horiz-adv-x="1142" d="M184 0v1434h838v-111h-721v-502h573v-108h-573v-602h733v-111h-850zM438 1589l387 228l49 -84l-393 -215z" />
<glyph unicode="&#xea;" horiz-adv-x="1142" d="M184 0v1434h838v-111h-721v-502h573v-108h-573v-602h733v-111h-850zM307 1595l295 269l295 -269l-63 -63l-232 211l-229 -211z" />
<glyph unicode="&#xeb;" horiz-adv-x="1142" d="M184 0v1434h838v-111h-721v-502h573v-108h-573v-602h733v-111h-850zM313 1649q0 37 23.5 61.5t58.5 24.5q34 0 57 -24.5t23 -61.5t-23 -61.5t-57 -24.5q-35 0 -58.5 24.5t-23.5 61.5zM727 1649q0 36 24 61t58 25t57 -24.5t23 -61.5t-23 -61.5t-57 -24.5t-58 25t-24 61z " />
<glyph unicode="&#xec;" horiz-adv-x="485" d="M-53 1733l49 84l387 -228l-43 -71zM184 0v1434h117v-1434h-117z" />
<glyph unicode="&#xed;" horiz-adv-x="485" d="M78 1589l387 228l49 -84l-393 -215zM184 0v1434h117v-1434h-117z" />
<glyph unicode="&#xee;" horiz-adv-x="485" d="M-53 1595l295 269l295 -269l-64 -63l-231 211l-230 -211zM184 0v1434h117v-1434h-117z" />
<glyph unicode="&#xef;" horiz-adv-x="485" d="M-47 1649q0 37 23.5 61.5t58.5 24.5q34 0 57 -24.5t23 -61.5t-23 -61.5t-57 -24.5q-35 0 -58.5 24.5t-23.5 61.5zM184 0v1434h117v-1434h-117zM367 1649q0 36 24 61t58 25t56.5 -24.5t22.5 -61.5t-22.5 -61.5t-56.5 -24.5t-58 25t-24 61z" />
<glyph unicode="&#xf0;" horiz-adv-x="1464" d="M90 678v108h103v648h503q145 0 270 -52t214.5 -145.5t140.5 -229.5t51 -298q0 -213 -85.5 -375t-234.5 -248t-339 -86h-520v678h-103zM309 111h408q236 0 386 161.5t150 436.5q0 142 -42 258.5t-116.5 194t-175.5 119.5t-219 42h-391v-537h353v-108h-353v-567z" />
<glyph unicode="&#xf1;" horiz-adv-x="1400" d="M184 0v1434h109l653 -990q42 -60 82 -122t58.5 -91.5t19.5 -29.5h2q1 0 -1 47t-4.5 139t-2.5 176v871h117v-1434h-107l-655 993q-44 63 -84 125.5t-57.5 92.5t-18.5 30h-4q-1 0 1.5 -46t5.5 -139.5t3 -181.5v-874h-117zM385 1577q-2 78 51.5 130t136.5 52q40 0 77.5 -18 t61.5 -39t54.5 -39t58.5 -18q42 0 69.5 28t29.5 70h94q2 -78 -52 -130t-137 -52q-38 0 -74.5 18t-60.5 39t-55.5 39t-60.5 18q-44 0 -71.5 -27.5t-27.5 -70.5h-94z" />
<glyph unicode="&#xf2;" horiz-adv-x="1488" d="M90 717q0 168 49.5 308.5t137 236t207.5 148t259 52.5q188 0 336.5 -91.5t234 -262t85.5 -391.5q0 -168 -50 -309t-138 -236t-208.5 -148t-259.5 -53q-140 0 -261 53.5t-207.5 150t-135.5 236.5t-49 306zM209 717q0 -291 149 -462t385 -171t385.5 172.5t149.5 460.5 q0 293 -149.5 463t-385.5 170q-237 0 -385.5 -171.5t-148.5 -461.5zM453 1733l49 84l387 -228l-43 -71z" />
<glyph unicode="&#xf3;" horiz-adv-x="1488" d="M90 717q0 168 49.5 308.5t137 236t207.5 148t259 52.5q188 0 336.5 -91.5t234 -262t85.5 -391.5q0 -168 -50 -309t-138 -236t-208.5 -148t-259.5 -53q-140 0 -261 53.5t-207.5 150t-135.5 236.5t-49 306zM209 717q0 -291 149 -462t385 -171t385.5 172.5t149.5 460.5 q0 293 -149.5 463t-385.5 170q-237 0 -385.5 -171.5t-148.5 -461.5zM584 1589l387 228l49 -84l-393 -215z" />
<glyph unicode="&#xf4;" horiz-adv-x="1488" d="M90 717q0 168 49.5 308.5t137 236t207.5 148t259 52.5q188 0 336.5 -91.5t234 -262t85.5 -391.5q0 -168 -50 -309t-138 -236t-208.5 -148t-259.5 -53q-140 0 -261 53.5t-207.5 150t-135.5 236.5t-49 306zM209 717q0 -291 149 -462t385 -171t385.5 172.5t149.5 460.5 q0 293 -149.5 463t-385.5 170q-237 0 -385.5 -171.5t-148.5 -461.5zM453 1595l295 269l294 -269l-63 -63l-231 211l-230 -211z" />
<glyph unicode="&#xf5;" horiz-adv-x="1488" d="M90 717q0 168 49.5 308.5t137 236t207.5 148t259 52.5q188 0 336.5 -91.5t234 -262t85.5 -391.5q0 -168 -50 -309t-138 -236t-208.5 -148t-259.5 -53q-140 0 -261 53.5t-207.5 150t-135.5 236.5t-49 306zM209 717q0 -291 149 -462t385 -171t385.5 172.5t149.5 460.5 q0 293 -149.5 463t-385.5 170q-237 0 -385.5 -171.5t-148.5 -461.5zM432 1577q-2 78 52 130t137 52q40 0 77.5 -18t61.5 -39t54 -39t58 -18q42 0 69.5 28t29.5 70h94q2 -78 -51.5 -130t-136.5 -52q-38 0 -74.5 18t-61 39t-56 39t-60.5 18q-44 0 -71.5 -27.5t-27.5 -70.5h-94 z" />
<glyph unicode="&#xf6;" horiz-adv-x="1488" d="M90 717q0 168 49.5 308.5t137 236t207.5 148t259 52.5q188 0 336.5 -91.5t234 -262t85.5 -391.5q0 -168 -50 -309t-138 -236t-208.5 -148t-259.5 -53q-140 0 -261 53.5t-207.5 150t-135.5 236.5t-49 306zM209 717q0 -291 149 -462t385 -171t385.5 172.5t149.5 460.5 q0 293 -149.5 463t-385.5 170q-237 0 -385.5 -171.5t-148.5 -461.5zM459 1649q0 37 23.5 61.5t58.5 24.5q34 0 57 -24.5t23 -61.5t-23 -61.5t-57 -24.5q-35 0 -58.5 24.5t-23.5 61.5zM872 1649q0 36 24 61t58 25t57 -24.5t23 -61.5t-23 -61.5t-57 -24.5t-58 25t-24 61z" />
<glyph unicode="&#xf7;" d="M223 678v100h873v-100h-873zM571 279q0 36 24 59.5t58 23.5t57 -24t23 -59t-23 -59.5t-57 -24.5q-35 0 -58.5 25t-23.5 59zM571 1182q0 36 24 60t58 24t57 -24.5t23 -59.5t-23 -59.5t-57 -24.5q-35 0 -58.5 25t-23.5 59z" />
<glyph unicode="&#xf8;" horiz-adv-x="1488" d="M90 717q0 168 49.5 308.5t137 236t207.5 148t259 52.5q218 0 381 -123l68 97l84 -58l-76 -106q199 -209 199 -555q0 -168 -50 -309t-138 -236t-208.5 -148t-259.5 -53q-215 0 -374 119l-64 -92l-82 59l70 99q-97 100 -150 243.5t-53 317.5zM209 717q0 -294 151 -465 l699 995q-130 103 -316 103q-237 0 -385.5 -171.5t-148.5 -461.5zM434 182q134 -98 309 -98q236 0 385.5 172.5t149.5 460.5q0 287 -145 459z" />
<glyph unicode="&#xf9;" d="M147 535v899h117v-906q0 -222 101.5 -335t300.5 -113q201 0 302 113t101 335v906h117v-899q0 -276 -134.5 -421t-385.5 -145t-385 145t-134 421zM375 1733l49 84l387 -228l-43 -71z" />
<glyph unicode="&#xfa;" d="M147 535v899h117v-906q0 -222 101.5 -335t300.5 -113q201 0 302 113t101 335v906h117v-899q0 -276 -134.5 -421t-385.5 -145t-385 145t-134 421zM506 1589l387 228l49 -84l-393 -215z" />
<glyph unicode="&#xfb;" d="M147 535v899h117v-906q0 -222 101.5 -335t300.5 -113q201 0 302 113t101 335v906h117v-899q0 -276 -134.5 -421t-385.5 -145t-385 145t-134 421zM375 1595l295 269l295 -269l-64 -63l-231 211l-230 -211z" />
<glyph unicode="&#xfc;" d="M147 535v899h117v-906q0 -222 101.5 -335t300.5 -113q201 0 302 113t101 335v906h117v-899q0 -276 -134.5 -421t-385.5 -145t-385 145t-134 421zM381 1649q0 37 23.5 61.5t58.5 24.5q34 0 57 -24.5t23 -61.5t-23 -61.5t-57 -24.5q-35 0 -58.5 24.5t-23.5 61.5zM795 1649 q0 36 24 61t58 25t56.5 -24.5t22.5 -61.5t-22.5 -61.5t-56.5 -24.5t-58 25t-24 61z" />
<glyph unicode="&#xfd;" horiz-adv-x="1200" d="M37 1434h131l346 -494q82 -133 86 -133h2q6 0 84 133l346 494h131l-506 -727v-707h-114v707zM434 1589l387 228l49 -84l-393 -215z" />
<glyph unicode="&#xfe;" horiz-adv-x="1118" d="M184 0v1434h117v-267h279q204 0 330 -124t126 -322t-126 -320t-330 -122h-279v-279h-117zM301 389h281q150 0 241.5 91.5t91.5 240.5q0 151 -91.5 243.5t-241.5 92.5h-281v-668z" />
<glyph unicode="&#xff;" horiz-adv-x="1200" d="M37 1434h131l346 -494q82 -133 86 -133h2q6 0 84 133l346 494h131l-506 -727v-707h-114v707zM309 1649q0 37 23.5 61.5t58.5 24.5q34 0 57 -24.5t23 -61.5t-23 -61.5t-57 -24.5q-35 0 -58.5 24.5t-23.5 61.5zM723 1649q0 36 24 61t58 25t57 -24.5t23 -61.5t-23 -61.5 t-57 -24.5t-58 25t-24 61z" />
<glyph unicode="&#x152;" horiz-adv-x="1816" d="M90 717q0 168 48 305t133.5 228.5t204.5 141.5t259 50q68 0 123 -8h838v-111h-725v-502h577v-108h-577v-602h737v-111h-850v2q-49 -10 -123 -10q-189 0 -335 87t-228 252t-82 386zM209 717q0 -289 145 -451t383 -162q66 0 121 19v1188q-52 18 -121 18q-239 0 -383.5 -162 t-144.5 -450z" />
<glyph unicode="&#x153;" horiz-adv-x="1816" d="M90 717q0 168 48 305t133.5 228.5t204.5 141.5t259 50q68 0 123 -8h838v-111h-725v-502h577v-108h-577v-602h737v-111h-850v2q-49 -10 -123 -10q-189 0 -335 87t-228 252t-82 386zM209 717q0 -289 145 -451t383 -162q66 0 121 19v1188q-52 18 -121 18q-239 0 -383.5 -162 t-144.5 -450z" />
<glyph unicode="&#x178;" horiz-adv-x="1200" d="M37 1434h131l346 -494q82 -133 86 -133h2q6 0 84 133l346 494h131l-506 -727v-707h-114v707zM309 1649q0 37 23.5 61.5t58.5 24.5q34 0 57 -24.5t23 -61.5t-23 -61.5t-57 -24.5q-35 0 -58.5 24.5t-23.5 61.5zM723 1649q0 36 24 61t58 25t57 -24.5t23 -61.5t-23 -61.5 t-57 -24.5t-58 25t-24 61z" />
<glyph unicode="&#x2c6;" horiz-adv-x="776" d="M90 1595l295 269l295 -269l-64 -63l-231 211l-231 -211z" />
<glyph unicode="&#x2dc;" horiz-adv-x="819" d="M88 1577q0 78 53.5 130t134.5 52q40 0 78 -18t62 -39t54.5 -39t57.5 -18q42 0 70.5 28.5t28.5 69.5h96q2 -78 -51.5 -130t-136.5 -52q-38 0 -75 18t-61.5 39t-56 39t-59.5 18q-44 0 -71.5 -27.5t-27.5 -70.5h-96z" />
<glyph unicode="&#x2000;" horiz-adv-x="932" />
<glyph unicode="&#x2001;" horiz-adv-x="1864" />
<glyph unicode="&#x2002;" horiz-adv-x="932" />
<glyph unicode="&#x2003;" horiz-adv-x="1864" />
<glyph unicode="&#x2004;" horiz-adv-x="621" />
<glyph unicode="&#x2005;" horiz-adv-x="466" />
<glyph unicode="&#x2006;" horiz-adv-x="310" />
<glyph unicode="&#x2007;" horiz-adv-x="310" />
<glyph unicode="&#x2008;" horiz-adv-x="233" />
<glyph unicode="&#x2009;" horiz-adv-x="372" />
<glyph unicode="&#x200a;" horiz-adv-x="103" />
<glyph unicode="&#x2010;" horiz-adv-x="1243" d="M184 678v100h875v-100h-875z" />
<glyph unicode="&#x2011;" horiz-adv-x="1243" d="M184 678v100h875v-100h-875z" />
<glyph unicode="&#x2012;" horiz-adv-x="1243" d="M184 678v100h875v-100h-875z" />
<glyph unicode="&#x2013;" horiz-adv-x="1130" d="M184 672v110h762v-110h-762z" />
<glyph unicode="&#x2014;" horiz-adv-x="1896" d="M184 672v110h1528v-110h-1528z" />
<glyph unicode="&#x2018;" horiz-adv-x="559" d="M184 1153q0 86 40.5 169.5t92.5 139.5h58q-42 -43 -71.5 -108t-29.5 -129l-16 -11h18q30 0 54 -22.5t24 -58.5t-25 -60t-61 -24q-37 0 -60.5 29.5t-23.5 74.5z" />
<glyph unicode="&#x2019;" horiz-adv-x="559" d="M184 1049q42 43 71.5 108t29.5 129l16 10h-18q-30 0 -54 22.5t-24 59.5q0 36 25 60t61 24q37 0 60.5 -29.5t23.5 -74.5q0 -86 -40.5 -169.5t-92.5 -139.5h-58z" />
<glyph unicode="&#x201a;" horiz-adv-x="559" d="M184 -270q42 43 71.5 108t29.5 129l16 10h-18q-30 0 -54 22.5t-24 59.5q0 36 25 60t61 24q37 0 60.5 -29.5t23.5 -74.5q0 -86 -40.5 -169.5t-92.5 -139.5h-58z" />
<glyph unicode="&#x201c;" horiz-adv-x="878" d="M184 1153q0 86 40.5 169.5t92.5 139.5h58q-42 -43 -71.5 -108t-29.5 -129l-16 -11h18q30 0 54 -22.5t24 -58.5t-25 -60t-61 -24q-37 0 -60.5 29.5t-23.5 74.5zM504 1153q0 86 40.5 169.5t92.5 139.5h57q-41 -43 -70.5 -108t-29.5 -129l-16 -11h18q30 0 54 -22t24 -59 q0 -36 -25 -60t-61 -24q-37 0 -60.5 29.5t-23.5 74.5z" />
<glyph unicode="&#x201d;" horiz-adv-x="878" d="M184 1049q42 43 71.5 108t29.5 129l16 10h-18q-30 0 -54 22.5t-24 59.5q0 36 25 60t61 24q37 0 60.5 -29.5t23.5 -74.5q0 -86 -40.5 -169.5t-92.5 -139.5h-58zM504 1049q41 43 70.5 108t29.5 129l17 10h-19q-30 0 -54 22.5t-24 59.5q0 36 25 60t61 24q37 0 60.5 -29.5 t23.5 -74.5q0 -86 -40.5 -169.5t-92.5 -139.5h-57z" />
<glyph unicode="&#x201e;" horiz-adv-x="860" d="M184 -270q42 44 71.5 108t29.5 127l16 10h-18q-30 0 -54 23t-24 59q0 37 25 60.5t61 23.5q37 0 60.5 -29.5t23.5 -74.5q0 -85 -40.5 -169.5t-92.5 -137.5h-58zM485 -270q42 44 71.5 108t29.5 127l16 10h-16q-31 0 -55.5 23t-24.5 59q0 37 25.5 60.5t60.5 23.5 q37 0 60.5 -29.5t23.5 -74.5q0 -85 -40.5 -169.5t-92.5 -137.5h-58z" />
<glyph unicode="&#x2022;" horiz-adv-x="702" d="M184 727q0 74 49 125t119 51t118 -51t48 -125q0 -75 -47.5 -125.5t-118.5 -50.5t-119.5 50.5t-48.5 125.5z" />
<glyph unicode="&#x2026;" horiz-adv-x="1339" d="M121 41q0 29 19.5 48.5t47.5 19.5q29 0 48.5 -20t19.5 -48q0 -30 -20 -50t-48 -20q-29 0 -48 20t-19 50zM598 41q0 29 19 48.5t47 19.5q29 0 48 -20t19 -48q0 -31 -19 -50.5t-48 -19.5q-28 0 -47 20.5t-19 49.5zM1083 41q0 29 20 48.5t48 19.5q29 0 48.5 -20t19.5 -48 q0 -30 -20 -50t-48 -20q-29 0 -48.5 20.5t-19.5 49.5z" />
<glyph unicode="&#x202f;" horiz-adv-x="372" />
<glyph unicode="&#x2039;" horiz-adv-x="874" d="M184 721l432 -477l74 63l-377 414l375 412l-72 65z" />
<glyph unicode="&#x203a;" horiz-adv-x="874" d="M184 307l377 414l-377 412l74 65l432 -477l-432 -477z" />
<glyph unicode="&#x205f;" horiz-adv-x="466" />
<glyph unicode="&#x20ac;" horiz-adv-x="1470" d="M90 578v88h90q-2 16 -2 51v45h-88v90h96q38 280 214 444t429 164q191 0 341.5 -99t228.5 -274l-117 -30q-66 139 -185 214t-270 75q-205 0 -348 -132.5t-176 -361.5h559v-90h-567q-2 -14 -2 -45q0 -35 2 -51h567v-88h-559q36 -227 180 -357.5t346 -130.5q162 0 287.5 86 t186.5 242l114 -31q-73 -196 -229 -305t-359 -109q-253 0 -428.5 164.5t-212.5 440.5h-98z" />
<glyph unicode="&#x2122;" horiz-adv-x="1486" d="M49 1354v84h526v-84h-221v-586h-86v586h-219zM700 768v670h80l170 -318q16 -29 28.5 -57t17 -40.5t5.5 -12.5h3q1 0 5.5 12t17 40t28.5 58l170 318h80v-670h-84v295q0 50 3.5 111.5t6.5 96t2 34.5h-4q-1 0 -8 -15.5t-22 -45.5t-30 -56l-143 -262h-49l-143 262 q-15 26 -30 56t-22 45.5t-8 15.5h-2q-1 0 2 -34.5t6.5 -96t3.5 -111.5v-295h-84z" />
<glyph unicode="&#x25fc;" horiz-adv-x="1433" d="M0 0v1434h1434v-1434h-1434z" />
</font>
</defs>
</svg>
